<svg xmlns="http://www.w3.org/2000/svg" viewBox="0 0 137.3 123.17"><title>Resurs 1</title><g id="Lager_2" data-name="Lager 2"><g id="Lager_1-2" data-name="Lager 1"><polygon points="107.25 57.66 119.4 69.81 119.4 57.66 107.25 57.66" style="fill:#e6e9ee"/><line x1="136.63" y1="12.74" x2="135.47" y2="13.91" style="fill:none;stroke:#231f20;stroke-linecap:round;stroke-miterlimit:10;stroke-width:1.35px"/><line x1="132.99" y1="16.38" x2="131.83" y2="17.54" style="fill:none;stroke:#231f20;stroke-linecap:round;stroke-miterlimit:10;stroke-width:1.35px"/><line x1="136.63" y1="17.54" x2="135.47" y2="16.38" style="fill:none;stroke:#231f20;stroke-linecap:round;stroke-miterlimit:10;stroke-width:1.35px"/><line x1="132.99" y1="13.91" x2="131.83" y2="12.74" style="fill:none;stroke:#231f20;stroke-linecap:round;stroke-miterlimit:10;stroke-width:1.35px"/><line x1="32.67" y1="0.69" x2="31.51" y2="1.85" style="fill:none;stroke:#231f20;stroke-linecap:round;stroke-miterlimit:10;stroke-width:1.35px"/><line x1="29.04" y1="4.32" x2="27.88" y2="5.49" style="fill:none;stroke:#231f20;stroke-linecap:round;stroke-miterlimit:10;stroke-width:1.35px"/><line x1="32.67" y1="5.49" x2="31.51" y2="4.32" style="fill:none;stroke:#231f20;stroke-linecap:round;stroke-miterlimit:10;stroke-width:1.35px"/><line x1="29.04" y1="1.85" x2="27.88" y2="0.69" style="fill:none;stroke:#231f20;stroke-linecap:round;stroke-miterlimit:10;stroke-width:1.35px"/><line x1="112.93" y1="33.41" x2="120.23" y2="33.41" style="fill:none;stroke:#231f20;stroke-linecap:round;stroke-linejoin:round;stroke-width:1.35px"/><line x1="119.53" y1="36.07" x2="123.1" y2="36.07" style="fill:none;stroke:#231f20;stroke-linecap:round;stroke-linejoin:round;stroke-width:1.35px"/><line x1="123.54" y1="33.41" x2="126.95" y2="33.41" style="fill:none;stroke:#231f20;stroke-linecap:round;stroke-linejoin:round;stroke-width:1.35px"/><line x1="116.23" y1="36.07" x2="116.93" y2="36.07" style="fill:none;stroke:#231f20;stroke-linecap:round;stroke-linejoin:round;stroke-width:1.35px"/><polygon points="23.51 51.46 17.32 51.46 17.32 110.99 113.44 110.99 113.44 104.8 23.51 104.8 23.51 51.46" style="fill:none;stroke:#231f20;stroke-linejoin:round;stroke-width:1.35px"/><polygon points="23.52 45.27 107.25 45.27 107.25 57.66 119.64 57.66 119.64 104.8 23.52 104.8 23.52 45.27" style="fill:none;stroke:#231f20;stroke-linejoin:round;stroke-width:1.35px"/><polygon points="119.64 57.66 107.25 57.66 107.25 45.27 119.64 57.66" style="fill:#fff;stroke:#231f20;stroke-linejoin:round;stroke-width:1.35px"/><polygon points="109.06 55.85 109.06 49.62 115.29 55.85 109.06 55.85" style="fill:#07dddd"/><path d="M67.68,55.31h18.4a32.18,32.18,0,0,1,7.56-17.68,22.29,22.29,0,1,0-33.51,0A32.24,32.24,0,0,1,67.68,55.31Z" style="fill:#fff;stroke:#231f20;stroke-linejoin:round;stroke-width:1.35px"/><polygon points="88.04 55.31 74.19 55.31 65.71 55.31 65.71 67.3 88.04 67.3 88.04 55.31" style="fill:#fff;stroke:#231f20;stroke-linejoin:round;stroke-width:1.35px"/><line x1="62.38" y1="59.3" x2="91.37" y2="59.3" style="fill:#fff;stroke:#231f20;stroke-linejoin:round;stroke-width:1.35px"/><line x1="62.38" y1="63.3" x2="91.37" y2="63.3" style="fill:#fff;stroke:#231f20;stroke-linejoin:round;stroke-width:1.35px"/><rect x="71.85" y="67.3" width="10.05" height="4.12" style="fill:#fff;stroke:#231f20;stroke-linejoin:round;stroke-width:1.35px"/><rect x="30.27" y="14.93" width="12.74" height="83.77" style="fill:#fff;stroke:#231f20;stroke-miterlimit:10;stroke-width:1.35px"/><rect x="-3.8" y="51.89" width="80.88" height="9.85" transform="translate(93.46 20.17) rotate(90)" style="fill:#30c0d8;stroke:#020202;stroke-miterlimit:10;stroke-width:1.35px"/><line x1="30.27" y1="20.47" x2="35.01" y2="20.47" style="fill:none;stroke:#231f20;stroke-miterlimit:10;stroke-width:1.35px"/><line x1="30.27" y1="26.06" x2="35.01" y2="26.06" style="fill:none;stroke:#231f20;stroke-miterlimit:10;stroke-width:1.35px"/><line x1="30.27" y1="31.65" x2="35.01" y2="31.65" style="fill:none;stroke:#231f20;stroke-miterlimit:10;stroke-width:1.35px"/><line x1="30.27" y1="37.25" x2="35.01" y2="37.25" style="fill:none;stroke:#231f20;stroke-miterlimit:10;stroke-width:1.35px"/><line x1="30.27" y1="42.84" x2="35.01" y2="42.84" style="fill:none;stroke:#231f20;stroke-miterlimit:10;stroke-width:1.35px"/><line x1="30.27" y1="48.43" x2="35.01" y2="48.43" style="fill:none;stroke:#231f20;stroke-miterlimit:10;stroke-width:1.35px"/><line x1="30.27" y1="54.02" x2="35.01" y2="54.02" style="fill:none;stroke:#231f20;stroke-miterlimit:10;stroke-width:1.35px"/><line x1="30.27" y1="59.61" x2="35.01" y2="59.61" style="fill:none;stroke:#231f20;stroke-miterlimit:10;stroke-width:1.35px"/><line x1="30.27" y1="65.21" x2="35.01" y2="65.21" style="fill:none;stroke:#231f20;stroke-miterlimit:10;stroke-width:1.35px"/><line x1="30.27" y1="70.8" x2="35.01" y2="70.8" style="fill:none;stroke:#231f20;stroke-miterlimit:10;stroke-width:1.35px"/><line x1="30.27" y1="76.39" x2="35.01" y2="76.39" style="fill:none;stroke:#231f20;stroke-miterlimit:10;stroke-width:1.35px"/><line x1="30.27" y1="81.98" x2="35.01" y2="81.98" style="fill:none;stroke:#231f20;stroke-miterlimit:10;stroke-width:1.35px"/><line x1="30.27" y1="87.58" x2="35.01" y2="87.58" style="fill:none;stroke:#231f20;stroke-miterlimit:10;stroke-width:1.35px"/><line x1="30.27" y1="93.17" x2="35.01" y2="93.17" style="fill:none;stroke:#231f20;stroke-miterlimit:10;stroke-width:1.35px"/><path d="M128.41,85.34H74.19v8.22h54.21a4.11,4.11,0,0,0,4.11-4.11h0A4.11,4.11,0,0,0,128.41,85.34Z" style="fill:#30c0d8;stroke:#020202;stroke-miterlimit:10;stroke-width:1.35px"/><path d="M119.94,93.56h8.47a4.11,4.11,0,0,0,4.11-4.11h0a4.11,4.11,0,0,0-4.11-4.11h-8.47Z" style="fill:none;stroke:#231f20;stroke-miterlimit:10;stroke-width:1.35px"/><polygon points="74.19 93.56 64.19 89.45 74.19 85.34 74.19 93.56" style="fill:none;stroke:#231f20;stroke-linejoin:round;stroke-width:1.35px"/><line x1="74.19" y1="89.45" x2="119.94" y2="89.45" style="fill:none;stroke:#231f20;stroke-linejoin:round;stroke-width:1.35px"/><line x1="109.45" y1="68.4" x2="108.29" y2="69.56" style="fill:none;stroke:#231f20;stroke-linecap:round;stroke-miterlimit:10;stroke-width:1.35px"/><line x1="105.82" y1="72.04" x2="104.66" y2="73.2" style="fill:none;stroke:#231f20;stroke-linecap:round;stroke-miterlimit:10;stroke-width:1.35px"/><line x1="109.45" y1="73.2" x2="108.29" y2="72.04" style="fill:none;stroke:#231f20;stroke-linecap:round;stroke-miterlimit:10;stroke-width:1.35px"/><line x1="105.82" y1="69.56" x2="104.66" y2="68.4" style="fill:none;stroke:#231f20;stroke-linecap:round;stroke-miterlimit:10;stroke-width:1.35px"/><circle cx="116.29" cy="20.36" r="2.26" style="fill:#07dddd"/><circle cx="103.36" cy="120.92" r="2.26" style="fill:#07dddd"/><circle cx="54.59" cy="81.23" r="2.26" style="fill:#07dddd"/><circle cx="42.11" cy="2.52" r="2.26" style="fill:#07dddd"/><path d="M75.22,55.31c.91-.21,1.17-25-1.92-30.45,0,0-1.2-3.22-3.61-2.26s-1.8,4-1.8,4a5,5,0,0,0,2,3.45c1.8,1.27,6.6,1.13,6.6,1.13h1.65" style="fill:#fff;stroke:#231f20;stroke-linejoin:round;stroke-width:0.675px"/><path d="M79.21,55.31s-1.6-25,1.49-30.45c0,0,1.15-3.06,3.61-2.26,2.09.69,1.8,4,1.8,4a4.6,4.6,0,0,1-2,3.45c-1.77,1.32-6.6,1.13-6.6,1.13H75.92" style="fill:#fff;stroke:#231f20;stroke-linejoin:round;stroke-width:0.675px"/><line x1="5.74" y1="89.27" x2="4.62" y2="90.39" style="fill:none;stroke:#231f20;stroke-linecap:round;stroke-miterlimit:10;stroke-width:2.25719588238001px"/><line x1="2.24" y1="92.77" x2="1.13" y2="93.88" style="fill:none;stroke:#231f20;stroke-linecap:round;stroke-miterlimit:10;stroke-width:2.25719588238001px"/><line x1="5.74" y1="93.88" x2="4.62" y2="92.77" style="fill:none;stroke:#231f20;stroke-linecap:round;stroke-miterlimit:10;stroke-width:2.25719588238001px"/><line x1="2.24" y1="90.39" x2="1.13" y2="89.27" style="fill:none;stroke:#231f20;stroke-linecap:round;stroke-miterlimit:10;stroke-width:2.25719588238001px"/></g></g></svg>