<svg xmlns="http://www.w3.org/2000/svg" viewBox="0 0 156.3 120.45"><title>Resurs 4</title><g id="Lager_2" data-name="Lager 2"><g id="Lager_1-2" data-name="Lager 1"><polygon points="42.8 52.85 40.84 52.87 36.55 68.58 40.47 68.55 42.8 52.85" style="fill:none;stroke:#0f0f0f;stroke-linecap:round;stroke-linejoin:round;stroke-width:0.9801000000000002px"/><polygon points="40.47 68.55 41.96 71.48 45.88 71.45 46.84 68.5 48.19 52.81 46.73 54.29 43.79 54.32 42.8 52.85 40.47 68.55" style="fill:none;stroke:#0f0f0f;stroke-linecap:round;stroke-linejoin:round;stroke-width:0.9801000000000002px"/><polygon points="46.84 68.5 53.21 68.46 51.62 52.79 47.98 52.81 46.84 68.5" style="fill:none;stroke:#0f0f0f;stroke-linecap:round;stroke-linejoin:round;stroke-width:0.9801000000000002px"/><polygon points="53.21 68.46 54.21 71.39 58.13 71.36 59.58 68.41 56.52 52.75 55.55 54.72 53.1 54.74 51.62 52.79 53.21 68.46" style="fill:none;stroke:#0f0f0f;stroke-linecap:round;stroke-linejoin:round;stroke-width:0.9801000000000002px"/><polygon points="59.49 68.41 63.5 68.38 58.97 52.73 56.52 52.75 59.49 68.41" style="fill:none;stroke:#0f0f0f;stroke-linecap:round;stroke-linejoin:round;stroke-width:0.9801000000000002px"/><line x1="148.31" y1="53.39" x2="146.99" y2="54.71" style="fill:none;stroke:#231f20;stroke-linecap:round;stroke-miterlimit:10;stroke-width:2.673px"/><line x1="144.18" y1="57.53" x2="142.86" y2="58.85" style="fill:none;stroke:#231f20;stroke-linecap:round;stroke-miterlimit:10;stroke-width:2.673px"/><line x1="148.31" y1="58.85" x2="146.99" y2="57.53" style="fill:none;stroke:#231f20;stroke-linecap:round;stroke-miterlimit:10;stroke-width:2.673px"/><line x1="144.18" y1="54.71" x2="142.86" y2="53.39" style="fill:none;stroke:#231f20;stroke-linecap:round;stroke-miterlimit:10;stroke-width:2.673px"/><line x1="138.34" y1="1.13" x2="137.22" y2="2.24" style="fill:none;stroke:#231f20;stroke-linecap:round;stroke-miterlimit:10;stroke-width:2.257195882380009px"/><line x1="134.85" y1="4.62" x2="133.73" y2="5.74" style="fill:none;stroke:#231f20;stroke-linecap:round;stroke-miterlimit:10;stroke-width:2.257195882380009px"/><line x1="138.34" y1="5.74" x2="137.22" y2="4.62" style="fill:none;stroke:#231f20;stroke-linecap:round;stroke-miterlimit:10;stroke-width:2.257195882380009px"/><line x1="134.85" y1="2.24" x2="133.73" y2="1.13" style="fill:none;stroke:#231f20;stroke-linecap:round;stroke-miterlimit:10;stroke-width:2.257195882380009px"/><circle cx="153.77" cy="32" r="2.53" style="fill:#07dddd"/><line x1="6.79" y1="54.34" x2="5.47" y2="55.66" style="fill:none;stroke:#231f20;stroke-linecap:round;stroke-miterlimit:10;stroke-width:2.673px"/><line x1="2.66" y1="58.47" x2="1.34" y2="59.79" style="fill:none;stroke:#231f20;stroke-linecap:round;stroke-miterlimit:10;stroke-width:2.673px"/><line x1="6.79" y1="59.79" x2="5.47" y2="58.47" style="fill:none;stroke:#231f20;stroke-linecap:round;stroke-miterlimit:10;stroke-width:2.673px"/><line x1="2.66" y1="55.66" x2="1.34" y2="54.34" style="fill:none;stroke:#231f20;stroke-linecap:round;stroke-miterlimit:10;stroke-width:2.673px"/><circle cx="32.54" cy="108.03" r="2.53" style="fill:#17c6c1"/><circle cx="11.69" cy="34.52" r="2.53" style="fill:#07dddd"/><rect x="22.08" y="18.32" width="107.54" height="12.26" style="fill:none;stroke:#000;stroke-miterlimit:10;stroke-width:1.6335000000000002px"/><path d="M80.86,95.92" style="fill:none;stroke:#000;stroke-miterlimit:10;stroke-width:1.0890000000000002px"/><polyline points="78.88 95.92 22.08 95.92 22.08 30.84 129.55 30.84 129.55 95.92 118.48 95.92" style="fill:none;stroke:#000;stroke-miterlimit:10;stroke-width:1.6335000000000002px"/><rect x="80.86" y="71.42" width="20.33" height="6.58" rx="0.73" ry="0.73" style="fill:#07dddd;stroke:#282828;stroke-miterlimit:10;stroke-width:0.9900000000000001px"/><path d="M107.83,119.59l6.36-6.36a.41.41,0,0,0,0-.58L104.5,103a.41.41,0,0,1,.14-.67l8.08-3.09a.41.41,0,0,0,0-.77l-29-9.84a.41.41,0,0,0-.52.52l9.84,29a.41.41,0,0,0,.77,0L96.88,110a.41.41,0,0,1,.67-.14l9.69,9.69A.41.41,0,0,0,107.83,119.59Z" style="fill:#30c0d8;stroke:#020202;stroke-miterlimit:10;stroke-width:1.4850000000000003px"/><line x1="80.86" y1="63.67" x2="110.97" y2="63.8" style="fill:none;stroke:#000;stroke-linecap:round;stroke-miterlimit:10;stroke-width:1.0890000000000002px"/><line x1="80.86" y1="57.06" x2="116.28" y2="57.06" style="fill:none;stroke:#000;stroke-linecap:round;stroke-miterlimit:10;stroke-width:1.0890000000000002px"/><line x1="81.23" y1="47.55" x2="118.48" y2="47.55" style="fill:none;stroke:#07dddd;stroke-miterlimit:10;stroke-width:3.2670000000000003px"/><rect x="27.62" y="22.58" width="3.91" height="4.36" rx="0.27" ry="0.27" style="fill:none;stroke:#000;stroke-miterlimit:10;stroke-width:1.0890000000000002px"/><rect x="34.59" y="22.58" width="3.91" height="4.36" rx="0.27" ry="0.27" style="fill:none;stroke:#000;stroke-miterlimit:10;stroke-width:1.0890000000000002px"/><rect x="41.56" y="22.58" width="3.91" height="4.36" rx="0.27" ry="0.27" style="fill:none;stroke:#000;stroke-miterlimit:10;stroke-width:1.0890000000000002px"/><rect x="30.6" y="43.89" width="38.85" height="35.97" style="fill:none;stroke:#231f20;stroke-linecap:round;stroke-miterlimit:10;stroke-width:0.49500000000000005px"/></g></g></svg>