<svg xmlns="http://www.w3.org/2000/svg" viewBox="0 0 136.7 118.84"><title>Resurs 3</title><g id="Lager_2" data-name="Lager 2"><g id="Lager_1-2" data-name="Lager 1"><polyline points="90.74 58.24 99.44 58.24 109.59 58.24 102.46 81.56 73.83 81.56 80.83 58.24 86.99 58.24 86.99 62.35 90.74 62.35 90.74 53.85 86.99 53.85 86.99 58.24" style="fill:none;stroke:#050505;stroke-linecap:round;stroke-miterlimit:10;stroke-width:1.2083272192955px"/><polyline points="108.02 81.56 116.6 81.56 109.59 58.24 108.22 62.73 102.34 62.71" style="fill:none;stroke:#050505;stroke-linecap:round;stroke-miterlimit:10;stroke-width:1.2083272192955px"/><line x1="106.69" y1="67.74" x2="100.89" y2="67.74" style="fill:none;stroke:#050505;stroke-linecap:round;stroke-miterlimit:10;stroke-width:1.2083272192955px"/><line x1="105.19" y1="72.64" x2="99.44" y2="72.64" style="fill:none;stroke:#050505;stroke-linecap:round;stroke-miterlimit:10;stroke-width:1.2083272192955px"/><line x1="103.79" y1="77.22" x2="97.99" y2="77.22" style="fill:none;stroke:#050505;stroke-linecap:round;stroke-miterlimit:10;stroke-width:1.2083272192955px"/><line x1="92.19" y1="81.56" x2="99.44" y2="58.24" style="fill:none;stroke:#050505;stroke-linecap:round;stroke-miterlimit:10;stroke-width:1.2083272192955px"/><path d="M46.4,44.81v58.51H39.87V44.81H46.4M47.6,43.6H38.66v60.92H47.6V43.6Z" style="fill:#050505"/><polyline points="46.4 103.31 39.87 103.31 46.4 94.33 39.87 94.33 46.4 86.39 39.87 86.39 46.4 78.41 39.87 78.41 46.4 69.9 39.87 69.9 46.4 61.02 39.87 61.02 46.4 52.92 39.87 52.92 46.4 44.8 47.76 44.8" style="fill:none;stroke:#050505;stroke-linecap:round;stroke-miterlimit:10;stroke-width:1.2083272192955px"/><path d="M42.09,6a.14.14,0,0,1,.14.12l4.12,26.1a.14.14,0,0,0,.14.12.14.14,0,0,0,.1,0l5.32-5.78a.14.14,0,0,1,.1,0h62.73l.08,0,8.3,5.76a.14.14,0,0,1-.08.25H13.9a.14.14,0,0,1-.1-.23l5-5.52a.14.14,0,0,1,.1,0H34.25a.14.14,0,0,1,.1,0l5.3,5.53a.14.14,0,0,0,.1,0,.14.14,0,0,0,.14-.13L42,6.13A.14.14,0,0,1,42.09,6m0-1.21h0A1.34,1.34,0,0,0,40.75,6L38.88,29.72l-3.65-3.81a1.36,1.36,0,0,0-1-.42H18.91a1.35,1.35,0,0,0-1,.44l-5,5.52a1.35,1.35,0,0,0,1,2.25H123a1.35,1.35,0,0,0,.77-2.46l-8.3-5.76a1.34,1.34,0,0,0-.77-.24H52a1.35,1.35,0,0,0-1,.43L47.2,29.85,43.42,5.93A1.34,1.34,0,0,0,42.09,4.8Z" style="fill:#050505"/><polyline points="34.31 26.7 34.31 32.5 25.85 26.7 25.85 32.5 18.85 26.7 18.85 32.5 18.85 34.68 22.71 34.68 22.71 37.82 15.22 37.82 15.22 34.72 18.85 34.68" style="fill:none;stroke:#050505;stroke-linecap:round;stroke-miterlimit:10;stroke-width:1.2083272192955px"/><polyline points="51.95 26.46 59.28 32.5 59.28 26.46 67.18 32.5 67.18 26.46 74.91 32.5 74.91 26.7 82.24 32.5 82.24 26.46 89.33 32.5 89.33 26.7 97.51 32.5 97.51 26.7 106.69 32.5 106.69 26.46 114.79 32.5 114.79 26.46" style="fill:none;stroke:#050505;stroke-linecap:round;stroke-miterlimit:10;stroke-width:1.2083272192955px"/><path d="M42,5" style="fill:none;stroke:#050505;stroke-linecap:round;stroke-miterlimit:10;stroke-width:1.2083272192955px"/><path d="M92.19,37.22h2.54v1.92h-5V37.22h2.42V24.47L43.43,1.85a2.26,2.26,0,0,0-2.5.4L17.07,24.71,42,2.63,92.19,24.47" style="fill:none;stroke:#050505;stroke-linecap:round;stroke-miterlimit:10;stroke-width:1.2083272192955px"/><polyline points="94.73 39.15 92.19 41.45 89.78 39.15" style="fill:none;stroke:#050505;stroke-linecap:round;stroke-miterlimit:10;stroke-width:1.2083272192955px"/><polyline points="80.83 58.24 92.19 41.45 109.59 58.24" style="fill:none;stroke:#050505;stroke-linecap:round;stroke-miterlimit:10;stroke-width:1.2083272192955px"/><circle cx="92.19" cy="41.45" r="1.18" style="fill:#fff"/><path d="M92.19,40.87a.57.57,0,1,1-.57.57.57.57,0,0,1,.57-.57m0-1.21A1.78,1.78,0,1,0,94,41.45a1.78,1.78,0,0,0-1.78-1.78Z" style="fill:#050505"/><circle cx="109.31" cy="58" r="1.18" style="fill:#fff"/><path d="M109.31,57.43a.57.57,0,1,1-.57.57.57.57,0,0,1,.57-.57m0-1.21A1.78,1.78,0,1,0,111.09,58a1.78,1.78,0,0,0-1.78-1.78Z" style="fill:#050505"/><circle cx="80.83" cy="58" r="1.18" style="fill:#fff"/><path d="M80.83,57.43a.57.57,0,1,1-.57.57.57.57,0,0,1,.57-.57m0-1.21A1.78,1.78,0,1,0,82.62,58a1.78,1.78,0,0,0-1.78-1.78Z" style="fill:#050505"/><circle cx="92.19" cy="25.98" r="2.11" style="fill:#fff"/><path d="M92.19,24.47A1.51,1.51,0,1,1,90.68,26a1.51,1.51,0,0,1,1.51-1.51m0-1.21A2.72,2.72,0,1,0,94.91,26a2.72,2.72,0,0,0-2.72-2.72Z" style="fill:#050505"/><circle cx="18.36" cy="25.5" r="2.11" style="fill:#fff"/><path d="M18.36,24a1.51,1.51,0,1,1-1.51,1.51A1.51,1.51,0,0,1,18.36,24m0-1.21a2.72,2.72,0,1,0,2.72,2.72,2.72,2.72,0,0,0-2.72-2.72Z" style="fill:#050505"/><circle cx="42.05" cy="2.72" r="2.11" style="fill:#fff"/><path d="M42,1.21a1.51,1.51,0,1,1-1.51,1.51A1.51,1.51,0,0,1,42,1.21M42,0a2.72,2.72,0,1,0,2.72,2.72A2.72,2.72,0,0,0,42,0Z" style="fill:#050505"/><line x1="45.08" y1="118.09" x2="61.67" y2="118.09" style="fill:none;stroke:#231f20;stroke-linecap:round;stroke-miterlimit:10;stroke-width:1.5px"/><line x1="64.24" y1="118.09" x2="67.19" y2="118.09" style="fill:none;stroke:#231f20;stroke-linecap:round;stroke-miterlimit:10;stroke-width:1.5px"/><line x1="67.39" y1="113.7" x2="83.98" y2="113.7" style="fill:none;stroke:#231f20;stroke-linecap:round;stroke-miterlimit:10;stroke-width:1.5px"/><line x1="86.55" y1="113.7" x2="89.5" y2="113.7" style="fill:none;stroke:#231f20;stroke-linecap:round;stroke-miterlimit:10;stroke-width:1.5px"/><line x1="21" y1="114.72" x2="24.62" y2="114.72" style="fill:none;stroke:#231f20;stroke-linecap:round;stroke-miterlimit:10;stroke-width:1.5px"/><line x1="28.33" y1="114.72" x2="53.83" y2="114.72" style="fill:none;stroke:#231f20;stroke-linecap:round;stroke-miterlimit:10;stroke-width:1.5px"/><line x1="12.6" y1="110.41" x2="99.67" y2="110.41" style="fill:#fff;stroke:#231f20;stroke-miterlimit:10;stroke-width:1.5px"/><line x1="85.6" y1="1.2" x2="84.52" y2="2.28" style="fill:none;stroke:#231f20;stroke-linecap:round;stroke-miterlimit:10;stroke-width:2.187px"/><line x1="82.22" y1="4.59" x2="81.14" y2="5.67" style="fill:none;stroke:#231f20;stroke-linecap:round;stroke-miterlimit:10;stroke-width:2.187px"/><line x1="85.6" y1="5.67" x2="84.52" y2="4.59" style="fill:none;stroke:#231f20;stroke-linecap:round;stroke-miterlimit:10;stroke-width:2.187px"/><line x1="82.22" y1="2.28" x2="81.14" y2="1.2" style="fill:none;stroke:#231f20;stroke-linecap:round;stroke-miterlimit:10;stroke-width:2.187px"/><line x1="14.83" y1="55.77" x2="13.75" y2="56.85" style="fill:none;stroke:#231f20;stroke-linecap:round;stroke-miterlimit:10;stroke-width:2.187px"/><line x1="11.44" y1="59.15" x2="10.36" y2="60.23" style="fill:none;stroke:#231f20;stroke-linecap:round;stroke-miterlimit:10;stroke-width:2.187px"/><line x1="14.83" y1="60.23" x2="13.75" y2="59.15" style="fill:none;stroke:#231f20;stroke-linecap:round;stroke-miterlimit:10;stroke-width:2.187px"/><line x1="11.44" y1="56.85" x2="10.36" y2="55.77" style="fill:none;stroke:#231f20;stroke-linecap:round;stroke-miterlimit:10;stroke-width:2.187px"/><circle cx="109.88" cy="13.84" r="2.07" style="fill:#17c6c1"/><circle cx="2.07" cy="88.71" r="2.07" style="fill:#17c6c1"/><circle cx="5.33" cy="43.32" r="2.07" style="fill:#07dddd"/><circle cx="64.24" cy="48.15" r="2.07" style="fill:#17c6c1"/><rect x="39.32" y="33.36" width="12.21" height="12.21" rx="1.53" ry="1.53" style="fill:#07dddd;stroke:#070707;stroke-miterlimit:10;stroke-width:1.458px"/><line x1="135.61" y1="47.91" x2="134.53" y2="48.99" style="fill:none;stroke:#231f20;stroke-linecap:round;stroke-miterlimit:10;stroke-width:2.187px"/><line x1="132.22" y1="51.29" x2="131.14" y2="52.37" style="fill:none;stroke:#231f20;stroke-linecap:round;stroke-miterlimit:10;stroke-width:2.187px"/><line x1="135.61" y1="52.37" x2="134.53" y2="51.29" style="fill:none;stroke:#231f20;stroke-linecap:round;stroke-miterlimit:10;stroke-width:2.187px"/><line x1="132.22" y1="48.99" x2="131.14" y2="47.91" style="fill:none;stroke:#231f20;stroke-linecap:round;stroke-miterlimit:10;stroke-width:2.187px"/></g></g></svg>