<svg xmlns="http://www.w3.org/2000/svg" viewBox="0 0 135.14 117.45"><title>Resurs 2</title><g id="Lager_2" data-name="Lager 2"><g id="Lager_1-2" data-name="Lager 1"><polygon points="32.64 51.85 30.68 51.87 26.39 67.58 30.3 67.55 32.64 51.85" style="fill:none;stroke:#0f0f0f;stroke-linecap:round;stroke-linejoin:round;stroke-width:0.9801000000000001px"/><polygon points="30.3 67.55 31.8 70.48 35.72 70.45 36.68 67.5 38.03 51.81 36.57 53.29 33.63 53.32 32.64 51.85 30.3 67.55" style="fill:none;stroke:#0f0f0f;stroke-linecap:round;stroke-linejoin:round;stroke-width:0.9801000000000001px"/><polygon points="36.68 67.5 43.05 67.46 41.46 51.79 37.83 51.81 36.68 67.5" style="fill:none;stroke:#0f0f0f;stroke-linecap:round;stroke-linejoin:round;stroke-width:0.9801000000000001px"/><polygon points="43.05 67.46 44.05 70.39 47.97 70.36 49.42 67.41 46.36 51.75 45.39 53.72 42.94 53.74 41.46 51.79 43.05 67.46" style="fill:none;stroke:#0f0f0f;stroke-linecap:round;stroke-linejoin:round;stroke-width:0.9801000000000001px"/><polygon points="49.33 67.41 53.34 67.38 48.81 51.73 46.36 51.75 49.33 67.41" style="fill:none;stroke:#0f0f0f;stroke-linecap:round;stroke-linejoin:round;stroke-width:0.9801000000000001px"/><line x1="128.83" y1="55.71" x2="128.15" y2="56.39" style="fill:none;stroke:#231f20;stroke-linecap:round;stroke-miterlimit:10;stroke-width:1.37867492634058px"/><line x1="126.7" y1="57.85" x2="126.02" y2="58.53" style="fill:none;stroke:#231f20;stroke-linecap:round;stroke-miterlimit:10;stroke-width:1.37867492634058px"/><line x1="128.83" y1="58.53" x2="128.15" y2="57.85" style="fill:none;stroke:#231f20;stroke-linecap:round;stroke-miterlimit:10;stroke-width:1.37867492634058px"/><line x1="126.7" y1="56.39" x2="126.02" y2="55.71" style="fill:none;stroke:#231f20;stroke-linecap:round;stroke-miterlimit:10;stroke-width:1.37867492634058px"/><line x1="119.18" y1="1.13" x2="118.06" y2="2.24" style="fill:none;stroke:#231f20;stroke-linecap:round;stroke-miterlimit:10;stroke-width:2.25719588238001px"/><line x1="115.69" y1="4.62" x2="114.57" y2="5.74" style="fill:none;stroke:#231f20;stroke-linecap:round;stroke-miterlimit:10;stroke-width:2.25719588238001px"/><line x1="119.18" y1="5.74" x2="118.06" y2="4.62" style="fill:none;stroke:#231f20;stroke-linecap:round;stroke-miterlimit:10;stroke-width:2.25719588238001px"/><line x1="115.69" y1="2.24" x2="114.57" y2="1.13" style="fill:none;stroke:#231f20;stroke-linecap:round;stroke-miterlimit:10;stroke-width:2.25719588238001px"/><circle cx="132.61" cy="30" r="2.53" style="fill:#07dddd"/><circle cx="22.38" cy="107.03" r="2.53" style="fill:#17c6c1"/><circle cx="2.53" cy="33.52" r="2.53" style="fill:#07dddd"/><circle cx="35.88" cy="5.26" r="2.53" style="fill:#07dddd"/><rect x="13.7" y="18.6" width="103.99" height="11.86" style="fill:none;stroke:#000;stroke-miterlimit:10;stroke-width:1.5796309266686441px"/><path d="M70.7,94.92" style="fill:none;stroke:#000;stroke-miterlimit:10;stroke-width:1.089px"/><polyline points="68.62 93.64 13.7 93.64 13.7 30.71 117.62 30.71 117.62 93.64 106.92 93.64" style="fill:none;stroke:#000;stroke-miterlimit:10;stroke-width:1.5796309266686441px"/><rect x="70.7" y="70.42" width="20.33" height="6.58" rx="0.73" ry="0.73" style="fill:#07dddd;stroke:#282828;stroke-miterlimit:10;stroke-width:0.99px"/><path d="M98.67,116.59l6.36-6.36a.41.41,0,0,0,0-.58L95.34,100a.41.41,0,0,1,.14-.67l8.08-3.09a.41.41,0,0,0,0-.77l-29-9.84a.41.41,0,0,0-.52.52l9.84,29a.41.41,0,0,0,.77,0L87.72,107a.41.41,0,0,1,.67-.14l9.69,9.69A.41.41,0,0,0,98.67,116.59Z" style="fill:#30c0d8;stroke:#020202;stroke-miterlimit:10;stroke-width:1.485px"/><line x1="70.7" y1="62.67" x2="100.81" y2="62.8" style="fill:none;stroke:#000;stroke-linecap:round;stroke-miterlimit:10;stroke-width:1.089px"/><line x1="70.7" y1="56.06" x2="106.12" y2="56.06" style="fill:none;stroke:#000;stroke-linecap:round;stroke-miterlimit:10;stroke-width:1.089px"/><line x1="71.07" y1="46.55" x2="108.32" y2="46.55" style="fill:none;stroke:#07dddd;stroke-miterlimit:10;stroke-width:3.267px"/><rect x="17.46" y="21.58" width="3.91" height="4.36" rx="0.27" ry="0.27" style="fill:none;stroke:#000;stroke-miterlimit:10;stroke-width:1.089px"/><rect x="24.43" y="21.58" width="3.91" height="4.36" rx="0.27" ry="0.27" style="fill:none;stroke:#000;stroke-miterlimit:10;stroke-width:1.089px"/><rect x="31.4" y="21.58" width="3.91" height="4.36" rx="0.27" ry="0.27" style="fill:none;stroke:#000;stroke-miterlimit:10;stroke-width:1.089px"/><rect x="20.44" y="42.89" width="38.85" height="35.97" style="fill:none;stroke:#231f20;stroke-linecap:round;stroke-miterlimit:10;stroke-width:0.495px"/><line x1="7.85" y1="58.75" x2="6.69" y2="59.91" style="fill:none;stroke:#231f20;stroke-linecap:round;stroke-miterlimit:10;stroke-width:1.35px"/><line x1="4.22" y1="62.38" x2="3.05" y2="63.55" style="fill:none;stroke:#231f20;stroke-linecap:round;stroke-miterlimit:10;stroke-width:1.35px"/><line x1="7.85" y1="63.55" x2="6.69" y2="62.38" style="fill:none;stroke:#231f20;stroke-linecap:round;stroke-miterlimit:10;stroke-width:1.35px"/><line x1="4.22" y1="59.91" x2="3.05" y2="58.75" style="fill:none;stroke:#231f20;stroke-linecap:round;stroke-miterlimit:10;stroke-width:1.35px"/></g></g></svg>