<svg id="Lager_1" data-name="Lager 1" xmlns="http://www.w3.org/2000/svg" viewBox="0 0 660 1480"><title>Rityta 1</title><path d="M384.77,1045.27a17.57,17.57,0,0,0-1.82-2.08c-2.63-2.21-5-4.37-2.77-8.3.41-.73-.38-2.12-1.38-3.12l-2.13,4.86a39.27,39.27,0,0,1-1.9-3.69c-.79-2.16-1.37-4.05-4.55-2.71-1.08.46-2.9-.85-4.51-1.39.93-2.22,3.76-3.18,1.86-5.62-3.31,3.18-4.42,3-6.71-1.06-.77-1.37-1.47-2.78-2.19-4.17l-1-.19c-.26,1-1,2.07-.7,2.88.53,1.69,1.71,3.16,2.33,4.83.71,1.89,1.1,3.9,1.68,6-3.18.73-5.62.77-7.61-1.22-.67-.67-1.76-1.76-2.49-2.36-5.88-4.83-8-5-14-1.72a51.24,51.24,0,0,0-6.85-3.14c-.86-.26-2.36.59-3.15,1.36-2.81,2.74-4.35,2.74-6.58-.3-2.57-3.51-5.08-4.25-8.34-2.26,3.06,4.85-1.78,6.62-4.07,9s-5.47,2.52-8.46.56c-.57-.37-1.72-.8-2-.55-2.8,2.7-6.32,1.63-9.56,1.76,0,4.64,1.2,5.68,5.26,5.09,6-.87,12.06-1.63,18.1-2.38a5.1,5.1,0,0,1,2.16.33c2.39.81,4.55,0,6.92-.35,4.74-.71,9.67-4.57,14.62.28.39-1.25.42-2.18.9-2.69a15.93,15.93,0,0,1,2.76-1.93c.75,1.13,1.89,2.16,2.17,3.4.45,2.06.06,4.32.55,6.37.79,3.32,1.51,3.48,5.16,1.72a28.7,28.7,0,0,1-1.41-4.38,3.73,3.73,0,0,1,.69-2.78c.4-.45,1.73-.4,2.5-.13,1.75.62,3.87,1.1,5,2.38,1.71,2,2.46,4.52-.73,6.19,2.43,3.56,2.43,3.56-1.26,6.55l2.51,5.26,6.76,1.18-2.12-7.4.75-.46c4,3.85,10.78,4.3,11.85,11.58l1.19-.62c-.2-1.29-.48-2.56-.59-3.86-.1-1.14,0-2.3,0-3.44,1.44.14,3.44-.27,4.19.52,1.66,1.74,3.2,1.71,5.3,1.41,1.28-.18,2.71.7,4.32,1.18a2.33,2.33,0,0,0,.3-.62c.45-1.5.44-3.86,1.39-4.34a32.47,32.47,0,0,1,8.29-2.53,45.17,45.17,0,0,1,6.41-.41l6.87,4.18-3.35.82,7.61,5.67c-1.77,2.78,2.1,3.9,3.28,5.2-1.19.9-2,1.9-2.92,2.13-2.8.68-5.17,3.37-8.46,1.92a.93.93,0,0,0-.83.34c-.75,3.25-3.75,4.24-5.95,6-1.61,1.33-3.71,2.5-4.56,4.25-1.41,2.89-4.44,5.45-2.8,9.41.29.69-.53,1.91-1,2.82-1.3,2.7-2.57,5.43-4,8q-.22.4-.48.78a.87.87,0,0,1-1.58-.59c.18-2.77-1.79-5.1-3-7.69-1.07-2.23-.75-5.14-1-7.76-.11-1.11.31-2.47-.18-3.31-1.49-2.53-.52-4.59.58-6.83a19.72,19.72,0,0,0,1-4c-5.42-.53-1,4.9-4.5,5.33l-1.11-10.59h-1.15c-.14.42-.52,1-.38,1.25,1.28,2.58.19,4.32-1,6.77s-2.76,6.18.06,10.11l1.42-5.35,1.32.16c.09,3.41.27,6.82.13,10.23,0,.45-1.73.84-2.15,1-1.2,2.09-2.31,3.89-3.27,5.77a6.33,6.33,0,0,0-.37,2.25c-.06.65,0,1.31,0,2a12.17,12.17,0,0,1-2.15-.51,18.67,18.67,0,0,1-2.42-1.63l-.53,8.31h-3.88l-1.05,3.62-.54-.62-4.11,2.55c-.35.22-.8.72-1,.64-3.11-1.28-7.06.66-9.65-2.51-1.73-2.11-3.08-.6-4.9.5l6.36,5.25-2.44,4.2c-2.47-1.05-4.43-4.79-7.35-1.13l4.28,2.72c-5.28,3.79-10.35,2.45-15.28,1.66s-9.91-2.13-14.9-3a63.09,63.09,0,0,0-10.2-.91c-3.1,0-3.69,3.25-1.19,7,2.72-1.55,5.59-2.77,7.4,1.43,1.13-1.8,1.88-4.23,2.84-4.32a19.65,19.65,0,0,1,7.41,1.09,38.39,38.39,0,0,1,17.65,12c-2.2,2.74-3.09,7-7.58,7.47-3.55.36-7.17.07-11,.07-.32,2.24,1,3.54,3.51,3.54a4.46,4.46,0,0,1,4.65,2.89,4,4,0,0,0,3.2,1.62c2.72-.09,4.9.82,6,3.14.75,1.56-2.59,4.84-5.13,5.44l-5.21,1.2c6.54,3.6,9.33,7.95,4.14,14.27l-3.58-1.3c-.85,3.42,2.09,4.84,3.61,7.21-3.07,1.29-2.48,3.14-1.49,5.72,1.9,4.93,3,10.11.81,15.73-1.82-1-3.67-1.85-5.41-2.9-1.48-.9-2.35-.7-3.34.8-3.22,4.85-2.56,8,2.76,12.27,1.43,1.14,3.48,1.55,3.09,4.75a7.29,7.29,0,0,1-2,4.12c-1.68,1.78-1.55,3.9-1,6.42l3.42-.46c1,3.52.38,4.1-6,5,1.21,1.67,2.2,3.18,3.34,4.58,1.94,2.38,2.73,4.9,1.61,7.92-.51,1.38-.73,2.86-1.13,4.28-.81,2.85-.88,6.45-5.55,5.16a14.21,14.21,0,0,1-.05,3.5c-.4,1.37-.83,3.07-1.85,3.85-1.83,1.4-2.28,2.79-1.6,4.88.28.85.53,2.14.11,2.73-1.64,2.27-1.78,4.31-.78,7a9.23,9.23,0,0,0,5.06,5.24c.17.09.27.32.78,1-9,8.49-6.72,20.5-9.58,31.07L310,1312l1.5,3.68-2.9,1.32-.61-.76c-.68,2.52-1.28,5.06-2.07,7.54-.32,1-1,2.55-1.66,2.68-5.35.95-5.69,5.28-6.4,9.23-.37,2,.85,4.54-2.3,5.35-.19,0-.29.53-.38.83-2.54,8.07-5,16.16-7.64,24.22-1.35,4.21-2.86,8.37-4.29,12.56-.1.3-.15.81-.33.86-4.42,1.36-4.65,5.73-6.38,9.31l-3.21-3.41-5.85,2.69-.6-.84c.68-.73,1.66-1.35,2-2.22.55-1.58,1.41-3.68.79-4.86s-2.86-1.45-4.46-1.81a12.41,12.41,0,0,0-5-.39,49.4,49.4,0,0,0-7,2.57l-1.88-1.46-5.41,4.58-2.19-4.83c-4.4.34-9,3.93-13.2-1.06-2.55,3.76-6.65,2.66-10.25,3-3.85.33-7.74.07-11.77.07-1.85,5.39,2.69,8.52,5.21,12.43-2.64,5.56-5.9,5-11.26,1.17-3.86-2.76-5.83-2.58-8.24,1.74a10.45,10.45,0,0,1-2.63,2.6c-1.88,1.56-4.65,2.38-4.38,5.63a1,1,0,0,1-.69,1c-3,.83-3.31,3.84-4.9,5.8-4.22,5.19-2,11.13-2.33,16.77,0,.2.06.54.18.58,4.88,1.77,3.49,7.64,6.93,10.51,2.56,2.14,2,7.13-.62,10.44s-5.22,6.84-7.86,10.24c-.3.39-.81,1-1.12.93-2.93-.52-6.67-.22-8.59-1.94-6-5.42-12.68-3.48-19.32-2.82a10.14,10.14,0,0,0-2.44.39c-.94.34-2.29.7-2.61,1.43-.94,2.17-2.5,2.65-4.57,2.45-3-.28-5.78-.08-8.26,2.11-3.1,2.75-6.43.6-9.59-.12-2.75-.63-5.45-1.54-8.14-2.41-2.33-.75-4.62-1.63-6.93-2.45a4.06,4.06,0,0,0-1.46-.46c-2.14.16.07-4.44.08-6.08a13.88,13.88,0,0,0-1.46-5.75c-2.32-4.89-.15-9.44,5.24-10.53a15.16,15.16,0,0,1,1.55-.18c.66-2.22,1.57-4.17,1.7-6.18a5.08,5.08,0,0,0-1.68-3.67,66.74,66.74,0,0,0-6.74-4.47c1.89-3.91.7-7.46-.26-11-.15-.56-1-1.38-1.44-1.34-2.61.22-3.19-1.54-3.66-3.45-.88-3.56-1.36-7.27-2.68-10.65-1.2-3.09-3.24-5.88-5-8.72a19.84,19.84,0,0,0-2.74-3.38c-1.76-1.78-2.26-3.8-2.47-6.29-.33-3.9-1-8.64-3.07-11.91a.67.67,0,0,1,.84-1,15.87,15.87,0,0,1,1.93,1c3.82,2.36,7.49,5,11.37,7.25.84.49,3,.4,3.28-.14a20.81,20.81,0,0,0,1.68-5.11c0-.16-.11-.4-.22-.58-2.16-3.38-4.28-6.79-6.55-10.09a4.24,4.24,0,0,0-2.37-1.4c-2.77-.68-2.21-2.66-1.44-4.2a5.16,5.16,0,0,1,8.42-1.48c2.41,2.28,3.66,1.76,6.11-.19,5.75-4.57,4.14-10.27,3.39-16a17.08,17.08,0,0,0-1.05-3.64,3.87,3.87,0,0,0-5.94-2,3.9,3.9,0,0,1-5.73-1.83c-1.38-3.2-2.77-6.39-4.06-9.63a13.14,13.14,0,0,1-.73-3.35c-.2-1.74.42-4.09-.5-5.11-2.2-2.46-5.06-4.34-7.73-6.35a10.66,10.66,0,0,0-2.37-.85c-2.83-1.17-3.78-3.24-2.91-6.21a8.31,8.31,0,0,0-1.83-7.76,16,16,0,0,1-3.61-7.14c-.55-3-1.05-5.68-3.07-8.1a15.17,15.17,0,0,1-2.81-5.28c-.39-1.3-.37-3.35.4-4.26,2.82-3.31,2.11-8.22-1-9.34v-12l-1.11-.3A24.26,24.26,0,0,0,62.4,1242c-.65,1.77-.82,3.71-1.42,5.5a2.37,2.37,0,0,1-1.7,1.33,2.33,2.33,0,0,1-1.88-1.1c-1.42-3.76-2.8-7.11-1-11.69,1.65-4.27.76-9.53.87-14.36,0-.41-.87-.9-1.41-1.26a3.16,3.16,0,0,1,.07-5.61c.79-.49,1.57-1,2.62-1.67-2.73-1.66-6.61,2.12-8-2.06L47,1212.58c-.3-.75-1.05-1.77-.8-2.19.68-1.14,1.64-2.61,2.76-2.9,2.37-.62,2.42-2,2-3.76-4-1.34-5.26-5.41-3.54-9.15,1.23-2.66,1.58-5.71,2.4-8.57a5.43,5.43,0,0,1,1.18-2.4,8.75,8.75,0,0,0,2.74-7.72c-.24-2.37-.57-4.82,1.94-6.55a4,4,0,0,0,1.09-2.85c.05-2.12-.2-4.19,2.16-5.43.36-.19.43-1.52.19-2.16a17.07,17.07,0,0,0-2-3.85c-1.81-2.55-2.54-5,.81-7.49l-7.39-1.49c-1.86,4.83-14.22,13.61-18.21,12.82.76-1.68.88-3.42,3.5-3.72,2.91-.32,4.81-4,3.94-6.86-2.61.34-2.47,5-6.19,3.9.91-1.81,2.71-3.81-.13-4.39l-1.44-6.48-7.82,1.31,1.31-8.7,2.69,2.93c.3-2.27.82-3.78.61-5.18a40.35,40.35,0,0,0-1.79-6.71c-.81-2.44-.9-4.64.62-6.92a4,4,0,0,0,.13-3.21c-1.45-3.72-3.22-7.31-4.67-11a11.1,11.1,0,0,1-.87-4.78c.41-4.72,1.46-9.39-1.11-13.93-.41-.72.59-2.24,1.24-3.32-2.66-9.82,1-16,11.47-18.33,2,5.48,5.81,10.39,3.85,17-.75,2.53-1.4,6.79,1.88,7.44,2.72.54,6.2-1.38,8.94-2.93,1.19-.68,1.64-3.12,1.92-4.84a25.15,25.15,0,0,1,5.17-12.06,4.3,4.3,0,0,0,.49-3.52,10.65,10.65,0,0,1,2.77-10.88c.77-.66,1-2.16,1.12-3.31.8-10.76-2.19-21.13-3.44-31.67-.68-5.73.79-8.4,6.34-9.48.51-.1,1.2-.18,1.45-.53,1.77-2.46,4.18-4.78,4.93-7.54.69-2.52-.44-5.53-.81-8.33a3.82,3.82,0,0,0-.48-1.17c-1-2-1.6-3.76.56-5.6,2-1.66,3.29-3.57,6.42-1.69s6.9.08,9.26-2.75c1-1.25,3-1.67,4.45-2.67a45.77,45.77,0,0,0,4.37-3.64c.53-.48.8-1.24,1.29-1.77,7.81-8.34,10.82-18.12,8.46-29.34a8.53,8.53,0,0,1,2.2-7.66c4.35-4.59,3.76-10.48,3.55-16-.1-2.52-2.23-4.93-3.23-7.46a7.67,7.67,0,0,1-.77-4.16,6.8,6.8,0,0,0-1.36-6.2A26.45,26.45,0,0,1,97.3,886c.07-6.89-2.71-12.61-4.59-19.23,5.4-1,10.37-3.44,16-2.41a10.8,10.8,0,0,0,2.07.21c4.25-.05,4.77-.46,5.22-4.72.38-3.66,1.38-6.7,4.41-9.33,1.89-1.64,2.79-4.64,3.63-7.19a48.06,48.06,0,0,0,1.9-9,7.6,7.6,0,0,0-.77-4.41c-3.46-6.17-7.22-12.18-10.7-18.35-1.11-2-2.51-2.77-4.62-2.33-2.9.61-4.66-.68-6.32-3-2.87-4-6.18-7.58-9.05-11.53a6.3,6.3,0,0,1-1-4.2c3.08-17,6.35-34,9.47-51.07a10.79,10.79,0,0,0-.32-4.64c-2.89-10.49-6-20.91-8.75-31.43a13.31,13.31,0,0,1,.2-7.61c2.65-7,4.14-13.87,2.29-21.29-.92-3.7-.24-7.06,2.81-9.75s3.36-5.39,1.79-9.24c-2.91-7.12-5.18-14.51-7.49-21.87a7,7,0,0,1,.43-4.7q4.33-8.08,9.2-15.87c1.57-2.51,2.29-4.9,1.1-7.7-2.15-5-1.2-9.13,3.25-12.67,1.53-1.22,2.14-3.65,3.07-5.58.77-1.58,1.16-3.39,2.13-4.82,5.11-7.52,10.1-15.14,15.65-22.32a27.6,27.6,0,0,1,13.38-9.68,6.74,6.74,0,0,0,.91-.27c12.09-5.9,23.48-.46,35,2.23a51,51,0,0,1,8.31,3.08c1.82.78,2.84.48,3.77-1.36,2.72-5.37,5.64-10.63,8.4-16a7.34,7.34,0,0,0,.9-3.29c-.09-7.61-.45-15.21-.42-22.82,0-3.94-2.26-6-5.41-6.74-5.74-1.39-9.59-5.57-14.13-8.74a2.7,2.7,0,0,1-.38-2.56c9.58-17.49,19.33-34.88,28.81-52.42a24.58,24.58,0,0,0,2.27-8.75c.44-3.85,1.47-7.14,4.88-9.36,2-1.33,2.51-3.3,2.6-5.71.4-11.08.93-22.16,1.64-33.23a20.31,20.31,0,0,1,2-7.92c3.54-6.78,3.2-13.74,2.1-20.94-1-6.25-1.53-12.57-2.23-18.86a24.46,24.46,0,0,1,.14-3c5.23,0,10.37-.12,15.5,0a11,11,0,0,0,8.38-3.13,90.23,90.23,0,0,1,12-9.13c2.38-1.55,3.1-3.33,2.68-5.84-.78-4.69-1.44-9.39-2.33-14.06-.43-2.25-.27-4,1.57-5.68C267,288.22,272,278.26,276.33,268a59,59,0,0,1,18.05-23.63,11.44,11.44,0,0,0,4.18-7.33c1.79-8.64,1-16.63-4-24.14a83.92,83.92,0,0,1-6.22-11.75,8.13,8.13,0,0,1-.31-4.39c.75-5,3.65-7.32,8.78-7.33,1,0,2.34-1.52,2.95-2.65,5.65-10.48,7-22.22,9.79-33.57a10.76,10.76,0,0,1,3-4.88c2.35-2.26,5.08-4.13,7.64-6.17,2.4-1.91,5.05-3.58,7.12-5.8s3.34-4.78,5.12-7.42c9.11,2.79,16.39,9.31,25.11,14.05,3.08-7.47,6.6-14.51,8.78-21.93,1-3.33-.82-7.43-1.21-11.19-.82-7.86-1.49-15.73-2.35-23.58-.26-2.34,1-3.08,2.69-4.29,5.4-3.84,9.88-3.2,14,1.78,1.43,1.72,3.21,2,5.5,1.28a21.32,21.32,0,0,1,3.12-.77c2.85-.44,7.6-1.17,11.28.11q15.38,5.35,30.6,11.16c2.32.88,3.59.43,5-1.52,3.13-4.36,6.5-8.55,10.06-13.2l-10.76-5.81c13.76-15.86,17.48-32.13,2-49.7,2.22-.41,3.89-.87,5.59-1,5.5-.48,10.77-3.55,16.47-1.65A19.81,19.81,0,0,1,462.75,25c1.48,1,2.79,2.22,4.33,3.47l-2.32,4c1.28,2.37,2.58,4.05,5.84,3.72,1.48-.15,3.46,1.49,4.72,2.8a91.43,91.43,0,0,1,6.37,7.83c.82,1.07,1.13,2.33,3.13,1.53,1.71-.69,2.84.68,2.63,2.47-.39,3.39,1.2,4.91,4.33,5.79a28.92,28.92,0,0,1,6.47,3.19A3.25,3.25,0,0,1,499.86,62c0,3.12,1.54,3,4.06,2.91,1.77-.07,3.56,1.58,5.42,2.21,2.26.76,2.77,2.24,2.94,4.49.25,3.26,4.27,5.14,8.78,4.16,2.09-.45,3.76-.53,5,1.19,5.41,1.2,11.2,1.31,15.49,6.17,2.21-2.08,3.76-2.26,4.12,1.31.06.64,1.18,1.34,2,1.7,1.81.86,3.85,1.3,5.51,2.35,1.16.73,1.9,2.16,2.73,3.35.57.8.76,2.15,1.49,2.51,2.58,1.27,2.3,3.27,2.23,5.6-.06,2.11.69,4.25,1.18,6.85l5.16-2.74,4,8.82c.65,1.43.71,2.92,3.17,3.18,1.74.18,3.34,2.36,4.88,3.78a28.14,28.14,0,0,0,3.81,3.49c1.14,2.51,1.66,5.11-1.91,6.7-1.67.74-2.75,6-2.28,8.34a35.21,35.21,0,0,1,1.08,8,17,17,0,0,0,2.72,10.1c1.14,1.83,1,4.58,1,6.93,0,.68-1.3,1.39-1.5,1.6-.13,2.12.29,4-.43,5.21-1.85,3-1,4.87,2,6.44,2-1.94,4-1.14,6.17,0,.72.38,1.74.17,2.61.3s1.84.08,2.31.56a3.38,3.38,0,0,1,.55,2.34c-.07,1.14-.72,2.31-.58,3.39a10.32,10.32,0,0,0,1.82,4.36c.14,2.82-.49,5.28-3.81,6.49-2.74,1-2.7,3.67-2.27,6.16.1.6.77,1.34.59,1.73-1.92,4.07,1.3,6.15,3.19,8.8.89,1.25,2.1,2.79,2,4.12-.24,3.39,1.62,5.24,3.92,7,1.83,1.44,3.62,2.94,5.38,4.46.44.38,1,1,1,1.45-.13,3.58,2.34,5.7,4.29,8.18a15.1,15.1,0,0,1,2.47,4.35c.27.79-.14,2.54-.7,2.78-3.18,1.36-2.19,4-2.06,6.21.3,4.83.82,9.65,1.12,14.48a6.7,6.7,0,0,1-.89,2.5c-.54,1.35-1.12,2.68-1.64,4-.11.28,0,.89,0,.91-4.07,1-2,5.95-5,7.65-1.76,1-1.58,2.37-.34,3.62,2.2,2.22,2.4,4.77,1.48,7.55a10.31,10.31,0,0,0,.65,8,25.84,25.84,0,0,1,2.1,5.63c.8,3.85,3.46,5.22,6.89,5.86,3.59.67,5.19,2.2,6.08,5.68a26.75,26.75,0,0,0,1.12,3.51c3.54,8.63,7.1,17.24,10.84,26.34-4.09,1.05-7.79,2.16-11.57,2.86-.91.17-2.21-.86-3.08-1.62-2.62-2.28-3.62-2.08-5.33,1-1,1.82-2.61,2.75-4.75,1.59-1-.55-2-1.15-3.38-2L601.6,352l-9.83-3.62L589,359.3c-3.82-1.78-7.86-3.45-11.67-5.55-1.05-.58-1.39-2.44-2.1-3.68a46.43,46.43,0,0,0-3.38-5.48,2.71,2.71,0,0,0-2.6-.53,3.88,3.88,0,0,0-1.25,2.85,14.36,14.36,0,0,0,4.89,10.6c1,.84,1.32,2.39,1.95,3.61l-1.06.88c-1.05-.69-2.37-1.18-3.11-2.12-2-2.49-3.83-4.95-6.92-3.75-1.4-2.63-2.45-4.93-3.82-7-.52-.8-2.07-1.83-2.57-1.59-1.29.63-3.12,1.87-3.19,3a88.5,88.5,0,0,0-.06,16c.47,4,2.41,7.77,3.64,11.67.19.61.34,1.65,0,1.92a5,5,0,0,1-2.23.61c-.17,0-.37-.18-.56-.26-6.09-2.51-6.47-2.29-6.47,4l-11.94,1.15c1.48,1.38,2.43,2.14,3.23,3s2.67,2.49,2.43,3.23a10.85,10.85,0,0,1-3.47,5.4,8.34,8.34,0,0,1-6,1.13c-4.05-.93-7.24,1-10.59,2.38-1,.39-1.69,2.1-2,3.32-.11.49,1.23,1.46,2.06,2,1.81,1.08,3.74,2,5.59,3,2.88,1.57,3.22,4.29.46,6.19-2.12,1.46-2.31,3-1.42,5.07a12.15,12.15,0,0,1-.69,11.74,49.86,49.86,0,0,0-2.75,6.4c-1.81,4.35-3,9.19-9.3,10.09,2,3.28,2.84,5.88.37,9-2.1,2.61-3.52,5.32-7.77,2.94l-.35,1c1.09,2,1.73,4.77,3.41,5.72s4.51.22,7.28.22c-.17,3.76,2.28,7.34-1.13,10.61a2,2,0,0,0-.09,1.94c1.65,2.54,2.6,5.51,6.83,5.58,1.86,0,3.9,2.78,5.43,4.65.93,1.14,1.11,2.93,1.53,4.46.59,2.17,1.12,4.33,4.46,2.61.07,1.34.45,2.42.1,3.15-2,4.23-2.85,9.16-7.09,12.09-7.42,5.12-12.18,12.53-16.81,20-1,1.58-1.1,3.79-1.36,5.74a97.65,97.65,0,0,1-8.72,29.23c-1.07,2.26-2.79,2.91-5,3.19-3.56.46-7,4.14-7.3,7.77-.22,2.37.46,5.39-3.52,5.24a.38.38,0,0,0-.31.17c-3.21,5.79-8.37,2.85-12.87,2.85h-1.43a11.32,11.32,0,0,1-.62,3.08,7,7,0,0,1-2.1,2.13c-1.18.88-2.71,1.39-3.65,2.45-1.45,1.65-2.41,3.73-3.78,5.47-1.83,2.32-2.72,4.69-1.32,7.53,1.32,2.69-1.42,2.72-2.34,4L445.44,598l-1.57.42c-.28,1.64-1,3.34-.72,4.89s1.44,3.21,2.65,5.72l-9,1c-.4,3.2-1,6.93-1.27,10.68-.14,2.12-.73,3.49-3,3.61-2.6.14-3.14,1.72-2.82,3.89a10.42,10.42,0,0,1-3.88,10.36c-2.89-3.67-5.61-1.88-8.46.36-2.64,2.08-5.31,4.24-9.12,3.44a2.14,2.14,0,0,0-1.73,1c-2,4.21-5.77,7.75-4.7,13.15-2.46.65-5.64.27-5.18,4.59,1.33.17,2.84.45,4.37.55,2.11.14,3.32.88,2.35,3.17-1.75,4.11-3.58,8.19-5.36,12.25-3.26-.85-5-6.24-8.44-1.22l2.06,2.7c-3.47,2.76-5.45,8.07-12.12,5.3l.73,4.81,6.34-.72L379,699.44l3.87,3.18c-5.39,2.78-9.2,6.64-9.72,12.68-2.55.28-4.54-3.89-6.62-.5-1.14,1.87-1.47,4.24-2.21,6.52-4.82,1.15-6.63-2.69-8.22-6.58-1-2.49-2.82-2.12-4.33-1.19-.83.51-1.19,2.11-1.33,3.27a2.23,2.23,0,0,0,1.43,1.67c4.33,0,4.63,3.12,5,6.24.08.73.27,1.44.46,2.42-2.67.74-5.46,1.41-5.16,5.14.19,2.38,4.07,7.34,6.47,7.89,1.62.37,3.25.67,4.86,1,0,3.15-.66,5.17-4,5.51a3.7,3.7,0,0,0-2.54,2.33c-.87,4.11-1.28,8.31-2.05,12.44a49.74,49.74,0,0,1-1.95,6.88c-1.3,3.77-2.9,7.45-4,11.28-.33,1.13.52,2.64.95,3.93.63,1.91,1.9,3.77,1.93,5.67.06,3.34.81,5.86,4.28,6.83,1.83.52,2.2,1.68,1.92,3.36-.31,1.87-.52,3.75-.85,6.17-4.22-1.41-4.88-7.69-10.55-6.71-2.16,4.91-4.73,10.22-6.73,15.73-.48,1.33.75,3.41,1.5,5a5.47,5.47,0,0,1-.28,5.36c-3.14,5.94-2.6,8.74,2.21,13.3,3.53,3.34,3.62,8.21-.14,11.48-2.07,1.8-2.34,3.58-2,6.11.59,3.94.63,8,1,11.93a3.87,3.87,0,0,0,1.11,2.45c2.11,1.69,2.3,3.33,1,5.73-.59,1.1-.22,2.93.19,4.28a12.46,12.46,0,0,0,2.19,3.83c1.74,2.24,2.07,4.5.63,7-.88,1.52-.55,2.71.91,3.79s2.69,2.36,4.3,3.8l-6.06,6.49c5.71,5.44,12.77,3.52,19.05,4,1,3.64,1.79,7.09,2.93,10.43.31.91,1.73,2.14,2.48,2,1.34-.19,3.26-1,3.69-2a9,9,0,0,1,4.56-4.93c3.29-1.69,7.26.21,7.41,4a14.68,14.68,0,0,0,4.22,9.91c4,4.21,7.61,8.82,13.49,10.58,3.08.92,4.82-.77,4.14-4s-1.42-6.16-1.8-9.28c-.11-.91.95-2,1.9-2.84,2.49,6.2,1.54,13.9,9.42,16.59.44,3.55-2.47,2.6-4.56,3.09,1.79,2,3.56,3.55,4.71,5.45,2.42,4,1.49,5.49-3,5.6-1.19,4-.58,5.69,2.25,6.5,7.49,2.15,7.49,2.15,9.72-6.42,2.54,1.52,3.75,3.31,2.92,6.48-.34,1.29.65,3,1.17,4.42.45,1.25,1.23,2.4,1.64,3.66.8,2.51,1.34,5.1,2.16,7.59,1.4,4.26,4.83,6.73,8.26,9.26,1.26.93,2.92,2.54,2.87,3.78-.12,3.14-1.06,3.67-4.83,4.45v4.79l4.64,1.17c1.43,5.1.22,6.45-5.08,5.89a13.31,13.31,0,0,0-8.82,1.74,5.67,5.67,0,0,0-3.09,5c-.23,3.54-1.92,6.31-5,8.64-4.11,3.13-7.51,7.19-11.47,10.53-1.15,1-3.2.85-5.24,1.32l-2,2.91c.27,1.37,1.06,4.08.8,4.19-2.11.85-4.29.8-5.85-1.63l2.21-2.41-4.18-2.16-3.74,9.39,4.85,3.25-.24.64c-1.4-.14-2.83-.12-4.2-.38s-2.74-.74-4.16-1.15l-1,2.75-5-2.83Zm-258.54,68.17c1-2,3-1.67,4.69-.93s2.33,2,1.5,4.08a100,100,0,0,0-4.1,12c-.34,1.28.22,3.59,1.18,4.27,3.44,2.43,7.5.5,8.2-3.62s1.82-8.43,5.75-10.42a49.07,49.07,0,0,1,14.11-5.1c5.51-.88,9.43-3.16,12.35-7.93-3.32-3.83-5.39,1.61-8.14,1l.72-.64-5-6.22c.49-2.43,2.26-3,4.65-2.29a55.47,55.47,0,0,1,6.32,1.94c3.17,1.33,5.33.59,6.52-2.73,1-2.88,2-5.8,2.8-8.74a4.51,4.51,0,0,0-.08-3c-1.22-2.28-.7-3.69,1.57-4.76a13.46,13.46,0,0,0,2.87-2c3.29-2.78,3.05-5.52-1.24-8.27-1.32,1.82-2.64,3.71-4,5.55-.39.51-1.19,1.27-1.49,1.15-.62-.25-1.48-1-1.45-1.57a15.84,15.84,0,0,1,.89-5.5c1.56-3.57,3.54-7,5.33-10.44.93-1.8-.16-9.5-1.6-10.78a2.06,2.06,0,0,0-1.69-.43c-2.83,1-4.57-.6-6.31-2.41-1.06-1.1-2.27-2-3.37-3l-2.91,2.42c-1.82-1.15-3.35-2.91-4.67-2.76-1.84.21-4.37,1.1-4.32,3.84.07,3.4-2.27,4.6-4.74,6-1.55-2.77-3-5.35-4.44-7.92-1.66-2.92-3.43-3.39-6.4-1.6a32.55,32.55,0,0,0-2.78,2.09l1.37,3.67c-1.73-.73-2.92-1-3.74-1.64a17.76,17.76,0,0,1-2.4-3c-.54,1.79-.27,3.26-.38,4.69-.09,1.14-.31,2.6-1.06,3.28-2,1.81-2,3.57-1,5.9,3.65,8.82,6.08,17.93,6.28,27.57.06,2.63-.6,4.48-3,5.6-5.15-2.9-5.25-3.11-5.63-9.43-.08-1.23-.25-3.43-.66-3.5-3.2-.52-2.48-3.52-3.55-5.42l-5.65.6-.64-4.12c-2.47,1-5.91,1.22-6.65,2.76-2.86,6-8.43,10.81-8,18.24,0,.92-.74,1.93-1.27,2.83-2.27,3.8-4.8,7.47-6.84,11.39S123.36,1119,126.22,1113.44Zm104.6,17.14-7.79-3.72c1.38-3.61,2.51-6.49,3.6-9.39.76-2,1.59-4.05,2.17-6.14a6.92,6.92,0,0,0,.16-3.56c-.61-2.13-1.6-4.15-2.7-6.87-1.28,1.26-3,2.18-3.41,3.51-2,6.06-7.91,8.56-11.47,13.15-.28.36-.94.42-1.44.59-3.61,1.2-4.7,2.84-4.95,6.62-.26,4-.42,8-3.36,11.24a28.28,28.28,0,0,0-3.54,5.13c-2.32,4.11-4.48,8.31-6.73,12.46-.6,1.11-1.63,2.09-1.91,3.26-1.36,5.8-3.64,11.33-4.2,17.39-.5,5.47-1.5,10.87-4.71,15.85-1.51,2.35-1.48,6.64-.44,9.41a17.07,17.07,0,0,1,1.23,8.17c-.07.69.77,2.07,1.32,2.15,3.58.48,5.26-1.09,5.52-4.83a17.93,17.93,0,0,1,.12-2.53c1.23-5.68,2.42-11.37,8.8-13.86a4.9,4.9,0,0,0,2-2.49c.62-1.33.58-3.07,1.43-4.16,5.68-7.27,5-16.82,9.07-24.67.26-.5,0-1.25,0-1.88.12-4.54.7-8.79,5.3-11.32a5.26,5.26,0,0,0,2.27-3.11c.68-3,1.18-3.29,3.79-1.6a4,4,0,0,0,5.65-1.35C228,1135.65,229.31,1133.29,230.83,1130.58ZM362.66,358.32c1.54,1.83,2.71,3.25,3.92,4.65a25.32,25.32,0,0,1,6.1,14.3c.42,4.09,1.17,4.55,4.26,3.15,4.11,1.62,7.75,3.17,11.49,4.44.75.26,1.87-.54,2.82-.86a9,9,0,0,0-1.13-2.59,15.15,15.15,0,0,0-3-2.33A4.71,4.71,0,0,1,384.8,374c.47-3-1.51-5.47-4.48-4.82-3.29.72-4.83-1.07-6.57-3a19.28,19.28,0,0,1-3.18-3.87c-1.77-3.49-6.79-6.12-3.23-11.21.32-.46,0-1.46-.18-2.13-.51-1.57-1.16-3.09-1.81-4.78,1.82-.67,3.53-1.18,5.13-1.92,1.86-.86,2.35-2.28,1.28-4.15-1.84-3.22-3.53-1.21-5.83.86-1.57-2.79-2.89-5.3-4.38-7.71-.85-1.37-1.71-3.17-3-3.76-6.27-2.81-11-7.51-14.87-12.81a30.1,30.1,0,0,0-13.44-10.42c-.81-.33-2,.25-3,.4.38,1,.45,2.45,1.18,3,2.21,1.57,5,2.44,7,4.22,3.23,2.94,6,6.38,9,9.62a.69.69,0,0,1,.16.58c-2,4.15,1.51,4.52,3.91,5.46,5.77,2.26,8,7.94,12.66,11.89-1.54.63-2.41,1-3.25,1.35-5.39,2.56-5.59,3.51-1.82,8.42.26.33.65.66.71,1,.19,1.2.82,2.84.28,3.55-1.84,2.42-1.5,5-1.15,7.59.15,1,1.49,2.84,2,2.75A6.66,6.66,0,0,0,361.4,362C362.12,361.14,362.2,359.75,362.66,358.32Zm-98.15,700.9c-2.88,4.68-.87,8.72,4.29,9.12,1.36.11,2.72.29,4.09.4,3.28.27,5.39-1.55,6.14-4.85.24-1.06,1.08-2.57,1.94-2.81a75.77,75.77,0,0,1,10.74-2.2c5.15-.65,7.55-2.38,8.83-7.36a31.4,31.4,0,0,0-3.39.71c-2,.65-3.91,1.68-5.94,2.06a9.84,9.84,0,0,1-4.19-.62c-1.94-.54-3.79-1.49-5.75-1.9-3.36-.7-7.84,3.47-10-2.35-.05-.14-.36-.26-.54-.26-3.86-.06-7.92-.88-11.52.06a27.9,27.9,0,0,1-10.74,1.08,25.83,25.83,0,0,0-2.81,0c.25,1.49.11,2.81.69,3.6,1.2,1.63,8.85,3.13,10.76,2.19,2.74-1.35,5-1.46,6.35,1.79A7.08,7.08,0,0,0,264.52,1059.22Zm-49.1-419,.39-1c-1.62-.84-3.57-2.69-4.8-2.3-3.08,1-4.19-1.19-6.07-2.43a40.35,40.35,0,0,0-15.64-5.85l5.63,11.95-3.22,1.22-.37,1.09c2.16,1.22,4.43,2.28,6.45,3.69,2.52,1.75,5.82,3.32,7,5.82,1.9,4,2.61,8.64,3.29,13.09.38,2.47,1.06,5.72-3.19,6.44.77,2.66,1.33,5.14,2.25,7.47a4.26,4.26,0,0,0,2.44,2.06c.36.12,1.45-1.19,1.84-2a18.05,18.05,0,0,0,1.27-11.71c-.74-3.4-1.48-6.8-1.95-10.24-.55-4-2.46-8.74,3.88-10.26.27-.06.41-.65.44-.71-.79-2.44-5.54-2.34-3.27-6.25Zm12.46,252.21,2.52,5.83.87-.22a25.59,25.59,0,0,1,.26-3.93,4.65,4.65,0,0,1,1.35-2.56c2.16-1.73,4.49-3.24,7.21-5.17l-4.85-3.81c-1,.92-1.83,1.6-2.6,2.32-3.08,2.9-3.95,2.92-6.87-.07-1-1-1.84-2.3-2.89-3.31-.88-.85-2-2.16-2.93-2.08-2.26.19-2.88-1.09-3.71-2.66a34.42,34.42,0,0,0-2.74-3.85c-.54.26-1,.34-1.26.62-.92,1.1-2.32,2.17-2.52,3.41-.31,1.92.91,3.07,3.12,3.33,1.24.15,2.36,1.29,3.54,2l-.24,1.17-5.51.79,9.24,12.46Z" style="fill:none;stroke:#000;stroke-miterlimit:10;stroke-width:5px"/><ellipse cx="90.54" cy="1221.23" rx="15.76" ry="5.33"/><path d="M90.62,1095a41,41,0,0,0-41,41c0,22.62,41,78.07,41,78.07s41-55.45,41-78.07A41,41,0,0,0,90.62,1095Zm0,69.82a29,29,0,1,1,29-29A29,29,0,0,1,90.63,1164.86Z" style="fill:#690"/><path d="M90.63,1106.4a29.47,29.47,0,1,0,29.47,29.47A29.47,29.47,0,0,0,90.63,1106.4Zm0,55.47a25.74,25.74,0,1,1,25.74-25.74A25.74,25.74,0,0,1,90.63,1161.87Z" style="fill:#457f00"/><text transform="translate(71.05 1143.62)" style="font-size:21px;font-family:MyriadPro-Regular, Myriad Pro">WPF</text></svg>