<?xml version="1.0" encoding="UTF-8"?>
<svg width="74px" height="52px" viewBox="0 0 74 52" version="1.1" xmlns="http://www.w3.org/2000/svg" xmlns:xlink="http://www.w3.org/1999/xlink">
    <!-- Generator: Sketch 46.2 (44496) - http://www.bohemiancoding.com/sketch -->
    <title>Group 42</title>
    <desc>Created with Sketch.</desc>
    <defs></defs>
    <g id="Page-2---Tjänster" stroke="none" stroke-width="1" fill="none" fill-rule="evenodd">
        <g id="Tjänster-Copy-5" transform="translate(-254.000000, -3087.000000)" stroke="#2ABFBF" stroke-width="2.09100008">
            <g id="Group-11" transform="translate(184.000000, 3029.000000)">
                <g id="Group-42" transform="translate(71.000000, 59.000000)">
                    <path d="M71.3488871,1.29325455 C71.4807581,1.29798182 71.5561129,1.44689091 71.4807581,1.55561818 L64.3055645,11.9036182 L56.9561129,22.5021636 L53.4309194,27.5768909 C53.3955968,27.6265273 53.3414355,27.6501636 53.2825645,27.6478 L25.2223065,25.6859818 L12.7534355,24.8185273 L0.710790323,23.9770727 C0.557725806,23.9652545 0.498854839,23.7738 0.618951613,23.6792545 L29.9932097,0.361981818 C30.0214677,0.338345455 30.0591452,0.326527273 30.0968226,0.326527273 L71.3488871,1.29325455 Z" id="Stroke-20"></path>
                    <path d="M71.3488871,12.0704909 C71.4807581,12.0728545 71.5561129,12.2217636 71.4807581,12.3304909 L64.3055645,22.6714 L53.4309194,38.3446727 C53.3955968,38.3943091 53.3414355,38.4179455 53.2825645,38.4155818 L12.7534355,35.5863091 L0.710790323,34.7519455 C0.557725806,34.7401273 0.501209677,34.5486727 0.618951613,34.4541273 L12.7039839,24.8601273 C12.7345968,24.8341273 12.774629,24.8223091 12.8170161,24.8246727 L25.2223065,25.6874 L53.2825645,27.6492182 C53.3414355,27.6515818 53.3955968,27.6255818 53.4309194,27.5783091 L56.9561129,22.5012182 L64.2537581,11.9783091 C64.2867258,11.9310364 64.3385323,11.9074 64.3950484,11.9074 L71.3488871,12.0704909 Z" id="Stroke-22"></path>
                    <path d="M71.4798161,23.0992182 L53.4299774,49.1204909 C53.3946548,49.1677636 53.3404935,49.1961273 53.2816226,49.1914 L0.709848387,45.5183091 C0.55913871,45.5064909 0.500267742,45.3150364 0.618009677,45.2204909 L12.7030419,35.6288545 C12.7360097,35.6028545 12.7736871,35.5886727 12.8160742,35.5910364 L53.2816226,38.4155818 C53.3404935,38.4179455 53.3946548,38.3943091 53.4299774,38.3446727 L64.255171,22.7470364 C64.2857839,22.6997636 64.3399452,22.6714 64.3941065,22.6737636 L71.3479452,22.8368545 C71.4798161,22.8415818 71.555171,22.9904909 71.4798161,23.0992182 Z" id="Stroke-24"></path>
                </g>
            </g>
        </g>
    </g>
</svg>