<?xml version="1.0" encoding="UTF-8"?>
<svg width="109px" height="89px" viewBox="0 0 109 89" version="1.1" xmlns="http://www.w3.org/2000/svg" xmlns:xlink="http://www.w3.org/1999/xlink">
    <!-- Generator: Sketch 46.2 (44496) - http://www.bohemiancoding.com/sketch -->
    <title>Group 6</title>
    <desc>Created with Sketch.</desc>
    <defs>
        <polygon id="path-1" points="0 98 135 98 135 0 0 0"></polygon>
        <rect id="path-3" x="34" y="47" width="10" height="10" rx="5"></rect>
        <rect id="path-4" x="34" y="58" width="10" height="10" rx="5"></rect>
        <rect id="path-5" x="34" y="36" width="10" height="10" rx="5"></rect>
        <rect id="path-6" x="45" y="47" width="10" height="10" rx="5"></rect>
        <rect id="path-7" x="45" y="58" width="10" height="10" rx="5"></rect>
        <rect id="path-8" x="45" y="36" width="10" height="10" rx="5"></rect>
        <rect id="path-9" x="57" y="47" width="10" height="10" rx="5"></rect>
        <rect id="path-10" x="57" y="58" width="10" height="10" rx="5"></rect>
        <rect id="path-11" x="57" y="36" width="10" height="10" rx="5"></rect>
    </defs>
    <g id="Page-2---Tjänster" stroke="none" stroke-width="1" fill="none" fill-rule="evenodd">
        <g id="Tjänster-Copy-5" transform="translate(-683.000000, -3060.000000)">
            <g id="Group-9" transform="translate(635.000000, 3029.000000)">
                <g id="Group-6" transform="translate(36.000000, 29.000000)">
                    <path d="M120.191418,29.5062338 C120.191418,30.4743506 119.4086,31.2603247 118.441913,31.2603247 C117.476327,31.2603247 116.692408,30.4743506 116.692408,29.5062338 C116.692408,28.537013 117.476327,27.7521429 118.441913,27.7521429 C119.4086,27.7521429 120.191418,28.537013 120.191418,29.5062338" id="Fill-16" fill="#07DCDC"></path>
                    <path d="M16.7018636,45.0103442 L15.7869242,45.9276818" id="Stroke-18" stroke="#231F20" stroke-width="1.8491" stroke-linecap="round"></path>
                    <path d="M13.8396778,47.8800325 L12.9247384,48.7973701" id="Stroke-20" stroke="#231F20" stroke-width="1.8491" stroke-linecap="round"></path>
                    <path d="M16.7018636,48.7974805 L15.7869242,47.8801429" id="Stroke-22" stroke="#231F20" stroke-width="1.8491" stroke-linecap="round"></path>
                    <path d="M13.8396778,45.9277922 L12.9247384,45.0104545" id="Stroke-24" stroke="#231F20" stroke-width="1.8491" stroke-linecap="round"></path>
                    <path d="M36.2738596,82.2787597 C36.2738596,83.2468766 35.4899404,84.0328506 34.5243545,84.0328506 C33.5576677,84.0328506 32.7748495,83.2468766 32.7748495,82.2787597 C32.7748495,81.309539 33.5576677,80.5246688 34.5243545,80.5246688 C35.4899404,80.5246688 36.2738596,81.309539 36.2738596,82.2787597" id="Fill-26" fill="#17C5C0"></path>
                    <path d="M21.8391768,31.2602143 C21.8391768,32.2283312 21.0563586,33.0143052 20.0907727,33.0143052 C19.1240859,33.0143052 18.3412677,32.2283312 18.3412677,31.2602143 C18.3412677,30.2909935 19.1240859,29.5061234 20.0907727,29.5061234 C21.0563586,29.5061234 21.8391768,30.2909935 21.8391768,31.2602143" id="Fill-28" fill="#07DCDC"></path>
                    <mask id="mask-2" fill="white">
                        <use xlink:href="#path-1"></use>
                    </mask>
                    <g id="Clip-31"></g>
                    <polygon id="Stroke-30" stroke="#000000" stroke-width="1.1297" mask="url(#mask-2)" points="27.2853232 28.525974 101.724616 28.525974 101.724616 20.016039 27.2853232 20.016039"></polygon>
                    <polyline id="Stroke-32" stroke="#000000" stroke-width="1.1297" mask="url(#mask-2)" points="66.6032747 73.8733636 27.286204 73.8733636 27.286204 28.7085584 101.677053 28.7085584 101.677053 73.8733636 94.0140222 73.8733636"></polyline>
                    <path d="M90.7495455,3 L90,3.74954545" id="Stroke-64" stroke="#231F20" stroke-width="1.5125" stroke-linecap="round" mask="url(#mask-2)"></path>
                    <path d="M87.7495455,6 L87,6.74954545" id="Stroke-66" stroke="#231F20" stroke-width="1.5125" stroke-linecap="round" mask="url(#mask-2)"></path>
                    <path d="M90.7495455,6.74954545 L90,6" id="Stroke-68" stroke="#231F20" stroke-width="1.5125" stroke-linecap="round" mask="url(#mask-2)"></path>
                    <path d="M87.7495455,3.75064935 L87,3" id="Stroke-70" stroke="#231F20" stroke-width="1.5125" stroke-linecap="round" mask="url(#mask-2)"></path>
                    <path d="M74.8701299,10.4350649 C74.8701299,11.2276623 74.2276623,11.8701299 73.4350649,11.8701299 C72.6424675,11.8701299 72,11.2276623 72,10.4350649 C72,9.64246753 72.6424675,9 73.4350649,9 C74.2276623,9 74.8701299,9.64246753 74.8701299,10.4350649" id="Fill-80" fill="#17C5C0" mask="url(#mask-2)"></path>
                    <path d="M83.3434135,59.569026 L72.4226501,59.569026 C72.1887653,59.569026 72,59.3427273 72,59.0623377 L72,55.5077922 C72,55.2274026 72.1887653,55 72.4226501,55 L83.3434135,55 C83.5772984,55 83.7669845,55.2274026 83.7669845,55.5077922 L83.7669845,59.0623377 C83.7669845,59.3427273 83.5772984,59.569026 83.3434135,59.569026" id="Fill-33" fill="#07DCDC" mask="url(#mask-2)"></path>
                    <g id="Rectangle-6" mask="url(#mask-2)">
                        <use fill="#2ABFBF" fill-rule="evenodd" xlink:href="#path-3"></use>
                        <rect stroke="#000000" stroke-width="0.5" x="34.25" y="47.25" width="9.5" height="9.5" rx="4.75"></rect>
                    </g>
                    <g id="Rectangle-6-Copy-6" mask="url(#mask-2)">
                        <use fill="#FFFFFF" fill-rule="evenodd" xlink:href="#path-4"></use>
                        <rect stroke="#000000" stroke-width="0.5" x="34.25" y="58.25" width="9.5" height="9.5" rx="4.75"></rect>
                    </g>
                    <g id="Rectangle-6-Copy-3" mask="url(#mask-2)">
                        <use fill="#417505" fill-rule="evenodd" xlink:href="#path-5"></use>
                        <rect stroke="#000000" stroke-width="0.5" x="34.25" y="36.25" width="9.5" height="9.5" rx="4.75"></rect>
                    </g>
                    <g id="Rectangle-6-Copy" mask="url(#mask-2)">
                        <use fill="#000000" fill-rule="evenodd" xlink:href="#path-6"></use>
                        <rect stroke="#000000" stroke-width="0.5" x="45.25" y="47.25" width="9.5" height="9.5" rx="4.75"></rect>
                    </g>
                    <g id="Rectangle-6-Copy-7" mask="url(#mask-2)">
                        <use fill="#701520" fill-rule="evenodd" xlink:href="#path-7"></use>
                        <rect stroke="#000000" stroke-width="0.5" x="45.25" y="58.25" width="9.5" height="9.5" rx="4.75"></rect>
                    </g>
                    <g id="Rectangle-6-Copy-4" mask="url(#mask-2)">
                        <use fill="#F5A623" fill-rule="evenodd" xlink:href="#path-8"></use>
                        <rect stroke="#000000" stroke-width="0.5" x="45.25" y="36.25" width="9.5" height="9.5" rx="4.75"></rect>
                    </g>
                    <g id="Rectangle-6-Copy-2" mask="url(#mask-2)">
                        <use fill="#9013FE" fill-rule="evenodd" xlink:href="#path-9"></use>
                        <rect stroke="#000000" stroke-width="0.5" x="57.25" y="47.25" width="9.5" height="9.5" rx="4.75"></rect>
                    </g>
                    <g id="Rectangle-6-Copy-8" mask="url(#mask-2)">
                        <use fill="#7ED321" fill-rule="evenodd" xlink:href="#path-10"></use>
                        <rect stroke="#000000" stroke-width="0.5" x="57.25" y="58.25" width="9.5" height="9.5" rx="4.75"></rect>
                    </g>
                    <g id="Rectangle-6-Copy-5" mask="url(#mask-2)">
                        <use fill="#D0021B" fill-rule="evenodd" xlink:href="#path-11"></use>
                        <rect stroke="#000000" stroke-width="0.5" x="57.25" y="36.25" width="9.5" height="9.5" rx="4.75"></rect>
                    </g>
                    <path d="M83.3434135,59.569026 L72.4226501,59.569026 C72.1887653,59.569026 72,59.3427273 72,59.0623377 L72,55.5077922 C72,55.2274026 72.1887653,55 72.4226501,55 L83.3434135,55 C83.5772984,55 83.7669845,55.2274026 83.7669845,55.5077922 L83.7669845,59.0623377 C83.7669845,59.3427273 83.5772984,59.569026 83.3434135,59.569026 Z" id="Stroke-34" stroke="#282828" stroke-width="0.6842" mask="url(#mask-2)"></path>
                    <path d="M86.6396768,90.2971299 L91.0437172,85.8837532 C91.1549192,85.7722597 91.1549192,85.5912208 91.0437172,85.4808312 L84.3330606,78.7514805 C84.1866263,78.6057662 84.2394747,78.3584935 84.4321515,78.2834286 L90.0252828,76.1396623 C90.2741111,76.0436234 90.2675051,75.6892727 90.0153737,75.6031688 L69.9362525,68.7744675 C69.7138485,68.6994026 69.5013535,68.9124545 69.5762222,69.1354416 L76.3859697,89.2671948 C76.4729495,89.519987 76.8263737,89.5277143 76.9210606,89.2782338 L79.0625253,83.6693377 C79.1362929,83.4761558 79.3829192,83.4231688 79.5282525,83.5688831 L86.2389091,90.2971299 C86.3490101,90.4086234 86.5284747,90.4086234 86.6396768,90.2971299" id="Fill-35" fill="#30BFD7" mask="url(#mask-2)"></path>
                    <path d="M86.6396768,90.2971299 L91.0437172,85.8837532 C91.1549192,85.7722597 91.1549192,85.5912208 91.0437172,85.4808312 L84.3330606,78.7514805 C84.1866263,78.6057662 84.2394747,78.3584935 84.4321515,78.2834286 L90.0252828,76.1396623 C90.2741111,76.0436234 90.2675051,75.6892727 90.0153737,75.6031688 L69.9362525,68.7744675 C69.7138485,68.6994026 69.5013535,68.9124545 69.5762222,69.1354416 L76.3859697,89.2671948 C76.4729495,89.519987 76.8263737,89.5277143 76.9210606,89.2782338 L79.0625253,83.6693377 C79.1362929,83.4761558 79.3829192,83.4231688 79.5282525,83.5688831 L86.2389091,90.2971299 C86.3490101,90.4086234 86.5284747,90.4086234 86.6396768,90.2971299 Z" id="Stroke-36" stroke="#020202" stroke-width="1.0274" mask="url(#mask-2)"></path>
                    <path d="M72,49 L89.4308644,49.0916234" id="Stroke-37" stroke="#000000" stroke-width="0.7535" stroke-linecap="round" mask="url(#mask-2)"></path>
                    <path d="M72,45 L92.5035952,45" id="Stroke-38" stroke="#000000" stroke-width="0.7535" stroke-linecap="round" mask="url(#mask-2)"></path>
                    <path d="M72,38 L93.5662057,38" id="Stroke-39" stroke="#07DCDC" stroke-width="2.2594" mask="url(#mask-2)"></path>
                    <path d="M33.6427758,25.992974 L31.3031293,25.992974 C31.2007354,25.992974 31.1192606,25.9101818 31.1192606,25.8086234 L31.1192606,23.1548571 C31.1192606,23.0521948 31.2007354,22.9705065 31.3031293,22.9705065 L33.6427758,22.9705065 C33.7440687,22.9705065 33.8266444,23.0521948 33.8266444,23.1548571 L33.8266444,25.8086234 C33.8266444,25.9101818 33.7440687,25.992974 33.6427758,25.992974 Z" id="Stroke-40" stroke="#000000" stroke-width="0.7535" mask="url(#mask-2)"></path>
                    <path d="M38.4661909,25.992974 L36.1276455,25.992974 C36.0252515,25.992974 35.9426758,25.9101818 35.9426758,25.8086234 L35.9426758,23.1548571 C35.9426758,23.0521948 36.0252515,22.9705065 36.1276455,22.9705065 L38.4661909,22.9705065 C38.5685848,22.9705065 38.6511606,23.0521948 38.6511606,23.1548571 L38.6511606,25.8086234 C38.6511606,25.9101818 38.5685848,25.992974 38.4661909,25.992974 Z" id="Stroke-41" stroke="#000000" stroke-width="0.7535" mask="url(#mask-2)"></path>
                    <path d="M43.290597,25.992974 L40.9509505,25.992974 C40.8496576,25.992974 40.7670818,25.9101818 40.7670818,25.8086234 L40.7670818,23.1548571 C40.7670818,23.0521948 40.8496576,22.9705065 40.9509505,22.9705065 L43.290597,22.9705065 C43.3929909,22.9705065 43.4744657,23.0521948 43.4744657,23.1548571 L43.4744657,25.8086234 C43.4744657,25.9101818 43.3929909,25.992974 43.290597,25.992974 Z" id="Stroke-42" stroke="#000000" stroke-width="0.7535" mask="url(#mask-2)"></path>
                </g>
            </g>
        </g>
    </g>
</svg>