<svg xmlns="http://www.w3.org/2000/svg" viewBox="0 0 213.31 48.72"><title>Resurs 7</title><g id="Lager_2" data-name="Lager 2"><g id="Lager_1-2" data-name="Lager 1"><path d="M5.36,6.84,7.81,21.69h.08L11.15,6.84h5.18l2.76,14.85h.08L21.69,6.84h5.13L22.31,27.75h-6.1L13.45,12.9h-.08l-2.6,14.85H4.55L0,6.84Z" style="fill:#fff"/><path d="M33.47,19.78a11.71,11.71,0,0,0,.14,1.81A5.89,5.89,0,0,0,34,23.15a2.93,2.93,0,0,0,.82,1.09,1.91,1.91,0,0,0,1.24.41,2.18,2.18,0,0,0,2-1,7.17,7.17,0,0,0,.85-3h4.82a8.38,8.38,0,0,1-1.94,5.56q-1.79,1.91-5.64,1.9a8.92,8.92,0,0,1-4.55-1,6,6,0,0,1-2.41-2.57,10.1,10.1,0,0,1-1-3.58q-.17-2-.18-4a27.22,27.22,0,0,1,.29-4A9.75,9.75,0,0,1,29.56,9.6a6.34,6.34,0,0,1,2.51-2.41,9.07,9.07,0,0,1,4.35-.89,8.45,8.45,0,0,1,3.83.76A5.77,5.77,0,0,1,42.6,9.19a9,9,0,0,1,1.17,3.34,28,28,0,0,1,.31,4.37v1.2H33.47Zm5.33-7a5.44,5.44,0,0,0-.41-1.56,2.18,2.18,0,0,0-.82-1A2.49,2.49,0,0,0,36.23,10a2.27,2.27,0,0,0-1.34.37,2.65,2.65,0,0,0-.84,1,4.79,4.79,0,0,0-.45,1.34,8.13,8.13,0,0,0-.14,1.48v.82h5.48Q38.91,13.72,38.79,12.81Z" style="fill:#fff"/><path d="M46.84,12.75a7.08,7.08,0,0,1,.58-3.05,5.32,5.32,0,0,1,1.57-2,6.27,6.27,0,0,1,2.33-1.09,12,12,0,0,1,2.86-.33,13.25,13.25,0,0,1,3.89.47,5.32,5.32,0,0,1,2.29,1.32,4.44,4.44,0,0,1,1.11,2,10.82,10.82,0,0,1,.29,2.58v11A14.7,14.7,0,0,0,61.9,26a8,8,0,0,0,.52,1.75H57.67a.62.62,0,0,1-.57-.39,4.46,4.46,0,0,1-.22-.68q-.14-.56-.25-1.11h-.08a4.56,4.56,0,0,1-2.16,2.12,8.73,8.73,0,0,1-3.17.49,5.27,5.27,0,0,1-2.37-.49,4,4,0,0,1-1.55-1.34,6,6,0,0,1-.86-1.92,8.57,8.57,0,0,1-.27-2.12,9.18,9.18,0,0,1,.31-2.55,4.91,4.91,0,0,1,1-1.83,5.21,5.21,0,0,1,1.63-1.26,13,13,0,0,1,2.39-.89l3-.82a3.25,3.25,0,0,0,1.67-.86,2.39,2.39,0,0,0,.47-1.59,2.87,2.87,0,0,0-.56-1.89A2.38,2.38,0,0,0,54.14,10a2.3,2.3,0,0,0-1.87.74,3,3,0,0,0-.62,2v.58H46.84ZM55.47,18a7.54,7.54,0,0,1-1.13.37A4.12,4.12,0,0,0,52,19.51a3.29,3.29,0,0,0-.7,2.21,4.24,4.24,0,0,0,.47,2.06,1.63,1.63,0,0,0,1.55.86,3.9,3.9,0,0,0,1.13-.18,3.15,3.15,0,0,0,1.07-.56,3,3,0,0,0,.8-1,3.27,3.27,0,0,0,.31-1.48V17.3A4.85,4.85,0,0,1,55.47,18Z" style="fill:#fff"/><path d="M72.1.86v6h3.11v3.65H72.1V21.81a3.18,3.18,0,0,0,.37,1.77A1.79,1.79,0,0,0,74,24.1l.62,0a1.39,1.39,0,0,0,.58-.15v3.72c-.59.08-1.17.12-1.73.16s-1.15.06-1.77.06a12.45,12.45,0,0,1-2.55-.21,2.58,2.58,0,0,1-1.52-.85,3.68,3.68,0,0,1-.72-1.69,14.88,14.88,0,0,1-.19-2.64v-12H64.67V6.84h2.07v-6Z" style="fill:#fff"/><path d="M82.44,0V9h.08A5.43,5.43,0,0,1,87.61,6.3a5.3,5.3,0,0,1,3.95,1.4q1.38,1.4,1.38,4.55V27.75H87.57V13.33A3.58,3.58,0,0,0,87,11.06a2.18,2.18,0,0,0-1.75-.64q-2.84,0-2.84,3.46V27.75H77.08V0Z" style="fill:#fff"/><path d="M101.1,19.78a11.71,11.71,0,0,0,.14,1.81,5.89,5.89,0,0,0,.45,1.56,2.93,2.93,0,0,0,.82,1.09,1.91,1.91,0,0,0,1.24.41,2.18,2.18,0,0,0,2-1,7.17,7.17,0,0,0,.85-3h4.82a8.38,8.38,0,0,1-1.94,5.56q-1.79,1.91-5.64,1.9a8.92,8.92,0,0,1-4.55-1,6,6,0,0,1-2.41-2.57,10.1,10.1,0,0,1-1-3.58q-.17-2-.18-4a27.22,27.22,0,0,1,.29-4A9.75,9.75,0,0,1,97.19,9.6,6.34,6.34,0,0,1,99.7,7.19a9.07,9.07,0,0,1,4.35-.89,8.45,8.45,0,0,1,3.83.76,5.77,5.77,0,0,1,2.35,2.14,9,9,0,0,1,1.17,3.34,28,28,0,0,1,.31,4.37v1.2H101.1Zm5.33-7a5.44,5.44,0,0,0-.41-1.56,2.18,2.18,0,0,0-.82-1,2.49,2.49,0,0,0-1.34-.33,2.27,2.27,0,0,0-1.34.37,2.65,2.65,0,0,0-.84,1,4.79,4.79,0,0,0-.45,1.34,8.13,8.13,0,0,0-.14,1.48v.82h5.48Q106.54,13.72,106.42,12.81Z" style="fill:#fff"/><path d="M119.64,6.84v2.8h.08a7.6,7.6,0,0,1,2-2.43,4.46,4.46,0,0,1,2.84-.91l.49,0,.49.06v5.13l-.84-.06-.84,0a5.22,5.22,0,0,0-1.4.19,3.72,3.72,0,0,0-1.28.64,3.21,3.21,0,0,0-.93,1.17,4,4,0,0,0-.35,1.77V27.75h-5.36V6.84Z" style="fill:#fff"/><path d="M130.25,6.39v5.12h.08a6.56,6.56,0,0,1,2.78-3.25,8.38,8.38,0,0,1,4.37-1.15,8.73,8.73,0,0,1,4,.86,8.17,8.17,0,0,1,2.82,2.31A9.85,9.85,0,0,1,146,13.66a15.43,15.43,0,0,1,0,8.12,9.85,9.85,0,0,1-1.67,3.38,8,8,0,0,1-2.82,2.29,9.51,9.51,0,0,1-6.16.56,7.64,7.64,0,0,1-2-.82,6.65,6.65,0,0,1-1.65-1.36,5.78,5.78,0,0,1-1.11-1.9h-.08v11.2H128V6.39Zm13.43,8.25a8.57,8.57,0,0,0-1.17-2.74,6.43,6.43,0,0,0-2-2,5.65,5.65,0,0,0-3-.76,7.34,7.34,0,0,0-3.38.7,5.88,5.88,0,0,0-2.18,1.87,7.35,7.35,0,0,0-1.15,2.72,15.69,15.69,0,0,0-.33,3.27,13.15,13.15,0,0,0,.37,3.09,8,8,0,0,0,1.2,2.74,6.48,6.48,0,0,0,2.18,2,6.58,6.58,0,0,0,3.28.76,5.64,5.64,0,0,0,3-.76,6.42,6.42,0,0,0,2-2,8.55,8.55,0,0,0,1.17-2.74,13.12,13.12,0,0,0,0-6.18Z" style="fill:#fff"/><path d="M152.56,7.7v4.7h.08a7.7,7.7,0,0,1,2.9-3.77,7.58,7.58,0,0,1,4.68-1.2V9.87a7.39,7.39,0,0,0-3,.45,6.7,6.7,0,0,0-3.89,3.81,7.71,7.71,0,0,0-.54,2.93V27.75h-2.45V7.7Z" style="fill:#fff"/><path d="M174.39,8a8.85,8.85,0,0,1,3,2.29,9.93,9.93,0,0,1,1.83,3.36,13.83,13.83,0,0,1,0,8.2,9.93,9.93,0,0,1-1.83,3.36,8.65,8.65,0,0,1-3,2.27,10.29,10.29,0,0,1-8.12,0,8.64,8.64,0,0,1-3-2.27,9.9,9.9,0,0,1-1.83-3.36,13.24,13.24,0,0,1-.62-4.1,13.24,13.24,0,0,1,.62-4.1,9.9,9.9,0,0,1,1.83-3.36,8.84,8.84,0,0,1,3-2.29,10.07,10.07,0,0,1,8.12,0Zm-7.13,1.94a6.76,6.76,0,0,0-2.2,1.94,8.79,8.79,0,0,0-1.32,2.74,11.18,11.18,0,0,0,0,6.26,8.79,8.79,0,0,0,1.32,2.74,6.74,6.74,0,0,0,2.2,1.94,6.76,6.76,0,0,0,6.14,0,6.74,6.74,0,0,0,2.2-1.94,8.8,8.8,0,0,0,1.32-2.74,11.17,11.17,0,0,0,0-6.26,8.81,8.81,0,0,0-1.32-2.74,6.76,6.76,0,0,0-2.2-1.94,6.76,6.76,0,0,0-6.14,0Z" style="fill:#fff"/><path d="M196,8a8.85,8.85,0,0,1,3,2.29,9.93,9.93,0,0,1,1.83,3.36,13.83,13.83,0,0,1,0,8.2A9.93,9.93,0,0,1,199,25.19a8.65,8.65,0,0,1-3,2.27,10.29,10.29,0,0,1-8.12,0,8.64,8.64,0,0,1-3-2.27,9.9,9.9,0,0,1-1.83-3.36,13.24,13.24,0,0,1-.62-4.1,13.24,13.24,0,0,1,.62-4.1,9.9,9.9,0,0,1,1.83-3.36,8.84,8.84,0,0,1,3-2.29A10.07,10.07,0,0,1,196,8Zm-7.13,1.94a6.76,6.76,0,0,0-2.2,1.94,8.79,8.79,0,0,0-1.32,2.74,11.18,11.18,0,0,0,0,6.26,8.79,8.79,0,0,0,1.32,2.74,6.74,6.74,0,0,0,2.2,1.94,6.76,6.76,0,0,0,6.14,0,6.74,6.74,0,0,0,2.2-1.94,8.8,8.8,0,0,0,1.32-2.74,11.17,11.17,0,0,0,0-6.26,8.81,8.81,0,0,0-1.32-2.74A6.76,6.76,0,0,0,195,9.91a6.76,6.76,0,0,0-6.14,0Z" style="fill:#fff"/><path d="M208.84,11.72v16h-2.45v-16H203V9.66h3.42V5.87a13.43,13.43,0,0,1,.19-2.37,4.63,4.63,0,0,1,.74-1.87,3.56,3.56,0,0,1,1.5-1.2A6,6,0,0,1,211.25,0q.54,0,1,0l1,.12v2.1l-.93-.14a6.24,6.24,0,0,0-.86-.06,3.16,3.16,0,0,0-1.55.31,1.9,1.9,0,0,0-.8.84,3.2,3.2,0,0,0-.29,1.22q0,.7,0,1.52V9.66h4v2.06Z" style="fill:#fff"/><path d="M165.74,35.65a2,2,0,0,1,1.73-.65h.25l.29,0v1.17l-.29,0h-.17q-.59,0-.71.3a5.93,5.93,0,0,0-.12,1.54H168v1h-1.28V45.6h-1.27V39H164.4V38h1.06v-1.2A2.28,2.28,0,0,1,165.74,35.65Z" style="fill:#fff"/><path d="M174.74,41a.7.7,0,0,0,.59-.37,1.13,1.13,0,0,0,.09-.49,1,1,0,0,0-.47-1,2.49,2.49,0,0,0-1.33-.3,1.69,1.69,0,0,0-1.42.54,1.8,1.8,0,0,0-.31.89h-1.2a2.21,2.21,0,0,1,.91-2,3.74,3.74,0,0,1,2-.55,4.14,4.14,0,0,1,2.18.51,1.74,1.74,0,0,1,.83,1.59v4.39a.56.56,0,0,0,.08.32.4.4,0,0,0,.35.12h.19l.23,0v.95a3.61,3.61,0,0,1-.46.11l-.43,0a1.05,1.05,0,0,1-1-.47,1.81,1.81,0,0,1-.22-.71,3.27,3.27,0,0,1-1.12.89,3.48,3.48,0,0,1-1.62.38,2.41,2.41,0,0,1-1.73-.64,2.14,2.14,0,0,1-.67-1.61A2.07,2.07,0,0,1,171,42a3.15,3.15,0,0,1,1.74-.72ZM172,44.44a1.5,1.5,0,0,0,1,.32,2.92,2.92,0,0,0,1.31-.31,1.76,1.76,0,0,0,1.07-1.7v-1a2.2,2.2,0,0,1-.6.25,5.06,5.06,0,0,1-.72.14l-.77.1a3,3,0,0,0-1,.29,1.13,1.13,0,0,0-.59,1.07A1.05,1.05,0,0,0,172,44.44Z" style="fill:#fff"/><path d="M180.21,38h1.27v1.08a4.26,4.26,0,0,1,.83-.82,2.48,2.48,0,0,1,1.44-.43,2.26,2.26,0,0,1,1.47.45,2.35,2.35,0,0,1,.57.75,2.77,2.77,0,0,1,1-.91,2.81,2.81,0,0,1,1.3-.29,2.12,2.12,0,0,1,2.09,1.11,3.63,3.63,0,0,1,.3,1.61V45.6h-1.33V40.3a1.23,1.23,0,0,0-.38-1,1.51,1.51,0,0,0-.93-.28,1.84,1.84,0,0,0-1.3.51,2.22,2.22,0,0,0-.54,1.69V45.6h-1.3v-5a2.58,2.58,0,0,0-.19-1.13,1.13,1.13,0,0,0-1.09-.53,1.88,1.88,0,0,0-1.32.56,2.75,2.75,0,0,0-.59,2v4h-1.28Z" style="fill:#fff"/><path d="M193.81,35.14h1.3v1.45h-1.3Zm0,2.87h1.3V45.6h-1.3Z" style="fill:#fff"/><path d="M198.54,35.14h1.28V45.6h-1.28Z" style="fill:#fff"/><path d="M208,38h1.42q-.27.73-1.2,3.35-.7,2-1.17,3.2a21.65,21.65,0,0,1-1.56,3.56,1.79,1.79,0,0,1-1.56.64l-.42,0-.36-.08V47.45l.48.11.26,0a.91.91,0,0,0,.52-.12,1.07,1.07,0,0,0,.28-.29s.11-.23.26-.58l.32-.78L202.42,38h1.45l2,6.21Z" style="fill:#fff"/></g></g></svg>