<svg xmlns="http://www.w3.org/2000/svg" viewBox="0 0 584.53 97.94"><title>Resurs 5</title><g id="Lager_2" data-name="Lager 2"><g id="Lager_1-2" data-name="Lager 1"><path d="M168.58,15.46l4.84,29.35h.15L180,15.46h10.23l5.46,29.35h.15l5-29.35H211L202.08,56.8H190l-5.46-29.35h-.15L179.26,56.8H167l-9-41.34Z" style="fill:#fffdfd"/><path d="M224.14,41a23.15,23.15,0,0,0,.27,3.57,11.64,11.64,0,0,0,.88,3.07,5.79,5.79,0,0,0,1.61,2.15,3.78,3.78,0,0,0,2.46.81,4.31,4.31,0,0,0,3.92-1.92A14.18,14.18,0,0,0,235,42.89h9.53q-.31,7.22-3.84,11t-11.14,3.77q-5.76,0-9-1.92a11.92,11.92,0,0,1-4.76-5.07,20,20,0,0,1-1.88-7.07q-.35-3.92-.35-7.84a53.8,53.8,0,0,1,.58-8,19.27,19.27,0,0,1,2.3-6.84,12.54,12.54,0,0,1,5-4.76A17.94,17.94,0,0,1,230,14.38a16.71,16.71,0,0,1,7.57,1.5,11.42,11.42,0,0,1,4.65,4.23,17.7,17.7,0,0,1,2.3,6.61,55.44,55.44,0,0,1,.61,8.64v2.38h-21Zm10.53-13.79a10.74,10.74,0,0,0-.81-3.07,4.31,4.31,0,0,0-1.61-1.92,4.92,4.92,0,0,0-2.65-.65,4.49,4.49,0,0,0-2.65.73,5.24,5.24,0,0,0-1.65,1.92,9.47,9.47,0,0,0-.88,2.65,16.08,16.08,0,0,0-.27,2.92v1.61H235Q234.89,29.06,234.66,27.25Z" style="fill:#fffdfd"/><path d="M250.57,26.87a14,14,0,0,1,1.15-6,10.52,10.52,0,0,1,3.11-3.92,12.4,12.4,0,0,1,4.61-2.15,23.66,23.66,0,0,1,5.65-.65,26.2,26.2,0,0,1,7.68.92,10.51,10.51,0,0,1,4.53,2.61,8.77,8.77,0,0,1,2.19,4,21.38,21.38,0,0,1,.58,5.11V48.54c0,1.95,0,8.84,0,8.84-3.24,0-5.52.11-7-.35-2.9-.91-2.63-3.68-2.93-4.71-1.87,4.75-5.52,4.83-10.94,5.06a9.46,9.46,0,0,1-4.69-1,7.93,7.93,0,0,1-3.07-2.65A11.86,11.86,0,0,1,249.8,50a16.94,16.94,0,0,1-.54-4.19,18.15,18.15,0,0,1,.61-5,9.72,9.72,0,0,1,1.88-3.61,10.29,10.29,0,0,1,3.23-2.5,25.66,25.66,0,0,1,4.73-1.77l6-1.61a6.43,6.43,0,0,0,3.3-1.69,4.72,4.72,0,0,0,.92-3.15,5.68,5.68,0,0,0-1.11-3.73,4.7,4.7,0,0,0-3.8-1.34,4.55,4.55,0,0,0-3.69,1.46,5.89,5.89,0,0,0-1.23,3.92v1.15h-9.53ZM267.62,37.2a14.9,14.9,0,0,1-2.23.73,8.15,8.15,0,0,0-4.61,2.31,6.5,6.5,0,0,0-1.38,4.38,8.38,8.38,0,0,0,.92,4.07,3.22,3.22,0,0,0,3.07,1.69,7.71,7.71,0,0,0,2.23-.35,6.22,6.22,0,0,0,2.11-1.11,5.87,5.87,0,0,0,1.58-2,6.46,6.46,0,0,0,.61-2.92V35.86A9.59,9.59,0,0,1,267.62,37.2Z" style="fill:#fffdfd"/><path d="M297.93,3.63V15.46l4.49,0V22.7l-4.49,0V45a6.28,6.28,0,0,0,.73,3.5q.73,1,3,1c.41,0,.82,0,1.23,0a17.14,17.14,0,0,0,2-.25v7.27c-1.16.16-3.12.28-4.22.36s-2.27.11-3.5.11a24.61,24.61,0,0,1-5-.42,5.1,5.1,0,0,1-3-1.69,7.28,7.28,0,0,1-1.42-3.34,29.42,29.42,0,0,1-.38-5.22V22.7l-4-.06V15.47h4V3.63Z" style="fill:#fffdfd"/><path d="M319.66,1.94V19.68h.15q3.07-5.3,10.07-5.3,5.07,0,7.8,2.76t2.73,9V56.43H329.8V28.29q0-3.23-1.08-4.49a4.3,4.3,0,0,0-3.46-1.27q-5.61,0-5.61,6.84V56.8h-10.6V1.94Z" style="fill:#fffdfd"/><path d="M356.54,41a23.15,23.15,0,0,0,.27,3.57,11.64,11.64,0,0,0,.88,3.07,5.79,5.79,0,0,0,1.61,2.15,3.78,3.78,0,0,0,2.46.81,4.31,4.31,0,0,0,3.92-1.92,14.18,14.18,0,0,0,1.69-5.84h9.53q-.31,7.22-3.84,11t-11.14,3.77q-5.76,0-9-1.92a11.92,11.92,0,0,1-4.76-5.07,20,20,0,0,1-1.88-7.07q-.35-3.92-.35-7.84a53.8,53.8,0,0,1,.58-8,19.27,19.27,0,0,1,2.3-6.84,12.54,12.54,0,0,1,5-4.76,17.94,17.94,0,0,1,8.61-1.77,16.71,16.71,0,0,1,7.57,1.5,11.42,11.42,0,0,1,4.65,4.23,17.7,17.7,0,0,1,2.3,6.61,55.44,55.44,0,0,1,.61,8.64v2.38h-21Zm10.53-13.79a10.74,10.74,0,0,0-.81-3.07,4.31,4.31,0,0,0-1.61-1.92,4.92,4.92,0,0,0-2.65-.65,4.49,4.49,0,0,0-2.65.73,5.24,5.24,0,0,0-1.65,1.92,9.47,9.47,0,0,0-.88,2.65,16.08,16.08,0,0,0-.27,2.92v1.61h10.83Q367.3,29.06,367.07,27.25Z" style="fill:#fffdfd"/><path d="M393.19,15.13V21h.15a11.54,11.54,0,0,1,3.29-4.28,10.89,10.89,0,0,1,6.25-2c.31,0,.55,0,.89,0s.71.05,1,.1v9.84q-.85-.07-1.65-.11t-1.65,0a10.32,10.32,0,0,0-2.77.39,7.36,7.36,0,0,0-2.54,1.27,6.34,6.34,0,0,0-1.84,2.31,8,8,0,0,0-.69,3.49V56.8h-9.44V15.21Z" style="fill:#fffdfd"/><path d="M413.77,15.05v9.17h.16a13.48,13.48,0,0,1,5.71-6.67,17.22,17.22,0,0,1,9-2.36A18,18,0,0,1,436.82,17a16.8,16.8,0,0,1,5.79,4.75,20.25,20.25,0,0,1,3.44,7,31.72,31.72,0,0,1,0,16.7,20.24,20.24,0,0,1-3.44,7A16.42,16.42,0,0,1,436.82,57a19.54,19.54,0,0,1-12.67,1.16A15.71,15.71,0,0,1,420,56.51a13.68,13.68,0,0,1-3.4-2.8,11.88,11.88,0,0,1-2.28-3.92h-.16v24h-5V15.05Zm27.61,15.61A17.63,17.63,0,0,0,439,25a13.23,13.23,0,0,0-4.2-4,11.61,11.61,0,0,0-6.15-1.56,15.09,15.09,0,0,0-7,1.44,12.1,12.1,0,0,0-4.48,3.83,15.11,15.11,0,0,0-2.36,5.59,32.25,32.25,0,0,0-.68,6.71,27,27,0,0,0,.76,6.35A16.55,16.55,0,0,0,417.4,49a13.32,13.32,0,0,0,4.48,4,13.52,13.52,0,0,0,6.75,1.56A11.59,11.59,0,0,0,434.79,53a13.2,13.2,0,0,0,4.2-4,17.58,17.58,0,0,0,2.4-5.63,27,27,0,0,0,0-12.7Z" style="fill:#fffdfd"/><path d="M459.64,16.4v9.67h.16a15.84,15.84,0,0,1,6-7.75,15.59,15.59,0,0,1,9.63-2.48v5a15.18,15.18,0,0,0-6.23.92,13.77,13.77,0,0,0-8,7.83,15.86,15.86,0,0,0-1.12,6v22h-5V16.4Z" style="fill:#fffdfd"/><path d="M504.5,17a18.2,18.2,0,0,1,6.11,4.72,20.41,20.41,0,0,1,3.75,6.91,28.43,28.43,0,0,1,0,16.86,20.42,20.42,0,0,1-3.75,6.91A17.79,17.79,0,0,1,504.5,57a21.15,21.15,0,0,1-16.7,0,17.76,17.76,0,0,1-6.11-4.67,20.36,20.36,0,0,1-3.76-6.91,28.43,28.43,0,0,1,0-16.86,20.35,20.35,0,0,1,3.76-6.91A18.18,18.18,0,0,1,487.8,17a20.71,20.71,0,0,1,16.7,0Zm-14.66,4a13.89,13.89,0,0,0-4.51,4,18.08,18.08,0,0,0-2.72,5.63,23,23,0,0,0,0,12.87,18.07,18.07,0,0,0,2.72,5.63,13.86,13.86,0,0,0,4.51,4,13.89,13.89,0,0,0,12.63,0,13.86,13.86,0,0,0,4.51-4,18.09,18.09,0,0,0,2.72-5.63,23,23,0,0,0,0-12.87A18.11,18.11,0,0,0,507,24.95a13.89,13.89,0,0,0-4.51-4,13.89,13.89,0,0,0-12.63,0Z" style="fill:#fffdfd"/><path d="M548.93,17A18.2,18.2,0,0,1,555,21.67a20.41,20.41,0,0,1,3.75,6.91,28.43,28.43,0,0,1,0,16.86A20.42,20.42,0,0,1,555,52.36,17.79,17.79,0,0,1,548.93,57a21.15,21.15,0,0,1-16.7,0,17.76,17.76,0,0,1-6.11-4.67,20.36,20.36,0,0,1-3.76-6.91,28.43,28.43,0,0,1,0-16.86,20.35,20.35,0,0,1,3.76-6.91A18.18,18.18,0,0,1,532.23,17a20.71,20.71,0,0,1,16.7,0Zm-14.66,4a13.89,13.89,0,0,0-4.51,4A18.08,18.08,0,0,0,527,30.58a23,23,0,0,0,0,12.87,18.07,18.07,0,0,0,2.72,5.63,13.86,13.86,0,0,0,4.51,4,13.89,13.89,0,0,0,12.63,0,13.86,13.86,0,0,0,4.51-4,18.09,18.09,0,0,0,2.72-5.63,23,23,0,0,0,0-12.87,18.11,18.11,0,0,0-2.72-5.63,13.89,13.89,0,0,0-4.51-4,13.89,13.89,0,0,0-12.63,0Z" style="fill:#fffdfd"/><path d="M575.34,24.66v33h-5v-33h-5V20.44h5V12.64a27.61,27.61,0,0,1,.4-4.87,9.51,9.51,0,0,1,1.52-3.84,7.32,7.32,0,0,1,3.08-2.48,12.26,12.26,0,0,1,5-.88q1.12,0,2.08.08t2.16.24V5.21l-1.92-.28a12.82,12.82,0,0,0-1.76-.12,6.5,6.5,0,0,0-3.2.64A3.9,3.9,0,0,0,576,7.17a6.58,6.58,0,0,0-.6,2.52q-.08,1.44-.08,3.12v7.62l5,0v4.24Z" style="fill:#fffdfd"/><path d="M492.2,72.09q.89-1.3,3.42-1.29l.49,0,.58,0v2.31l-.58,0h-.33q-1.17,0-1.39.6a11.72,11.72,0,0,0-.23,3h2.53v2h-2.53v13h-2.51v-13h-2.1v-2h2.1V74.4A4.52,4.52,0,0,1,492.2,72.09Z" style="fill:#fffdfd"/><path d="M510,82.64a1.37,1.37,0,0,0,1.17-.73,2.24,2.24,0,0,0,.17-1,2.07,2.07,0,0,0-.92-1.89,4.92,4.92,0,0,0-2.63-.59A3.33,3.33,0,0,0,505,79.54a3.55,3.55,0,0,0-.6,1.77H502a4.37,4.37,0,0,1,1.81-3.89,7.39,7.39,0,0,1,4-1.09,8.18,8.18,0,0,1,4.31,1,3.43,3.43,0,0,1,1.64,3.15v8.68a1.11,1.11,0,0,0,.16.63.78.78,0,0,0,.68.24l.38,0,.45-.06v1.87a7.13,7.13,0,0,1-.9.21,6.62,6.62,0,0,1-.84,0,2.08,2.08,0,0,1-1.9-.93,3.58,3.58,0,0,1-.44-1.39,6.46,6.46,0,0,1-2.22,1.76,6.89,6.89,0,0,1-3.19.74A4.76,4.76,0,0,1,502.53,91a4.22,4.22,0,0,1-1.33-3.18,4.09,4.09,0,0,1,1.31-3.25,6.23,6.23,0,0,1,3.43-1.42Zm-5.33,6.84a3,3,0,0,0,1.9.63,5.76,5.76,0,0,0,2.59-.62,3.47,3.47,0,0,0,2.11-3.36v-2a4.35,4.35,0,0,1-1.19.49,10,10,0,0,1-1.43.28l-1.53.2a5.9,5.9,0,0,0-2.07.58,2.24,2.24,0,0,0-1.17,2.11A2.08,2.08,0,0,0,504.65,89.48Z" style="fill:#fffdfd"/><path d="M520.81,76.69h2.51v2.14a8.43,8.43,0,0,1,1.63-1.62,4.91,4.91,0,0,1,2.84-.86,4.47,4.47,0,0,1,2.9.89,4.65,4.65,0,0,1,1.12,1.49,5.47,5.47,0,0,1,2-1.79,5.55,5.55,0,0,1,2.56-.58q3,0,4.14,2.19a7.18,7.18,0,0,1,.59,3.18v10h-2.63V81.3a2.44,2.44,0,0,0-.75-2.07,3,3,0,0,0-1.84-.56,3.64,3.64,0,0,0-2.57,1A4.39,4.39,0,0,0,532.22,83v8.76h-2.57V81.93a5.11,5.11,0,0,0-.37-2.24,2.23,2.23,0,0,0-2.15-1.06,3.72,3.72,0,0,0-2.61,1.11q-1.18,1.11-1.17,4v8h-2.53Z" style="fill:#fffdfd"/><path d="M547.69,71.09h2.58V74h-2.58Zm0,5.67h2.58v15h-2.58Z" style="fill:#fffdfd"/><path d="M557,71.09h2.53V91.76H557Z" style="fill:#fffdfd"/><path d="M575.68,76.69h2.8q-.53,1.45-2.38,6.61-1.38,3.88-2.31,6.34a42.81,42.81,0,0,1-3.09,7,3.53,3.53,0,0,1-3.09,1.27,6,6,0,0,1-.82,0,6.78,6.78,0,0,1-.71-.15V95.43a8.83,8.83,0,0,0,1,.23,3.69,3.69,0,0,0,.52,0,1.81,1.81,0,0,0,1-.23,2.11,2.11,0,0,0,.56-.57q.07-.11.51-1.15t.63-1.54L564.7,76.69h2.87l4,12.27Z" style="fill:#fffdfd"/><path d="M116.43,67.44s-11.32.06-14.06.06c-7.25,0-10-3.27-13.29-9.51L71.2,23.86,57.27,67.48s-7.91-.18-13.51-.1c-8.1.11-12-6.42-13.66-9.85S0,.07,0,.07,11.08-.05,14.36,0s8.11.54,12.33,8.28L47.86,47.2,62.59.21S71.48,0,73.82.06s7.65.1,11.58,8.23C88.48,14.68,116.43,67.44,116.43,67.44Z" style="fill:#fffdfd"/><path d="M131.2,22.73c-3.57,1.11-8,0-10.81-1.84a9.84,9.84,0,0,1-3.26-3.21C115.8,15.23,109.93,4.1,107.8,0h19.53s11-.42,11.11,12.07C138.47,20.14,133.7,21.82,131.2,22.73Z" style="fill:#fffdfd"/></g></g></svg>