<svg xmlns="http://www.w3.org/2000/svg" viewBox="0 0 148.64 80.33"><title>Resurs 9</title><g id="Lager_2" data-name="Lager 2"><g id="Lager_1-2" data-name="Lager 1"><path d="M0,0,42.78,76a8.43,8.43,0,0,0,7.39,4.37H71.81L30.18,5.18A10,10,0,0,0,21.39,0Z" style="fill:#fff"/><path d="M57.06,0,97.27,73.12a13.92,13.92,0,0,0,12.2,7.21h18.39L86.75,6.11A11.86,11.86,0,0,0,76.38,0Z" style="fill:#fff"/><path d="M112.74,0l10.49,18.51a16.4,16.4,0,0,0,3.49,4.37c3,2.61,8.41,5.23,15.47.48a14.18,14.18,0,0,0,6.27-9.23,10.9,10.9,0,0,0-3.06-9.83A14.88,14.88,0,0,0,134.68,0Z" style="fill:#fff"/></g></g></svg>