<svg xmlns="http://www.w3.org/2000/svg" viewBox="0 0 211.29 48.26"><title>Resurs 6</title><g id="Lager_2" data-name="Lager 2"><g id="Lager_1-2" data-name="Lager 1"><path d="M5.31,6.78,7.74,21.48h.08L11,6.78h5.13L18.9,21.48H19l2.5-14.71h5.08L22.1,27.49h-6L13.32,12.78h-.08L10.66,27.49H4.5L0,6.78Z" style="fill:#12100b"/><path d="M33.15,19.6a11.6,11.6,0,0,0,.13,1.79,5.83,5.83,0,0,0,.44,1.54A2.9,2.9,0,0,0,34.53,24a1.89,1.89,0,0,0,1.23.4,2.16,2.16,0,0,0,2-1,7.1,7.1,0,0,0,.85-2.93h4.77A8.3,8.3,0,0,1,41.43,26q-1.77,1.89-5.58,1.89a8.84,8.84,0,0,1-4.5-1A6,6,0,0,1,29,24.41,10,10,0,0,1,28,20.87q-.17-2-.17-3.93a27,27,0,0,1,.29-4,9.66,9.66,0,0,1,1.15-3.43,6.28,6.28,0,0,1,2.48-2.39,9,9,0,0,1,4.31-.89A8.37,8.37,0,0,1,39.87,7,5.72,5.72,0,0,1,42.2,9.11a8.87,8.87,0,0,1,1.15,3.31,27.78,27.78,0,0,1,.31,4.33v1.19H33.15Zm5.27-6.91a5.38,5.38,0,0,0-.4-1.54,2.16,2.16,0,0,0-.81-1,2.47,2.47,0,0,0-1.33-.33,2.25,2.25,0,0,0-1.33.37,2.62,2.62,0,0,0-.83,1,4.75,4.75,0,0,0-.44,1.33A8.06,8.06,0,0,0,33.15,14v.81h5.43Q38.54,13.59,38.42,12.69Z" style="fill:#12100b"/><path d="M46.39,12.63a7,7,0,0,1,.58-3,5.27,5.27,0,0,1,1.56-2,6.21,6.21,0,0,1,2.31-1.08,11.86,11.86,0,0,1,2.83-.33,13.13,13.13,0,0,1,3.85.46A5.27,5.27,0,0,1,59.79,8a4.4,4.4,0,0,1,1.1,2,10.72,10.72,0,0,1,.29,2.56v10.9a14.56,14.56,0,0,0,.14,2.27,7.89,7.89,0,0,0,.52,1.73h-4.7a.61.61,0,0,1-.56-.38,4.41,4.41,0,0,1-.22-.67q-.14-.56-.25-1.1H56a4.52,4.52,0,0,1-2.14,2.1,8.64,8.64,0,0,1-3.14.48,5.22,5.22,0,0,1-2.35-.48,4,4,0,0,1-1.54-1.33A5.94,5.94,0,0,1,46,24.2a8.49,8.49,0,0,1-.27-2.1A9.09,9.09,0,0,1,46,19.58,4.87,4.87,0,0,1,47,17.77a5.16,5.16,0,0,1,1.62-1.25A12.86,12.86,0,0,1,51,15.63l3-.81A3.22,3.22,0,0,0,55.63,14a2.36,2.36,0,0,0,.46-1.58,2.85,2.85,0,0,0-.56-1.87,2.35,2.35,0,0,0-1.91-.67,2.28,2.28,0,0,0-1.85.73,3,3,0,0,0-.62,2v.58H46.39Zm8.55,5.18a7.47,7.47,0,0,1-1.12.37,4.08,4.08,0,0,0-2.31,1.16,3.26,3.26,0,0,0-.69,2.19,4.2,4.2,0,0,0,.46,2,1.61,1.61,0,0,0,1.54.85,3.86,3.86,0,0,0,1.12-.17A3.12,3.12,0,0,0,55,23.68a2.94,2.94,0,0,0,.79-1,3.24,3.24,0,0,0,.31-1.46V17.13A4.8,4.8,0,0,1,54.94,17.81Z" style="fill:#12100b"/><path d="M71.42.85V6.78H74.5v3.62H71.42V21.6a3.15,3.15,0,0,0,.37,1.75,1.77,1.77,0,0,0,1.52.52l.62,0a1.37,1.37,0,0,0,.58-.15v3.69c-.58.08-1.16.12-1.71.16s-1.14.06-1.75.06a12.33,12.33,0,0,1-2.52-.21,2.56,2.56,0,0,1-1.5-.85,3.65,3.65,0,0,1-.71-1.68,14.74,14.74,0,0,1-.19-2.62V10.39h-2V6.78h2V.85Z" style="fill:#12100b"/><path d="M81.66,0V8.89h.08a5.38,5.38,0,0,1,5-2.66,5.25,5.25,0,0,1,3.91,1.39q1.37,1.39,1.37,4.5V27.49H86.74V13.21A3.55,3.55,0,0,0,86.2,11a2.16,2.16,0,0,0-1.73-.63q-2.81,0-2.81,3.43V27.49H76.35V0Z" style="fill:#12100b"/><path d="M100.14,19.6a11.6,11.6,0,0,0,.13,1.79,5.83,5.83,0,0,0,.44,1.54,2.9,2.9,0,0,0,.81,1.08,1.89,1.89,0,0,0,1.23.4,2.16,2.16,0,0,0,2-1,7.1,7.1,0,0,0,.85-2.93h4.77a8.3,8.3,0,0,1-1.92,5.5q-1.77,1.89-5.58,1.89a8.84,8.84,0,0,1-4.5-1,6,6,0,0,1-2.39-2.54A10,10,0,0,1,95,20.87q-.17-2-.17-3.93a27,27,0,0,1,.29-4,9.66,9.66,0,0,1,1.15-3.43,6.28,6.28,0,0,1,2.48-2.39,9,9,0,0,1,4.31-.89,8.37,8.37,0,0,1,3.79.75,5.72,5.72,0,0,1,2.33,2.12,8.87,8.87,0,0,1,1.15,3.31,27.78,27.78,0,0,1,.31,4.33v1.19H100.14Zm5.27-6.91a5.38,5.38,0,0,0-.4-1.54,2.16,2.16,0,0,0-.81-1,2.47,2.47,0,0,0-1.33-.33,2.25,2.25,0,0,0-1.33.37,2.62,2.62,0,0,0-.83,1,4.75,4.75,0,0,0-.44,1.33,8.06,8.06,0,0,0-.13,1.46v.81h5.43Q105.53,13.59,105.41,12.69Z" style="fill:#12100b"/><path d="M118.5,6.78V9.55h.08a7.53,7.53,0,0,1,2-2.41,4.42,4.42,0,0,1,2.81-.9l.48,0,.48.06V11.4l-.83-.06-.83,0a5.17,5.17,0,0,0-1.39.19,3.69,3.69,0,0,0-1.27.63,3.18,3.18,0,0,0-.92,1.16,4,4,0,0,0-.35,1.75V27.49h-5.31V6.78Z" style="fill:#12100b"/><path d="M129,6.33V11.4h.08a6.5,6.5,0,0,1,2.75-3.21A8.3,8.3,0,0,1,136.17,7a8.65,8.65,0,0,1,3.95.85,8.09,8.09,0,0,1,2.79,2.29,9.76,9.76,0,0,1,1.66,3.35,15.28,15.28,0,0,1,0,8,9.75,9.75,0,0,1-1.66,3.35,7.91,7.91,0,0,1-2.79,2.27,9.42,9.42,0,0,1-6.1.56,7.57,7.57,0,0,1-2-.81,6.59,6.59,0,0,1-1.64-1.35,5.72,5.72,0,0,1-1.1-1.89h-.08V34.8h-2.43V6.33Zm13.3,8.17a8.49,8.49,0,0,0-1.15-2.71,6.37,6.37,0,0,0-2-1.94,5.6,5.6,0,0,0-3-.75,7.27,7.27,0,0,0-3.35.69,5.83,5.83,0,0,0-2.16,1.85,7.28,7.28,0,0,0-1.14,2.69,15.54,15.54,0,0,0-.33,3.23,13,13,0,0,0,.37,3.06,8,8,0,0,0,1.19,2.71,6.42,6.42,0,0,0,2.16,1.94,6.51,6.51,0,0,0,3.25.75,5.59,5.59,0,0,0,3-.75,6.36,6.36,0,0,0,2-1.94,8.47,8.47,0,0,0,1.15-2.71,13,13,0,0,0,0-6.12Z" style="fill:#12100b"/><path d="M151.11,7.62v4.66h.08a7.63,7.63,0,0,1,2.87-3.73,7.51,7.51,0,0,1,4.64-1.19V9.78a7.32,7.32,0,0,0-3,.44A6.64,6.64,0,0,0,151.84,14a7.64,7.64,0,0,0-.54,2.91V27.49h-2.43V7.62Z" style="fill:#12100b"/><path d="M172.73,7.89a8.77,8.77,0,0,1,2.95,2.27,9.83,9.83,0,0,1,1.81,3.33,13.7,13.7,0,0,1,0,8.12,9.84,9.84,0,0,1-1.81,3.33,8.57,8.57,0,0,1-2.95,2.25,10.19,10.19,0,0,1-8,0,8.56,8.56,0,0,1-2.94-2.25,9.81,9.81,0,0,1-1.81-3.33,13.11,13.11,0,0,1-.62-4.06,13.12,13.12,0,0,1,.62-4.06,9.8,9.8,0,0,1,1.81-3.33,8.76,8.76,0,0,1,2.94-2.27,10,10,0,0,1,8,0Zm-7.06,1.92a6.69,6.69,0,0,0-2.18,1.93,8.71,8.71,0,0,0-1.31,2.71,11.07,11.07,0,0,0,0,6.2,8.71,8.71,0,0,0,1.31,2.71,6.68,6.68,0,0,0,2.18,1.92,6.69,6.69,0,0,0,6.08,0,6.68,6.68,0,0,0,2.18-1.92,8.72,8.72,0,0,0,1.31-2.71,11.06,11.06,0,0,0,0-6.2,8.72,8.72,0,0,0-1.31-2.71,6.69,6.69,0,0,0-2.18-1.93,6.69,6.69,0,0,0-6.08,0Z" style="fill:#12100b"/><path d="M194.14,7.89a8.77,8.77,0,0,1,2.95,2.27,9.83,9.83,0,0,1,1.81,3.33,13.7,13.7,0,0,1,0,8.12,9.84,9.84,0,0,1-1.81,3.33,8.57,8.57,0,0,1-2.95,2.25,10.19,10.19,0,0,1-8,0,8.56,8.56,0,0,1-2.94-2.25,9.81,9.81,0,0,1-1.81-3.33,13.11,13.11,0,0,1-.62-4.06,13.12,13.12,0,0,1,.62-4.06,9.8,9.8,0,0,1,1.81-3.33,8.76,8.76,0,0,1,2.94-2.27,10,10,0,0,1,8,0Zm-7.06,1.92a6.69,6.69,0,0,0-2.18,1.93,8.71,8.71,0,0,0-1.31,2.71,11.07,11.07,0,0,0,0,6.2,8.71,8.71,0,0,0,1.31,2.71,6.68,6.68,0,0,0,2.18,1.92,6.69,6.69,0,0,0,6.08,0,6.68,6.68,0,0,0,2.18-1.92,8.72,8.72,0,0,0,1.31-2.71,11.06,11.06,0,0,0,0-6.2,8.72,8.72,0,0,0-1.31-2.71,6.69,6.69,0,0,0-2.18-1.93,6.69,6.69,0,0,0-6.08,0Z" style="fill:#12100b"/><path d="M206.86,11.6V27.49h-2.43V11.6H201v-2h3.39V5.81a13.3,13.3,0,0,1,.19-2.35,4.58,4.58,0,0,1,.73-1.85A3.53,3.53,0,0,1,206.84.42,5.9,5.9,0,0,1,209.25,0q.54,0,1,0l1,.12V2.23l-.92-.13a6.18,6.18,0,0,0-.85-.06,3.13,3.13,0,0,0-1.54.31,1.88,1.88,0,0,0-.79.83,3.17,3.17,0,0,0-.29,1.21q0,.69,0,1.5V9.56h3.93v2Z" style="fill:#12100b"/><path d="M164.17,35.31a1.94,1.94,0,0,1,1.71-.65h.25l.29,0v1.16l-.29,0H166q-.59,0-.7.3a5.87,5.87,0,0,0-.11,1.53h1.27v1h-1.27v6.51h-1.26V38.65h-1.05v-1h1.05V36.46A2.26,2.26,0,0,1,164.17,35.31Z" style="fill:#12100b"/><path d="M173.08,40.59a.69.69,0,0,0,.59-.37,1.12,1.12,0,0,0,.08-.49,1,1,0,0,0-.46-.94A2.46,2.46,0,0,0,172,38.5a1.67,1.67,0,0,0-1.41.54,1.78,1.78,0,0,0-.3.89h-1.18A2.19,2.19,0,0,1,170,38a3.7,3.7,0,0,1,2-.55,4.1,4.1,0,0,1,2.16.51,1.72,1.72,0,0,1,.82,1.58v4.35a.56.56,0,0,0,.08.32.39.39,0,0,0,.34.12h.19l.23,0v.94a3.57,3.57,0,0,1-.45.11l-.42,0a1,1,0,0,1-1-.46,1.79,1.79,0,0,1-.22-.7,3.23,3.23,0,0,1-1.11.88,3.45,3.45,0,0,1-1.6.37,2.38,2.38,0,0,1-1.72-.64,2.12,2.12,0,0,1-.67-1.59,2.05,2.05,0,0,1,.66-1.63,3.12,3.12,0,0,1,1.72-.71ZM170.41,44a1.49,1.49,0,0,0,1,.32,2.89,2.89,0,0,0,1.3-.31,1.74,1.74,0,0,0,1.06-1.68v-1a2.18,2.18,0,0,1-.6.25,5,5,0,0,1-.72.14l-.77.1a3,3,0,0,0-1,.29,1.12,1.12,0,0,0-.59,1.06A1,1,0,0,0,170.41,44Z" style="fill:#12100b"/><path d="M178.5,37.61h1.26v1.07a4.22,4.22,0,0,1,.82-.81,2.46,2.46,0,0,1,1.42-.43,2.24,2.24,0,0,1,1.45.44,2.33,2.33,0,0,1,.56.75,2.74,2.74,0,0,1,1-.9,2.78,2.78,0,0,1,1.28-.29,2.1,2.1,0,0,1,2.07,1.1,3.6,3.6,0,0,1,.3,1.59v5h-1.32V39.92a1.22,1.22,0,0,0-.38-1,1.49,1.49,0,0,0-.92-.28,1.83,1.83,0,0,0-1.29.5,2.2,2.2,0,0,0-.54,1.67v4.39h-1.29V40.24a2.56,2.56,0,0,0-.18-1.12,1.12,1.12,0,0,0-1.08-.53,1.86,1.86,0,0,0-1.31.56,2.73,2.73,0,0,0-.59,2v4H178.5Z" style="fill:#12100b"/><path d="M192,34.81h1.29v1.44H192Zm0,2.84h1.29v7.52H192Z" style="fill:#12100b"/><path d="M196.66,34.81h1.27V45.16h-1.27Z" style="fill:#12100b"/><path d="M206,37.61h1.4q-.27.73-1.19,3.31-.69,1.95-1.16,3.17a21.45,21.45,0,0,1-1.55,3.52,1.77,1.77,0,0,1-1.55.63l-.41,0-.36-.08V47l.48.11.26,0a.91.91,0,0,0,.52-.12,1.06,1.06,0,0,0,.28-.28s.11-.23.25-.58l.32-.77-2.79-7.77h1.44l2,6.15Z" style="fill:#12100b"/></g></g></svg>