<?xml version="1.0" encoding="UTF-8" standalone="no"?>
<svg
   xmlns:dc="http://purl.org/dc/elements/1.1/"
   xmlns:cc="http://creativecommons.org/ns#"
   xmlns:rdf="http://www.w3.org/1999/02/22-rdf-syntax-ns#"
   xmlns:svg="http://www.w3.org/2000/svg"
   xmlns="http://www.w3.org/2000/svg"
   xmlns:sodipodi="http://sodipodi.sourceforge.net/DTD/sodipodi-0.dtd"
   xmlns:inkscape="http://www.inkscape.org/namespaces/inkscape"
   viewBox="0 0 198.69 185.81"
   id="svg2"
   version="1.1"
   inkscape:version="0.91 r13725"
   sodipodi:docname="bagtak.svg">
  <metadata
     id="metadata48">
    <rdf:RDF>
      <cc:Work
         rdf:about="">
        <dc:format>image/svg+xml</dc:format>
        <dc:type
           rdf:resource="http://purl.org/dc/dcmitype/StillImage" />
      </cc:Work>
    </rdf:RDF>
  </metadata>
  <sodipodi:namedview
     pagecolor="#ffffff"
     bordercolor="#666666"
     borderopacity="1"
     objecttolerance="10"
     gridtolerance="10"
     guidetolerance="10"
     inkscape:pageopacity="0"
     inkscape:pageshadow="2"
     inkscape:window-width="640"
     inkscape:window-height="480"
     id="namedview46"
     showgrid="false"
     inkscape:zoom="1.2701146"
     inkscape:cx="99.345001"
     inkscape:cy="92.904999"
     inkscape:window-x="0"
     inkscape:window-y="0"
     inkscape:window-maximized="0"
     inkscape:current-layer="Layer_1-2" />
  <defs
     id="defs4">
    <style
       id="style6">.cls-1,.cls-5{fill:#fff;}.cls-2{font-size:18px;font-family:ProximaNova-Regular, Proxima Nova;}.cls-3{fill:#f5f7f9;}.cls-3,.cls-4,.cls-5{stroke:#000;stroke-miterlimit:10;}.cls-4{fill:#d6d6d6;}.cls-5{stroke-width:0.75px;}</style>
  </defs>
  <title
     id="title8">Asset 10</title>
  <g
     id="Layer_2"
     data-name="Layer 2">
    <g
       id="Layer_1-2"
       data-name="Layer 1">
      <rect
         class="cls-1"
         width="198.69"
         height="185.81"
         id="rect12" />
      <polygon
         class="cls-3"
         points="97.45,129.25 97.45,94.51 174.19,58.7 174.19,86.45 174.19,86.45 "
         id="polygon16"
         transform="translate(2.3619915,37.004533)"
         style="fill:#f5f7f9;stroke:#000000;stroke-miterlimit:10" />
      <path
         class="cls-4"
         d="m 176.56199,95.704533 -76.749999,35.819997 0,0 c -0.26,-0.42 -8.9,-13.91 -17.75,-21.55 -8.85,-7.64 -24.35,-17.679997 -36.91,-15.069997 l 78.459999,-23.7 c 0,0 12.4,-4.5 29,1.86 16.6,6.36 23.95,22.64 23.95,22.64 z"
         id="path18"
         inkscape:connector-curvature="0"
         style="fill:#d6d6d6;stroke:#000000;stroke-miterlimit:10" />
      <path
         class="cls-3"
         d="m 99.811991,131.52453 0,34.73 -73,-27.91 0,-31.17 a 29.28,29.28 0 0 1 18.34,-12.269997 c 12.56,-2.61 27.91,7.309997 36.9,15.099997 8.99,7.79 17.49,21.09 17.75,21.51 z"
         id="path20"
         inkscape:connector-curvature="0"
         style="fill:#f5f7f9;stroke:#000000;stroke-miterlimit:10" />
      <polygon
         class="cls-5"
         points="37.87,101.34 37.87,95.02 42.75,96.85 42.75,103.17 42.75,103.17 "
         id="polygon22"
         transform="translate(2.3619915,37.004533)"
         style="fill:#ffffff;stroke:#000000;stroke-width:0.75px;stroke-miterlimit:10" />
      <polygon
         class="cls-5"
         points="30.41,98.25 30.41,92.15 35.3,93.98 35.3,100.08 35.3,100.08 "
         id="polygon24"
         transform="translate(2.3619915,37.004533)"
         style="fill:#ffffff;stroke:#000000;stroke-width:0.75px;stroke-miterlimit:10" />
      <polygon
         class="cls-5"
         points="45.29,104.31 45.29,97.73 50.54,99.71 50.54,106.28 50.54,106.28 "
         id="polygon26"
         transform="translate(2.3619915,37.004533)"
         style="fill:#ffffff;stroke:#000000;stroke-width:0.75px;stroke-miterlimit:10" />
      <polygon
         class="cls-5"
         points="53.1,107.2 53.1,100.55 58.59,102.61 58.59,109.26 58.59,109.26 "
         id="polygon28"
         transform="translate(2.3619915,37.004533)"
         style="fill:#ffffff;stroke:#000000;stroke-width:0.75px;stroke-miterlimit:10" />
      <polygon
         class="cls-5"
         points="68.87,112.39 68.87,106.06 73.75,107.89 73.75,114.22 73.75,114.22 "
         id="polygon30"
         transform="translate(2.3619915,37.004533)"
         style="fill:#ffffff;stroke:#000000;stroke-width:0.75px;stroke-miterlimit:10" />
      <polygon
         class="cls-5"
         points="76.29,115.35 76.29,108.78 81.55,110.75 81.55,117.32 81.55,117.32 "
         id="polygon32"
         transform="translate(2.3619915,37.004533)"
         style="fill:#ffffff;stroke:#000000;stroke-width:0.75px;stroke-miterlimit:10" />
      <polygon
         class="cls-5"
         points="84.1,118.24 84.1,111.6 89.6,113.66 89.6,120.3 89.6,120.3 "
         id="polygon34"
         transform="translate(2.3619915,37.004533)"
         style="fill:#ffffff;stroke:#000000;stroke-width:0.75px;stroke-miterlimit:10" />
      <polygon
         class="cls-5"
         points="103.79,119.54 103.77,113.54 110.29,110.48 110.29,115.92 110.29,115.92 "
         id="polygon36"
         transform="translate(2.3619915,37.004533)"
         style="fill:#ffffff;stroke:#000000;stroke-width:0.75px;stroke-miterlimit:10" />
      <polygon
         class="cls-5"
         points="113.11,114.26 113.09,109.01 118.8,106.32 118.8,111.09 118.8,111.09 "
         id="polygon38"
         transform="translate(2.3619915,37.004533)"
         style="fill:#ffffff;stroke:#000000;stroke-width:0.75px;stroke-miterlimit:10" />
      <polygon
         class="cls-5"
         points="135.58,103.16 135.56,98.24 140.91,95.72 140.91,100.19 140.91,100.19 "
         id="polygon40"
         transform="translate(2.3619915,37.004533)"
         style="fill:#ffffff;stroke:#000000;stroke-width:0.75px;stroke-miterlimit:10" />
      <polygon
         class="cls-5"
         points="143.22,98.83 143.21,94.52 147.9,92.31 147.9,96.22 147.9,96.22 "
         id="polygon42"
         transform="translate(2.3619915,37.004533)"
         style="fill:#ffffff;stroke:#000000;stroke-width:0.75px;stroke-miterlimit:10" />
      <polygon
         class="cls-5"
         points="156.62,96.15 156.41,81.59 170.39,75.06 170.39,88.56 170.39,88.56 "
         id="polygon44"
         transform="translate(2.3619915,37.004533)"
         style="fill:#ffffff;stroke:#000000;stroke-width:0.75px;stroke-miterlimit:10" />
    </g>
  </g>
</svg>
