<?xml version="1.0" encoding="UTF-8" standalone="no"?>
<svg
   xmlns:dc="http://purl.org/dc/elements/1.1/"
   xmlns:cc="http://creativecommons.org/ns#"
   xmlns:rdf="http://www.w3.org/1999/02/22-rdf-syntax-ns#"
   xmlns:svg="http://www.w3.org/2000/svg"
   xmlns="http://www.w3.org/2000/svg"
   xmlns:sodipodi="http://sodipodi.sourceforge.net/DTD/sodipodi-0.dtd"
   xmlns:inkscape="http://www.inkscape.org/namespaces/inkscape"
   viewBox="0 0 198.69 185.89"
   id="svg2"
   version="1.1"
   inkscape:version="0.91 r13725"
   sodipodi:docname="halvvalmat_sadeltak.svg">
  <metadata
     id="metadata42">
    <rdf:RDF>
      <cc:Work
         rdf:about="">
        <dc:format>image/svg+xml</dc:format>
        <dc:type
           rdf:resource="http://purl.org/dc/dcmitype/StillImage" />
      </cc:Work>
    </rdf:RDF>
  </metadata>
  <sodipodi:namedview
     pagecolor="#ffffff"
     bordercolor="#666666"
     borderopacity="1"
     objecttolerance="10"
     gridtolerance="10"
     guidetolerance="10"
     inkscape:pageopacity="0"
     inkscape:pageshadow="2"
     inkscape:window-width="640"
     inkscape:window-height="480"
     id="namedview40"
     showgrid="false"
     inkscape:zoom="1.269568"
     inkscape:cx="99.345001"
     inkscape:cy="92.945"
     inkscape:window-x="0"
     inkscape:window-y="0"
     inkscape:window-maximized="0"
     inkscape:current-layer="Layer_1-2" />
  <defs
     id="defs4">
    <style
       id="style6">.cls-1,.cls-4{fill:#fff;}.cls-2{fill:#f5f7f9;}.cls-2,.cls-3,.cls-4{stroke:#000;stroke-miterlimit:10;}.cls-3{fill:#d6d6d6;}.cls-4{stroke-width:0.75px;}.cls-5{font-size:18px;font-family:ProximaNova-Regular, Proxima Nova;}</style>
  </defs>
  <title
     id="title8">Asset 17</title>
  <g
     id="Layer_2"
     data-name="Layer 2">
    <g
       id="Layer_1-2"
       data-name="Layer 1">
      <rect
         class="cls-1"
         width="198.69"
         height="185.89"
         id="rect12" />
      <polygon
         class="cls-2"
         points="39.6,105.35 38.6,71.35 51.6,48.35 75.6,54.35 93.6,89.35 93.6,126.35 93.6,126.35 "
         id="polygon14"
         transform="translate(3.150678,44.897161)"
         style="fill:#f5f7f9;stroke:#000000;stroke-miterlimit:10" />
      <polygon
         class="cls-2"
         points="166.6,90.35 167.6,60.35 93.6,89.35 93.6,126.35 93.6,126.35 "
         id="polygon16"
         transform="translate(3.150678,44.897161)"
         style="fill:#f5f7f9;stroke:#000000;stroke-miterlimit:10" />
      <polygon
         class="cls-3"
         points="93.6,89.35 75.6,54.35 83.6,24.35 127.6,16.35 153.6,34.35 167.6,60.35 167.6,60.35 "
         id="polygon18"
         transform="translate(3.150678,44.897161)"
         style="fill:#d6d6d6;stroke:#000000;stroke-miterlimit:10" />
      <polygon
         class="cls-3"
         points="51.6,48.35 83.6,24.35 75.6,54.35 75.6,54.35 "
         id="polygon20"
         transform="translate(3.150678,44.897161)"
         style="fill:#d6d6d6;stroke:#000000;stroke-miterlimit:10" />
      <polygon
         class="cls-4"
         points="48.6,100.35 48.6,90.35 56.6,93.35 56.6,103.35 56.6,103.35 "
         id="polygon22"
         transform="translate(3.150678,44.897161)"
         style="fill:#ffffff;stroke:#000000;stroke-width:0.75px;stroke-miterlimit:10" />
      <polygon
         class="cls-4"
         points="61.3,105.62 61.3,94.85 69.91,98.08 69.91,108.85 69.91,108.85 "
         id="polygon24"
         transform="translate(3.150678,44.897161)"
         style="fill:#ffffff;stroke:#000000;stroke-width:0.75px;stroke-miterlimit:10" />
      <polygon
         class="cls-4"
         points="60.62,79.45 60.62,68.68 69.24,71.91 69.24,82.68 69.24,82.68 "
         id="polygon26"
         transform="translate(3.150678,44.897161)"
         style="fill:#ffffff;stroke:#000000;stroke-width:0.75px;stroke-miterlimit:10" />
      <polygon
         class="cls-4"
         points="74.1,110.79 74.1,99.54 83.1,102.91 83.1,114.16 83.1,114.16 "
         id="polygon28"
         transform="translate(3.150678,44.897161)"
         style="fill:#ffffff;stroke:#000000;stroke-width:0.75px;stroke-miterlimit:10" />
      <polygon
         class="cls-4"
         points="104.64,113.39 104.6,102.35 116.6,97.35 116.6,107.35 116.6,107.35 "
         id="polygon30"
         transform="translate(3.150678,44.897161)"
         style="fill:#ffffff;stroke:#000000;stroke-width:0.75px;stroke-miterlimit:10" />
      <polygon
         class="cls-4"
         points="132.14,100.39 132.11,92.1 141.11,88.35 141.11,95.85 141.11,95.85 "
         id="polygon32"
         transform="translate(3.150678,44.897161)"
         style="fill:#ffffff;stroke:#000000;stroke-width:0.75px;stroke-miterlimit:10" />
      <polygon
         class="cls-4"
         points="154.6,96.39 154.6,82.35 161.11,79.35 161.11,92.85 161.11,92.85 "
         id="polygon34"
         transform="translate(3.150678,44.897161)"
         style="fill:#ffffff;stroke:#000000;stroke-width:0.75px;stroke-miterlimit:10" />
    </g>
  </g>
</svg>
