<?xml version="1.0" encoding="UTF-8" standalone="no"?>
<svg
   xmlns:dc="http://purl.org/dc/elements/1.1/"
   xmlns:cc="http://creativecommons.org/ns#"
   xmlns:rdf="http://www.w3.org/1999/02/22-rdf-syntax-ns#"
   xmlns:svg="http://www.w3.org/2000/svg"
   xmlns="http://www.w3.org/2000/svg"
   xmlns:sodipodi="http://sodipodi.sourceforge.net/DTD/sodipodi-0.dtd"
   xmlns:inkscape="http://www.inkscape.org/namespaces/inkscape"
   viewBox="0 0 198.69 185.89"
   id="svg2"
   version="1.1"
   inkscape:version="0.91 r13725"
   sodipodi:docname="halvvalmat_mansardtak.svg">
  <metadata
     id="metadata42">
    <rdf:RDF>
      <cc:Work
         rdf:about="">
        <dc:format>image/svg+xml</dc:format>
        <dc:type
           rdf:resource="http://purl.org/dc/dcmitype/StillImage" />
      </cc:Work>
    </rdf:RDF>
  </metadata>
  <sodipodi:namedview
     pagecolor="#ffffff"
     bordercolor="#666666"
     borderopacity="1"
     objecttolerance="10"
     gridtolerance="10"
     guidetolerance="10"
     inkscape:pageopacity="0"
     inkscape:pageshadow="2"
     inkscape:window-width="640"
     inkscape:window-height="480"
     id="namedview40"
     showgrid="false"
     inkscape:zoom="1.269568"
     inkscape:cx="99.345001"
     inkscape:cy="92.945"
     inkscape:window-x="0"
     inkscape:window-y="0"
     inkscape:window-maximized="0"
     inkscape:current-layer="Layer_1-2" />
  <defs
     id="defs4">
    <style
       id="style6">.cls-1,.cls-5{fill:#fff;}.cls-2{font-size:18px;font-family:ProximaNova-Regular, Proxima Nova;}.cls-3{fill:#f5f7f9;}.cls-3,.cls-4,.cls-5{stroke:#000;stroke-miterlimit:10;}.cls-4{fill:#d6d6d6;}.cls-5{stroke-width:0.75px;}</style>
  </defs>
  <title
     id="title8">Asset 7</title>
  <g
     id="Layer_2"
     data-name="Layer 2">
    <g
       id="Layer_1-2"
       data-name="Layer 1">
      <rect
         class="cls-1"
         width="198.69"
         height="185.89"
         id="rect12" />
      <polygon
         class="cls-3"
         points="91.46,134.93 29.43,108.1 29.43,81.33 36.38,57.39 78.85,70 91.46,103.9 91.46,103.9 "
         id="polygon18"
         transform="translate(4.7260169,33.082119)"
         style="fill:#f5f7f9;stroke:#000000;stroke-miterlimit:10" />
      <polygon
         class="cls-3"
         points="91.46,134.93 91.46,103.9 168.7,70 168.7,95.21 168.7,95.21 "
         id="polygon20"
         transform="translate(4.7260169,33.082119)"
         style="fill:#f5f7f9;stroke:#000000;stroke-miterlimit:10" />
      <polygon
         class="cls-4"
         points="91.46,103.9 78.85,69.75 159.41,43.34 168.7,70 168.7,70 "
         id="polygon22"
         transform="translate(4.7260169,33.082119)"
         style="fill:#d6d6d6;stroke:#000000;stroke-miterlimit:10" />
      <polygon
         class="cls-4"
         points="78.85,69.75 77.31,30.44 123.78,20.07 159.41,43.34 159.41,43.34 "
         id="polygon24"
         transform="translate(4.7260169,33.082119)"
         style="fill:#d6d6d6;stroke:#000000;stroke-miterlimit:10" />
      <polygon
         class="cls-4"
         points="36.38,57.39 77.31,30.44 78.85,69.75 78.85,69.75 "
         id="polygon26"
         transform="translate(4.7260169,33.082119)"
         style="fill:#d6d6d6;stroke:#000000;stroke-miterlimit:10" />
      <polygon
         class="cls-5"
         points="41.62,107.11 41.62,97.13 49.6,100.13 49.6,110.41 49.6,110.41 "
         id="polygon28"
         transform="translate(4.7260169,33.082119)"
         style="fill:#ffffff;stroke:#000000;stroke-width:0.75px;stroke-miterlimit:10" />
      <polygon
         class="cls-5"
         points="54.28,112.37 54.28,101.63 62.88,104.85 62.88,115.97 62.88,115.97 "
         id="polygon30"
         transform="translate(4.7260169,33.082119)"
         style="fill:#ffffff;stroke:#000000;stroke-width:0.75px;stroke-miterlimit:10" />
      <polygon
         class="cls-5"
         points="67.07,117.53 67.07,106.3 76.05,109.67 76.05,121.35 76.05,121.35 "
         id="polygon32"
         transform="translate(4.7260169,33.082119)"
         style="fill:#ffffff;stroke:#000000;stroke-width:0.75px;stroke-miterlimit:10" />
      <polygon
         class="cls-5"
         points="106.23,121.4 106.19,107.91 120.85,101.8 120.85,114.02 120.85,114.02 "
         id="polygon34"
         transform="translate(4.7260169,33.082119)"
         style="fill:#ffffff;stroke:#000000;stroke-width:0.75px;stroke-miterlimit:10" />
      <polygon
         class="cls-5"
         points="133.12,107.99 133.09,96.85 144.09,92.27 144.09,102.46 144.09,102.46 "
         id="polygon36"
         transform="translate(4.7260169,33.082119)"
         style="fill:#ffffff;stroke:#000000;stroke-width:0.75px;stroke-miterlimit:10" />
      <polygon
         class="cls-5"
         points="154.83,102.31 154.83,88.34 161.31,85.36 161.31,98.79 161.31,98.79 "
         id="polygon38"
         transform="translate(4.7260169,33.082119)"
         style="fill:#ffffff;stroke:#000000;stroke-width:0.75px;stroke-miterlimit:10" />
    </g>
  </g>
</svg>
