<?xml version="1.0" encoding="UTF-8" standalone="no"?>
<svg
   xmlns:dc="http://purl.org/dc/elements/1.1/"
   xmlns:cc="http://creativecommons.org/ns#"
   xmlns:rdf="http://www.w3.org/1999/02/22-rdf-syntax-ns#"
   xmlns:svg="http://www.w3.org/2000/svg"
   xmlns="http://www.w3.org/2000/svg"
   xmlns:sodipodi="http://sodipodi.sourceforge.net/DTD/sodipodi-0.dtd"
   xmlns:inkscape="http://www.inkscape.org/namespaces/inkscape"
   viewBox="0 0 198.69 184.63"
   id="svg2"
   version="1.1"
   inkscape:version="0.91 r13725"
   sodipodi:docname="helvalmat_mansardtak.svg">
  <metadata
     id="metadata44">
    <rdf:RDF>
      <cc:Work
         rdf:about="">
        <dc:format>image/svg+xml</dc:format>
        <dc:type
           rdf:resource="http://purl.org/dc/dcmitype/StillImage" />
      </cc:Work>
    </rdf:RDF>
  </metadata>
  <sodipodi:namedview
     pagecolor="#ffffff"
     bordercolor="#666666"
     borderopacity="1"
     objecttolerance="10"
     gridtolerance="10"
     guidetolerance="10"
     inkscape:pageopacity="0"
     inkscape:pageshadow="2"
     inkscape:window-width="640"
     inkscape:window-height="480"
     id="namedview42"
     showgrid="false"
     inkscape:zoom="1.2782321"
     inkscape:cx="99.345001"
     inkscape:cy="92.315002"
     inkscape:window-x="0"
     inkscape:window-y="0"
     inkscape:window-maximized="0"
     inkscape:current-layer="Layer_1-2" />
  <defs
     id="defs4">
    <style
       id="style6">.cls-1,.cls-5{fill:#fff;}.cls-2{font-size:18px;font-family:ProximaNova-Regular, Proxima Nova;}.cls-3{fill:#f5f7f9;}.cls-3,.cls-4,.cls-5{stroke:#000;stroke-miterlimit:10;}.cls-4{fill:#d6d6d6;}.cls-5{stroke-width:0.75px;}</style>
  </defs>
  <title
     id="title8">Asset 13</title>
  <g
     id="Layer_2"
     data-name="Layer 2">
    <g
       id="Layer_1-2"
       data-name="Layer 1">
      <rect
         class="cls-1"
         width="198.69"
         height="184.63"
         id="rect12" />
      <polygon
         class="cls-3"
         points="87.05,129.75 87.05,102.06 174.93,63.77 174.04,85.36 174.04,85.36 "
         id="polygon18"
         transform="translate(2.3469916,36.769535)"
         style="fill:#f5f7f9;stroke:#000000;stroke-miterlimit:10" />
      <polygon
         class="cls-3"
         points="28.98,106 28.98,82.09 87.05,102.06 87.05,129.75 87.05,129.75 "
         id="polygon20"
         transform="translate(2.3469916,36.769535)"
         style="fill:#f5f7f9;stroke:#000000;stroke-miterlimit:10" />
      <polygon
         class="cls-4"
         points="87.05,102.06 93.5,62.89 153.12,43.13 174.93,63.77 174.93,63.77 "
         id="polygon22"
         transform="translate(2.3469916,36.769535)"
         style="fill:#d6d6d6;stroke:#000000;stroke-miterlimit:10" />
      <polygon
         class="cls-4"
         points="28.98,82.09 52.79,52.44 93.5,62.89 87.05,102.06 87.05,102.06 "
         id="polygon24"
         transform="translate(2.3469916,36.769535)"
         style="fill:#d6d6d6;stroke:#000000;stroke-miterlimit:10" />
      <polygon
         class="cls-4"
         points="52.79,52.44 77.59,38.69 99.23,27.2 93.5,62.89 93.5,62.89 "
         id="polygon26"
         transform="translate(2.3469916,36.769535)"
         style="fill:#d6d6d6;stroke:#000000;stroke-miterlimit:10" />
      <polygon
         class="cls-4"
         points="93.5,62.89 99.23,27.2 109.64,24.26 153.12,43.13 153.12,43.13 "
         id="polygon28"
         transform="translate(2.3469916,36.769535)"
         style="fill:#d6d6d6;stroke:#000000;stroke-miterlimit:10" />
      <polygon
         class="cls-5"
         points="39.31,104.88 39.31,94.42 47.68,97.55 47.68,108.3 47.68,108.3 "
         id="polygon30"
         transform="translate(2.3469916,36.769535)"
         style="fill:#ffffff;stroke:#000000;stroke-width:0.75px;stroke-miterlimit:10" />
      <polygon
         class="cls-5"
         points="52.59,110.39 52.59,99.12 61.6,102.5 61.6,114.05 61.6,114.05 "
         id="polygon32"
         transform="translate(2.3469916,36.769535)"
         style="fill:#ffffff;stroke:#000000;stroke-width:0.75px;stroke-miterlimit:10" />
      <polygon
         class="cls-5"
         points="65.98,115.79 65.98,104.03 75.4,107.56 75.4,119.6 75.4,119.6 "
         id="polygon34"
         transform="translate(2.3469916,36.769535)"
         style="fill:#ffffff;stroke:#000000;stroke-width:0.75px;stroke-miterlimit:10" />
      <polygon
         class="cls-5"
         points="123.85,104.78 123.83,97.04 132.39,92.94 132.39,100.43 132.39,100.43 "
         id="polygon36"
         transform="translate(2.3469916,36.769535)"
         style="fill:#ffffff;stroke:#000000;stroke-width:0.75px;stroke-miterlimit:10" />
      <polygon
         class="cls-5"
         points="99.34,116.28 99.34,107.42 109.1,102.75 109.1,111.22 109.1,111.22 "
         id="polygon38"
         transform="translate(2.3469916,36.769535)"
         style="fill:#ffffff;stroke:#000000;stroke-width:0.75px;stroke-miterlimit:10" />
      <polygon
         class="cls-5"
         points="144.5,100.1 144.5,88.3 149.96,85.78 149.96,97.14 149.96,97.14 "
         id="polygon40"
         transform="translate(2.3469916,36.769535)"
         style="fill:#ffffff;stroke:#000000;stroke-width:0.75px;stroke-miterlimit:10" />
    </g>
  </g>
</svg>
