<?xml version="1.0" encoding="UTF-8" standalone="no"?>
<svg
   xmlns:dc="http://purl.org/dc/elements/1.1/"
   xmlns:cc="http://creativecommons.org/ns#"
   xmlns:rdf="http://www.w3.org/1999/02/22-rdf-syntax-ns#"
   xmlns:svg="http://www.w3.org/2000/svg"
   xmlns="http://www.w3.org/2000/svg"
   xmlns:sodipodi="http://sodipodi.sourceforge.net/DTD/sodipodi-0.dtd"
   xmlns:inkscape="http://www.inkscape.org/namespaces/inkscape"
   viewBox="0 0 198.69 186.66"
   id="svg2"
   version="1.1"
   inkscape:version="0.91 r13725"
   sodipodi:docname="helvalmat_sadeltak.svg">
  <metadata
     id="metadata40">
    <rdf:RDF>
      <cc:Work
         rdf:about="">
        <dc:format>image/svg+xml</dc:format>
        <dc:type
           rdf:resource="http://purl.org/dc/dcmitype/StillImage" />
      </cc:Work>
    </rdf:RDF>
  </metadata>
  <sodipodi:namedview
     pagecolor="#ffffff"
     bordercolor="#666666"
     borderopacity="1"
     objecttolerance="10"
     gridtolerance="10"
     guidetolerance="10"
     inkscape:pageopacity="0"
     inkscape:pageshadow="2"
     inkscape:window-width="640"
     inkscape:window-height="480"
     id="namedview38"
     showgrid="false"
     inkscape:zoom="1.2643308"
     inkscape:cx="99.345001"
     inkscape:cy="93.330002"
     inkscape:window-x="0"
     inkscape:window-y="0"
     inkscape:window-maximized="0"
     inkscape:current-layer="Layer_1-2" />
  <defs
     id="defs4">
    <style
       id="style6">.cls-1,.cls-5{fill:#fff;}.cls-2{font-size:18px;font-family:ProximaNova-Regular, Proxima Nova;}.cls-3{fill:#f5f7f9;}.cls-3,.cls-4,.cls-5{stroke:#000;stroke-miterlimit:10;}.cls-4{fill:#d6d6d6;}.cls-5{stroke-width:0.75px;}</style>
  </defs>
  <title
     id="title8">Asset 5</title>
  <g
     id="Layer_2"
     data-name="Layer 2">
    <g
       id="Layer_1-2"
       data-name="Layer 1">
      <rect
         class="cls-1"
         width="198.69"
         height="186.66"
         id="rect12" />
      <polygon
         class="cls-3"
         points="96.09,132.5 96.09,94.5 167.09,66.5 167.09,95.5 167.09,95.5 "
         id="polygon18"
         transform="translate(3.9546611,38.755679)"
         style="fill:#f5f7f9;stroke:#000000;stroke-miterlimit:10" />
      <polygon
         class="cls-3"
         points="43.09,110.5 43.09,77.5 96.09,94.5 96.09,132.5 96.09,132.5 "
         id="polygon20"
         transform="translate(3.9546611,38.755679)"
         style="fill:#f5f7f9;stroke:#000000;stroke-miterlimit:10" />
      <polygon
         class="cls-4"
         points="124.09,24.5 167.09,66.5 96.09,94.5 92.09,29.5 92.09,29.5 "
         id="polygon22"
         transform="translate(3.9546611,38.755679)"
         style="fill:#d6d6d6;stroke:#000000;stroke-miterlimit:10" />
      <polygon
         class="cls-4"
         points="43.09,77.5 92.09,29.5 96.09,94.5 96.09,94.5 "
         id="polygon24"
         transform="translate(3.9546611,38.755679)"
         style="fill:#d6d6d6;stroke:#000000;stroke-miterlimit:10" />
      <polygon
         class="cls-5"
         points="52.09,105.5 52.09,95.5 60.09,98.5 60.09,108.5 60.09,108.5 "
         id="polygon26"
         transform="translate(3.9546611,38.755679)"
         style="fill:#ffffff;stroke:#000000;stroke-width:0.75px;stroke-miterlimit:10" />
      <polygon
         class="cls-5"
         points="64.78,110.77 64.78,100 73.4,103.23 73.4,114 73.4,114 "
         id="polygon28"
         transform="translate(3.9546611,38.755679)"
         style="fill:#ffffff;stroke:#000000;stroke-width:0.75px;stroke-miterlimit:10" />
      <polygon
         class="cls-5"
         points="77.59,115.93 77.59,104.68 86.59,108.06 86.59,119.31 86.59,119.31 "
         id="polygon30"
         transform="translate(3.9546611,38.755679)"
         style="fill:#ffffff;stroke:#000000;stroke-width:0.75px;stroke-miterlimit:10" />
      <polygon
         class="cls-5"
         points="108.13,118.54 108.09,107.5 120.09,102.5 120.09,112.5 120.09,112.5 "
         id="polygon32"
         transform="translate(3.9546611,38.755679)"
         style="fill:#ffffff;stroke:#000000;stroke-width:0.75px;stroke-miterlimit:10" />
      <polygon
         class="cls-5"
         points="135.62,104.53 135.59,96.25 144.6,92.5 144.6,100 144.6,100 "
         id="polygon34"
         transform="translate(3.9546611,38.755679)"
         style="fill:#ffffff;stroke:#000000;stroke-width:0.75px;stroke-miterlimit:10" />
      <polygon
         class="cls-5"
         points="155.09,101.53 155.09,87.5 161.6,84.5 161.6,98 161.6,98 "
         id="polygon36"
         transform="translate(3.9546611,38.755679)"
         style="fill:#ffffff;stroke:#000000;stroke-width:0.75px;stroke-miterlimit:10" />
    </g>
  </g>
</svg>
