<svg xmlns="http://www.w3.org/2000/svg" viewBox="0 0 198.69 185.89"><defs><style>.cls-1{fill:#fdffff;}.cls-2{fill:#f4f6f8;}.cls-2,.cls-3,.cls-4{stroke:#000;stroke-miterlimit:10;}.cls-3{fill:#d5d5d5;}.cls-4{fill:#fff;}</style></defs><title>Asset 31</title><g id="Layer_2" data-name="Layer 2"><g id="Layer_1-2" data-name="Layer 1"><rect class="cls-1" width="198.69" height="185.89" rx="0.16" ry="0.16"/><path class="cls-2" d="M77.77,118.48v41a.36.36,0,0,1-.47.34L24.79,142.11a.15.15,0,0,1-.11-.15L24,108a.15.15,0,0,1,0-.11L35.53,94.24,39.93,89l4.63-5.49a.16.16,0,0,1,.24,0l32.92,34.84A.16.16,0,0,1,77.77,118.48Z"/><path class="cls-3" d="M109.22,99,77.88,118.35a.15.15,0,0,1-.2,0L44.87,83.61a.17.17,0,0,1,.08-.28l64.92-15.51a.16.16,0,0,1,.21.16l-.78,30.89A.16.16,0,0,1,109.22,99Z"/><path class="cls-3" d="M161.59,106.21,109.44,99a.16.16,0,0,1-.14-.16l.78-30.88a.16.16,0,0,1,.17-.16l60,3.09a.55.55,0,0,1,.51.69l-9,34.53A.16.16,0,0,1,161.59,106.21Z"/><path class="cls-2" d="M159.64,147.85l-50.22-14.31a.16.16,0,0,1-.12-.15V99.15a.16.16,0,0,1,.18-.16l52.11,7.22a.16.16,0,0,1,.14.17l-1.88,41.32A.16.16,0,0,1,159.64,147.85Z"/><path class="cls-2" d="M109.24,133.56,78.15,159.64a.23.23,0,0,1-.38-.18V118.51a.16.16,0,0,1,.08-.14l31.2-19.25a.16.16,0,0,1,.25.13v34.18A.16.16,0,0,1,109.24,133.56Z"/><path class="cls-2" d="M159.9,146.53l1.83-40.28v0l8.95-34.49a.16.16,0,0,1,.32,0l3.68,27.2v0l-1.46,19.41v0l-12.81,28.21A.27.27,0,0,1,159.9,146.53Z"/><path class="cls-3" d="M139.68,69.29l-28.4-1.46a.16.16,0,0,1,0-.32l22.11-4.91a.17.17,0,0,1,.15,0L139.8,69A.16.16,0,0,1,139.68,69.29Z"/><path class="cls-3" d="M109,68,44.73,83.38a.24.24,0,0,0-.09.06L40,89a.17.17,0,0,1-.15.05l-4.31-.59-3.69-.51a.35.35,0,0,1-.16-.63L61.17,65.61a.2.2,0,0,1,.11,0l47.64,2.13A.17.17,0,0,1,109,68Z"/><path class="cls-4" d="M60,131.86,38,125.8a.16.16,0,0,1-.12-.15V117a.16.16,0,0,1,.2-.16l22,5.28a.17.17,0,0,1,.13.16v9.38A.17.17,0,0,1,60,131.86Z"/><path class="cls-4" d="M60,145.12l-22-6.69a.16.16,0,0,1-.12-.16v-8.59a.17.17,0,0,1,.21-.16l22,6.59a.16.16,0,0,1,.12.16V145A.17.17,0,0,1,60,145.12Z"/><path class="cls-4" d="M142.72,123.72l-22-4.69a.15.15,0,0,1-.13-.16l-.09-8.12a.17.17,0,0,1,.2-.16l22.44,4.14a.18.18,0,0,1,.14.17l-.41,8.66A.16.16,0,0,1,142.72,123.72Z"/><path class="cls-4" d="M142.25,134.75,120.17,129a.17.17,0,0,1-.12-.16v-6.48a.16.16,0,0,1,.2-.16l22.53,5.39a.17.17,0,0,1,.13.17l-.45,6.83A.16.16,0,0,1,142.25,134.75Z"/><path class="cls-4" d="M88.89,132.68,83.73,136a.16.16,0,0,0-.08.14v7.69a.17.17,0,0,0,.27.13l5.15-3.83a.15.15,0,0,0,.07-.13v-7.21A.16.16,0,0,0,88.89,132.68Z"/><path class="cls-4" d="M99.87,125.82,94.73,129a.17.17,0,0,0-.08.14v7.69a.17.17,0,0,0,.27.13l5.16-3.83a.19.19,0,0,0,.07-.14l0-7.06A.17.17,0,0,0,99.87,125.82Z"/><path class="cls-2" d="M39.74,89.25l-8.46,10a.16.16,0,0,1-.29-.1V88.33a.46.46,0,0,1,.52-.46L39.63,89A.16.16,0,0,1,39.74,89.25Z"/></g></g></svg>