<?xml version="1.0" encoding="UTF-8" standalone="no"?>
<svg
   xmlns:dc="http://purl.org/dc/elements/1.1/"
   xmlns:cc="http://creativecommons.org/ns#"
   xmlns:rdf="http://www.w3.org/1999/02/22-rdf-syntax-ns#"
   xmlns:svg="http://www.w3.org/2000/svg"
   xmlns="http://www.w3.org/2000/svg"
   xmlns:sodipodi="http://sodipodi.sourceforge.net/DTD/sodipodi-0.dtd"
   xmlns:inkscape="http://www.inkscape.org/namespaces/inkscape"
   viewBox="0 0 198.69 185.89"
   id="svg2"
   version="1.1"
   inkscape:version="0.91 r13725"
   sodipodi:docname="kyrktorn.svg">
  <metadata
     id="metadata50">
    <rdf:RDF>
      <cc:Work
         rdf:about="">
        <dc:format>image/svg+xml</dc:format>
        <dc:type
           rdf:resource="http://purl.org/dc/dcmitype/StillImage" />
      </cc:Work>
    </rdf:RDF>
  </metadata>
  <sodipodi:namedview
     pagecolor="#ffffff"
     bordercolor="#666666"
     borderopacity="1"
     objecttolerance="10"
     gridtolerance="10"
     guidetolerance="10"
     inkscape:pageopacity="0"
     inkscape:pageshadow="2"
     inkscape:window-width="640"
     inkscape:window-height="480"
     id="namedview48"
     showgrid="false"
     inkscape:zoom="1.269568"
     inkscape:cx="99.345001"
     inkscape:cy="92.945"
     inkscape:window-x="0"
     inkscape:window-y="0"
     inkscape:window-maximized="0"
     inkscape:current-layer="Layer_1-2" />
  <defs
     id="defs4">
    <style
       id="style6">.cls-1,.cls-6{fill:#fff;}.cls-2{font-size:18px;font-family:ProximaNova-Regular, Proxima Nova;}.cls-3{letter-spacing:-0.06em;}.cls-4{fill:#f5f7f9;}.cls-4,.cls-5,.cls-6{stroke:#000;stroke-miterlimit:10;}.cls-5{fill:#d6d6d6;}.cls-6{stroke-width:0.75px;}</style>
  </defs>
  <title
     id="title8">Asset 15</title>
  <g
     id="Layer_2"
     data-name="Layer 2">
    <g
       id="Layer_1-2"
       data-name="Layer 1">
      <rect
         class="cls-1"
         width="198.69"
         height="185.89"
         id="rect12" />
      <polygon
         class="cls-4"
         points="157.42,111.56 157.42,111.56 91.19,144.67 91.19,110.69 91.19,78.49 110.36,72.29 110.36,103.62 157.42,86.29 "
         id="polygon20"
         transform="translate(0,26)"
         style="fill:#f5f7f9;stroke:#000000;stroke-miterlimit:10" />
      <polygon
         class="cls-5"
         points="157.42,86.29 110.3,104.22 110.36,83.72 149.8,70.16 157.42,86.29 "
         id="polygon22"
         transform="translate(0,26)"
         style="fill:#d6d6d6;stroke:#000000;stroke-miterlimit:10" />
      <polygon
         class="cls-4"
         points="91.19,144.67 54.6,130.29 55.56,65.41 91.19,78.49 91.19,144.67 "
         id="polygon24"
         transform="translate(0,26)"
         style="fill:#f5f7f9;stroke:#000000;stroke-miterlimit:10" />
      <polygon
         class="cls-6"
         points="65.48,127.53 59.47,125.28 59.47,117.77 65.48,120.02 65.48,127.53 "
         id="polygon26"
         transform="translate(0,26)"
         style="fill:#ffffff;stroke:#000000;stroke-width:0.75px;stroke-miterlimit:10" />
      <polygon
         class="cls-6"
         points="74.67,131.23 68.4,128.88 68.4,121.03 74.67,123.39 74.67,131.23 "
         id="polygon28"
         transform="translate(0,26)"
         style="fill:#ffffff;stroke:#000000;stroke-width:0.75px;stroke-miterlimit:10" />
      <polygon
         class="cls-6"
         points="84.95,134.84 78.68,132.49 78.68,124.65 84.95,127 84.95,134.84 "
         id="polygon30"
         transform="translate(0,26)"
         style="fill:#ffffff;stroke:#000000;stroke-width:0.75px;stroke-miterlimit:10" />
      <polygon
         class="cls-6"
         points="65.48,86.58 59.47,84.32 59.47,76.82 65.48,79.07 65.48,86.58 "
         id="polygon32"
         transform="translate(0,26)"
         style="fill:#ffffff;stroke:#000000;stroke-width:0.75px;stroke-miterlimit:10" />
      <polygon
         class="cls-6"
         points="85.82,94.52 79.55,92.17 79.55,84.33 85.82,86.68 85.82,94.52 "
         id="polygon34"
         transform="translate(0,26)"
         style="fill:#ffffff;stroke:#000000;stroke-width:0.75px;stroke-miterlimit:10" />
      <polygon
         class="cls-6"
         points="75.36,90.59 69.09,88.24 69.09,80.4 75.36,82.75 75.36,90.59 "
         id="polygon36"
         transform="translate(0,26)"
         style="fill:#ffffff;stroke:#000000;stroke-width:0.75px;stroke-miterlimit:10" />
      <polygon
         class="cls-6"
         points="110.36,126.37 99.94,131.64 99.91,122.01 110.36,117.66 110.36,126.37 "
         id="polygon38"
         transform="translate(0,26)"
         style="fill:#ffffff;stroke:#000000;stroke-width:0.75px;stroke-miterlimit:10" />
      <polygon
         class="cls-6"
         points="131.72,116.36 123.9,120.3 123.87,113.09 131.72,109.82 131.72,116.36 "
         id="polygon40"
         transform="translate(0,26)"
         style="fill:#ffffff;stroke:#000000;stroke-width:0.75px;stroke-miterlimit:10" />
      <polygon
         class="cls-6"
         points="152.63,113.74 146.96,116.82 146.96,104.59 152.63,101.97 152.63,113.74 "
         id="polygon42"
         transform="translate(0,26)"
         style="fill:#ffffff;stroke:#000000;stroke-width:0.75px;stroke-miterlimit:10" />
      <polygon
         class="cls-5"
         points="91.19,78.49 91.19,78.49 55.56,65.41 86.66,12.91 "
         id="polygon44"
         transform="translate(0,26)"
         style="fill:#d6d6d6;stroke:#000000;stroke-miterlimit:10" />
      <path
         class="cls-5"
         d="m 110.32,98.2 -19.08,6.17 c 0,0 0,0 0,0 l -4.57,-65.3 c 0,0 0.07,-0.06 0.08,0 l 23.6,59.08 a 0.02915476,0 -59.036243 0 0 -0.03,0.05 z"
         id="path46"
         inkscape:connector-curvature="0"
         style="fill:#d6d6d6;stroke:#000000;stroke-miterlimit:10" />
    </g>
  </g>
</svg>
