<?xml version="1.0" encoding="UTF-8" standalone="no"?>
<svg
   xmlns:dc="http://purl.org/dc/elements/1.1/"
   xmlns:cc="http://creativecommons.org/ns#"
   xmlns:rdf="http://www.w3.org/1999/02/22-rdf-syntax-ns#"
   xmlns:svg="http://www.w3.org/2000/svg"
   xmlns="http://www.w3.org/2000/svg"
   xmlns:sodipodi="http://sodipodi.sourceforge.net/DTD/sodipodi-0.dtd"
   xmlns:inkscape="http://www.inkscape.org/namespaces/inkscape"
   viewBox="0 0 198.69 185.89"
   id="svg320"
   version="1.1"
   inkscape:version="0.91 r13725"
   sodipodi:docname="mansardtak.svg">
  <metadata
     id="metadata358">
    <rdf:RDF>
      <cc:Work
         rdf:about="">
        <dc:format>image/svg+xml</dc:format>
        <dc:type
           rdf:resource="http://purl.org/dc/dcmitype/StillImage" />
      </cc:Work>
    </rdf:RDF>
  </metadata>
  <sodipodi:namedview
     pagecolor="#ffffff"
     bordercolor="#666666"
     borderopacity="1"
     objecttolerance="10"
     gridtolerance="10"
     guidetolerance="10"
     inkscape:pageopacity="0"
     inkscape:pageshadow="2"
     inkscape:window-width="640"
     inkscape:window-height="480"
     id="namedview356"
     showgrid="false"
     inkscape:zoom="1.269568"
     inkscape:cx="99.345001"
     inkscape:cy="92.945"
     inkscape:window-x="0"
     inkscape:window-y="0"
     inkscape:window-maximized="0"
     inkscape:current-layer="Layer_1-2" />
  <defs
     id="defs322">
    <style
       id="style324">.cls-1,.cls-5{fill:#fff;}.cls-2{font-size:18px;font-family:ProximaNova-Regular, Proxima Nova;}.cls-3{fill:#d6d6d6;}.cls-3,.cls-4,.cls-5{stroke:#000;stroke-miterlimit:10;}.cls-4{fill:#f5f7f9;}.cls-5{stroke-width:0.75px;}</style>
  </defs>
  <title
     id="title326">Asset 6</title>
  <g
     id="Layer_2"
     data-name="Layer 2">
    <g
       id="Layer_1-2"
       data-name="Layer 1">
      <rect
         class="cls-1"
         width="198.69"
         height="185.89"
         id="rect330" />
      <polygon
         class="cls-3"
         points="90.79,114.56 79.12,72.54 157.33,48.02 165.5,80.71 165.5,80.71 "
         id="polygon334"
         transform="translate(3.150678,29.143771)"
         style="fill:#d6d6d6;stroke:#000000;stroke-miterlimit:10" />
      <polygon
         class="cls-3"
         points="79.12,72.54 56.94,41.02 138.65,23.51 157.33,48.02 157.33,48.02 "
         id="polygon336"
         transform="translate(3.150678,29.143771)"
         style="fill:#d6d6d6;stroke:#000000;stroke-miterlimit:10" />
      <polygon
         class="cls-4"
         points="90.79,139.08 90.79,114.56 165.5,80.71 165.5,100.56 165.5,100.56 "
         id="polygon338"
         transform="translate(3.150678,29.143771)"
         style="fill:#f5f7f9;stroke:#000000;stroke-miterlimit:10" />
      <polygon
         class="cls-4"
         points="30.09,114.56 30.09,92.38 37.09,60.86 56.94,41.02 79.12,72.54 90.79,114.56 90.79,139.08 90.79,139.08 "
         id="polygon340"
         transform="translate(3.150678,29.143771)"
         style="fill:#f5f7f9;stroke:#000000;stroke-miterlimit:10" />
      <polygon
         class="cls-5"
         points="39.97,111.25 39.97,100.57 48.51,103.77 48.51,114.46 48.51,114.46 "
         id="polygon342"
         transform="translate(3.150678,29.143771)"
         style="fill:#ffffff;stroke:#000000;stroke-width:0.75px;stroke-miterlimit:10" />
      <polygon
         class="cls-5"
         points="53.53,116.88 53.53,105.38 62.73,108.83 62.73,120.33 62.73,120.33 "
         id="polygon344"
         transform="translate(3.150678,29.143771)"
         style="fill:#ffffff;stroke:#000000;stroke-width:0.75px;stroke-miterlimit:10" />
      <polygon
         class="cls-5"
         points="53.53,89.87 53.53,78.36 62.73,81.82 62.73,93.32 62.73,93.32 "
         id="polygon346"
         transform="translate(3.150678,29.143771)"
         style="fill:#ffffff;stroke:#000000;stroke-width:0.75px;stroke-miterlimit:10" />
      <polygon
         class="cls-5"
         points="67.21,122.4 67.21,110.38 76.83,113.99 76.83,126.01 76.83,126.01 "
         id="polygon348"
         transform="translate(3.150678,29.143771)"
         style="fill:#ffffff;stroke:#000000;stroke-width:0.75px;stroke-miterlimit:10" />
      <polygon
         class="cls-5"
         points="131.1,112.28 131.08,104.74 139.82,100.56 139.82,107.56 139.82,107.56 "
         id="polygon350"
         transform="translate(3.150678,29.143771)"
         style="fill:#ffffff;stroke:#000000;stroke-width:0.75px;stroke-miterlimit:10" />
      <polygon
         class="cls-5"
         points="101.31,125.94 101.28,117.35 111.25,112.58 111.25,121.23 111.25,121.23 "
         id="polygon352"
         transform="translate(3.150678,29.143771)"
         style="fill:#ffffff;stroke:#000000;stroke-width:0.75px;stroke-miterlimit:10" />
      <polygon
         class="cls-5"
         points="153.83,106.44 153.83,94.39 159.42,91.81 159.42,103.41 159.42,103.41 "
         id="polygon354"
         transform="translate(3.150678,29.143771)"
         style="fill:#ffffff;stroke:#000000;stroke-width:0.75px;stroke-miterlimit:10" />
    </g>
  </g>
</svg>
