<?xml version="1.0" encoding="UTF-8" standalone="no"?>
<svg
   xmlns:dc="http://purl.org/dc/elements/1.1/"
   xmlns:cc="http://creativecommons.org/ns#"
   xmlns:rdf="http://www.w3.org/1999/02/22-rdf-syntax-ns#"
   xmlns:svg="http://www.w3.org/2000/svg"
   xmlns="http://www.w3.org/2000/svg"
   xmlns:sodipodi="http://sodipodi.sourceforge.net/DTD/sodipodi-0.dtd"
   xmlns:inkscape="http://www.inkscape.org/namespaces/inkscape"
   viewBox="0 0 198.69 185.83"
   id="svg436"
   version="1.1"
   inkscape:version="0.91 r13725"
   sodipodi:docname="pyramidtak.svg">
  <metadata
     id="metadata472">
    <rdf:RDF>
      <cc:Work
         rdf:about="">
        <dc:format>image/svg+xml</dc:format>
        <dc:type
           rdf:resource="http://purl.org/dc/dcmitype/StillImage" />
      </cc:Work>
    </rdf:RDF>
  </metadata>
  <sodipodi:namedview
     pagecolor="#ffffff"
     bordercolor="#666666"
     borderopacity="1"
     objecttolerance="10"
     gridtolerance="10"
     guidetolerance="10"
     inkscape:pageopacity="0"
     inkscape:pageshadow="2"
     inkscape:window-width="640"
     inkscape:window-height="480"
     id="namedview470"
     showgrid="false"
     inkscape:zoom="1.2699779"
     inkscape:cx="99.345001"
     inkscape:cy="92.915001"
     inkscape:window-x="0"
     inkscape:window-y="0"
     inkscape:window-maximized="0"
     inkscape:current-layer="Layer_1-2" />
  <defs
     id="defs438">
    <style
       id="style440">.cls-1,.cls-5{fill:#fff;}.cls-2{font-size:18px;font-family:ProximaNova-Regular, Proxima Nova;}.cls-3{fill:#f5f7f9;}.cls-3,.cls-4,.cls-5{stroke:#000;stroke-miterlimit:10;}.cls-4{fill:#d6d6d6;}.cls-5{stroke-width:0.75px;}</style>
  </defs>
  <title
     id="title442">Asset 8</title>
  <g
     id="Layer_2"
     data-name="Layer 2">
    <g
       id="Layer_1-2"
       data-name="Layer 1">
      <rect
         class="cls-1"
         width="198.69"
         height="185.83"
         id="rect446" />
      <polygon
         class="cls-3"
         points="36.55,74.3 96.45,88.25 96.45,127.52 96.45,127.52 36.55,108.72 "
         id="polygon450"
         transform="translate(4.7244916,44.095255)"
         style="fill:#f5f7f9;stroke:#000000;stroke-miterlimit:10" />
      <polygon
         class="cls-3"
         points="96.45,88.25 162.14,59.78 161.4,89.18 161.4,89.18 96.45,127.52 "
         id="polygon452"
         transform="translate(4.7244916,44.095255)"
         style="fill:#f5f7f9;stroke:#000000;stroke-miterlimit:10" />
      <polygon
         class="cls-4"
         points="104.45,20.52 162.14,59.78 162.14,59.78 96.45,88.25 "
         id="polygon454"
         transform="translate(4.7244916,44.095255)"
         style="fill:#d6d6d6;stroke:#000000;stroke-miterlimit:10" />
      <polygon
         class="cls-4"
         points="104.45,20.52 96.45,88.25 96.45,88.25 36.55,74.3 "
         id="polygon456"
         transform="translate(4.7244916,44.095255)"
         style="fill:#d6d6d6;stroke:#000000;stroke-miterlimit:10" />
      <polygon
         class="cls-5"
         points="48.25,93.65 56.25,95.92 56.25,107.2 56.25,107.2 48.25,104.7 "
         id="polygon458"
         transform="translate(4.7244916,44.095255)"
         style="fill:#ffffff;stroke:#000000;stroke-width:0.75px;stroke-miterlimit:10" />
      <polygon
         class="cls-5"
         points="61.63,97.58 69.79,99.91 69.79,111.37 69.79,111.37 61.45,108.75 "
         id="polygon460"
         transform="translate(4.7244916,44.095255)"
         style="fill:#ffffff;stroke:#000000;stroke-width:0.75px;stroke-miterlimit:10" />
      <polygon
         class="cls-5"
         points="75.44,101.38 84.75,103.94 84.75,116.51 84.75,116.51 75.44,113.39 "
         id="polygon462"
         transform="translate(4.7244916,44.095255)"
         style="fill:#ffffff;stroke:#000000;stroke-width:0.75px;stroke-miterlimit:10" />
      <polygon
         class="cls-5"
         points="107.82,101.09 119.82,95.7 119.82,106.09 119.82,106.09 107.86,112.14 "
         id="polygon464"
         transform="translate(4.7244916,44.095255)"
         style="fill:#ffffff;stroke:#000000;stroke-width:0.75px;stroke-miterlimit:10" />
      <polygon
         class="cls-5"
         points="129.3,92 138.3,87.78 138.3,95.75 138.3,95.75 129.32,100.29 "
         id="polygon466"
         transform="translate(4.7244916,44.095255)"
         style="fill:#ffffff;stroke:#000000;stroke-width:0.75px;stroke-miterlimit:10" />
      <polygon
         class="cls-5"
         points="148.51,82.73 155.02,79.73 155.02,93.24 155.02,93.24 148.51,96.77 "
         id="polygon468"
         transform="translate(4.7244916,44.095255)"
         style="fill:#ffffff;stroke:#000000;stroke-width:0.75px;stroke-miterlimit:10" />
    </g>
  </g>
</svg>
