<?xml version="1.0" encoding="UTF-8" standalone="no"?>
<svg
   xmlns:dc="http://purl.org/dc/elements/1.1/"
   xmlns:cc="http://creativecommons.org/ns#"
   xmlns:rdf="http://www.w3.org/1999/02/22-rdf-syntax-ns#"
   xmlns:svg="http://www.w3.org/2000/svg"
   xmlns="http://www.w3.org/2000/svg"
   xmlns:sodipodi="http://sodipodi.sourceforge.net/DTD/sodipodi-0.dtd"
   xmlns:inkscape="http://www.inkscape.org/namespaces/inkscape"
   viewBox="0 0 198.69 185.89"
   id="svg474"
   version="1.1"
   inkscape:version="0.91 r13725"
   sodipodi:docname="sadeltak.svg">
  <metadata
     id="metadata508">
    <rdf:RDF>
      <cc:Work
         rdf:about="">
        <dc:format>image/svg+xml</dc:format>
        <dc:type
           rdf:resource="http://purl.org/dc/dcmitype/StillImage" />
      </cc:Work>
    </rdf:RDF>
  </metadata>
  <sodipodi:namedview
     pagecolor="#ffffff"
     bordercolor="#666666"
     borderopacity="1"
     objecttolerance="10"
     gridtolerance="10"
     guidetolerance="10"
     inkscape:pageopacity="0"
     inkscape:pageshadow="2"
     inkscape:window-width="640"
     inkscape:window-height="480"
     id="namedview506"
     showgrid="false"
     inkscape:zoom="1.269568"
     inkscape:cx="99.345001"
     inkscape:cy="92.945"
     inkscape:window-x="0"
     inkscape:window-y="0"
     inkscape:window-maximized="0"
     inkscape:current-layer="Layer_1-2" />
  <defs
     id="defs476">
    <style
       id="style478">.cls-1,.cls-4{fill:#fff;}.cls-2{fill:#f5f7f9;}.cls-2,.cls-3,.cls-4{stroke:#000;stroke-miterlimit:10;}.cls-3{fill:#d6d6d6;}.cls-4{stroke-width:0.75px;}.cls-5{font-size:18px;font-family:ProximaNova-Regular, Proxima Nova;}</style>
  </defs>
  <title
     id="title480">Asset 16</title>
  <g
     id="Layer_2"
     data-name="Layer 2">
    <g
       id="Layer_1-2"
       data-name="Layer 1">
      <rect
         class="cls-1"
         width="198.69"
         height="185.89"
         id="rect484" />
      <polygon
         class="cls-2"
         points="90.4,100.09 166.4,72.09 166.4,101.09 166.4,101.09 90.4,139.09 "
         id="polygon486"
         transform="translate(0,34.657458)"
         style="fill:#f5f7f9;stroke:#000000;stroke-miterlimit:10" />
      <polygon
         class="cls-3"
         points="69.86,58.34 59.4,37.09 140.4,24.09 166.4,72.09 166.4,72.09 90.4,100.09 "
         id="polygon488"
         transform="translate(0,34.657458)"
         style="fill:#d6d6d6;stroke:#000000;stroke-miterlimit:10" />
      <polygon
         class="cls-2"
         points="34.4,83.09 59.4,37.09 90.4,100.09 90.4,139.09 90.4,139.09 34.4,117.09 "
         id="polygon490"
         transform="translate(0,34.657458)"
         style="fill:#f5f7f9;stroke:#000000;stroke-miterlimit:10" />
      <polygon
         class="cls-4"
         points="44.4,101.09 52.4,104.09 52.4,114.09 52.4,114.09 44.4,111.09 "
         id="polygon492"
         transform="translate(0,34.657458)"
         style="fill:#ffffff;stroke:#000000;stroke-width:0.75px;stroke-miterlimit:10" />
      <polygon
         class="cls-4"
         points="57.09,105.59 65.71,108.82 65.71,119.59 65.71,119.59 57.09,116.36 "
         id="polygon494"
         transform="translate(0,34.657458)"
         style="fill:#ffffff;stroke:#000000;stroke-width:0.75px;stroke-miterlimit:10" />
      <polygon
         class="cls-4"
         points="69.9,110.28 78.9,113.65 78.9,124.9 78.9,124.9 69.9,121.53 "
         id="polygon496"
         transform="translate(0,34.657458)"
         style="fill:#ffffff;stroke:#000000;stroke-width:0.75px;stroke-miterlimit:10" />
      <polygon
         class="cls-4"
         points="100.4,113.09 112.4,108.09 112.4,118.09 112.4,118.09 100.44,124.13 "
         id="polygon498"
         transform="translate(0,34.657458)"
         style="fill:#ffffff;stroke:#000000;stroke-width:0.75px;stroke-miterlimit:10" />
      <polygon
         class="cls-4"
         points="127.91,102.84 136.91,99.09 136.91,106.59 136.91,106.59 127.93,111.13 "
         id="polygon500"
         transform="translate(0,34.657458)"
         style="fill:#ffffff;stroke:#000000;stroke-width:0.75px;stroke-miterlimit:10" />
      <polygon
         class="cls-4"
         points="154.4,93.09 160.91,90.09 160.91,103.59 160.91,103.59 154.4,107.13 "
         id="polygon502"
         transform="translate(0,34.657458)"
         style="fill:#ffffff;stroke:#000000;stroke-width:0.75px;stroke-miterlimit:10" />
    </g>
  </g>
</svg>
