<?xml version="1.0" encoding="UTF-8" standalone="no"?>
<svg
   xmlns:dc="http://purl.org/dc/elements/1.1/"
   xmlns:cc="http://creativecommons.org/ns#"
   xmlns:rdf="http://www.w3.org/1999/02/22-rdf-syntax-ns#"
   xmlns:svg="http://www.w3.org/2000/svg"
   xmlns="http://www.w3.org/2000/svg"
   xmlns:sodipodi="http://sodipodi.sourceforge.net/DTD/sodipodi-0.dtd"
   xmlns:inkscape="http://www.inkscape.org/namespaces/inkscape"
   viewBox="0 0 198.69 185.17"
   id="svg510"
   version="1.1"
   inkscape:version="0.91 r13725"
   sodipodi:docname="valmat_pyramidtak.svg">
  <metadata
     id="metadata558">
    <rdf:RDF>
      <cc:Work
         rdf:about="">
        <dc:format>image/svg+xml</dc:format>
        <dc:type
           rdf:resource="http://purl.org/dc/dcmitype/StillImage" />
      </cc:Work>
    </rdf:RDF>
  </metadata>
  <sodipodi:namedview
     pagecolor="#ffffff"
     bordercolor="#666666"
     borderopacity="1"
     objecttolerance="10"
     gridtolerance="10"
     guidetolerance="10"
     inkscape:pageopacity="0"
     inkscape:pageshadow="2"
     inkscape:window-width="640"
     inkscape:window-height="480"
     id="namedview556"
     showgrid="false"
     inkscape:zoom="1.2745045"
     inkscape:cx="99.345001"
     inkscape:cy="92.584999"
     inkscape:window-x="0"
     inkscape:window-y="0"
     inkscape:window-maximized="0"
     inkscape:current-layer="Layer_1-2" />
  <defs
     id="defs512">
    <style
       id="style514">.cls-1,.cls-5{fill:#fff;}.cls-2{font-size:18px;font-family:ProximaNova-Regular, Proxima Nova;}.cls-3{letter-spacing:-0.06em;}.cls-4{fill:#f5f7f9;}.cls-4,.cls-5,.cls-6{stroke:#000;stroke-miterlimit:10;}.cls-5{stroke-width:0.75px;}.cls-6{fill:#d6d6d6;}</style>
  </defs>
  <title
     id="title516">Asset 9</title>
  <g
     id="Layer_2"
     data-name="Layer 2">
    <g
       id="Layer_1-2"
       data-name="Layer 1">
      <rect
         class="cls-1"
         width="198.69"
         height="185.17"
         id="rect520" />
      <polygon
         class="cls-4"
         points="33.1,75.84 106.96,98.74 106.96,132.59 106.96,132.59 34.35,104.37 "
         id="polygon530"
         transform="translate(0,40.01555)"
         style="fill:#f5f7f9;stroke:#000000;stroke-miterlimit:10" />
      <polygon
         class="cls-5"
         points="106.96,98.74 168.09,71.14 168.09,97.94 168.09,97.94 106.96,132.59 "
         id="polygon532"
         transform="translate(0,40.01555)"
         style="fill:#ffffff;stroke:#000000;stroke-width:0.75px;stroke-miterlimit:10" />
      <polygon
         class="cls-6"
         points="104.59,45.74 138.3,36.53 168.09,71.14 168.09,71.14 106.96,98.74 "
         id="polygon534"
         transform="translate(0,40.01555)"
         style="fill:#d6d6d6;stroke:#000000;stroke-miterlimit:10" />
      <polygon
         class="cls-6"
         points="65.24,37.9 104.59,45.74 106.96,98.74 106.96,98.74 33.1,75.84 "
         id="polygon536"
         transform="translate(0,40.01555)"
         style="fill:#d6d6d6;stroke:#000000;stroke-miterlimit:10" />
      <polygon
         class="cls-6"
         points="102.24,21.44 104.59,45.74 104.59,45.74 65.24,37.9 "
         id="polygon538"
         transform="translate(0,40.01555)"
         style="fill:#d6d6d6;stroke:#000000;stroke-miterlimit:10" />
      <polygon
         class="cls-6"
         points="102.24,21.44 138.3,36.53 138.3,36.53 104.59,45.74 "
         id="polygon540"
         transform="translate(0,40.01555)"
         style="fill:#d6d6d6;stroke:#000000;stroke-miterlimit:10" />
      <polygon
         class="cls-5"
         points="60.92,97.69 68.92,100.69 68.92,111.06 68.92,111.06 60.92,108.06 "
         id="polygon542"
         transform="translate(0,40.01555)"
         style="fill:#ffffff;stroke:#000000;stroke-width:0.75px;stroke-miterlimit:10" />
      <polygon
         class="cls-5"
         points="48.7,92.99 56.7,95.99 56.7,105.99 56.7,105.99 48.7,102.99 "
         id="polygon544"
         transform="translate(0,40.01555)"
         style="fill:#ffffff;stroke:#000000;stroke-width:0.75px;stroke-miterlimit:10" />
      <polygon
         class="cls-5"
         points="73.07,102.15 81.69,105.38 81.69,116.15 81.69,116.15 73.07,112.92 "
         id="polygon546"
         transform="translate(0,40.01555)"
         style="fill:#ffffff;stroke:#000000;stroke-width:0.75px;stroke-miterlimit:10" />
      <polygon
         class="cls-5"
         points="85.88,106.77 94.88,110.14 94.88,121.03 94.88,121.03 85.88,117.66 "
         id="polygon548"
         transform="translate(0,40.01555)"
         style="fill:#ffffff;stroke:#000000;stroke-width:0.75px;stroke-miterlimit:10" />
      <polygon
         class="cls-5"
         points="114.35,108.11 126.35,102.15 126.35,113.11 126.35,113.11 114.39,119.15 "
         id="polygon550"
         transform="translate(0,40.01555)"
         style="fill:#ffffff;stroke:#000000;stroke-width:0.75px;stroke-miterlimit:10" />
      <polygon
         class="cls-5"
         points="137.52,98.21 146.53,93.74 146.53,102.96 146.53,102.96 137.55,107.5 "
         id="polygon552"
         transform="translate(0,40.01555)"
         style="fill:#ffffff;stroke:#000000;stroke-width:0.75px;stroke-miterlimit:10" />
      <polygon
         class="cls-5"
         points="159.22,88.8 165.13,85.91 165.13,99.42 165.13,99.42 159.22,102.84 "
         id="polygon554"
         transform="translate(0,40.01555)"
         style="fill:#ffffff;stroke:#000000;stroke-width:0.75px;stroke-miterlimit:10" />
    </g>
  </g>
</svg>
