<?xml version="1.0" encoding="UTF-8" standalone="no"?>
<svg
   xmlns:dc="http://purl.org/dc/elements/1.1/"
   xmlns:cc="http://creativecommons.org/ns#"
   xmlns:rdf="http://www.w3.org/1999/02/22-rdf-syntax-ns#"
   xmlns:svg="http://www.w3.org/2000/svg"
   xmlns="http://www.w3.org/2000/svg"
   xmlns:sodipodi="http://sodipodi.sourceforge.net/DTD/sodipodi-0.dtd"
   xmlns:inkscape="http://www.inkscape.org/namespaces/inkscape"
   viewBox="0 0 198.69 185.89"
   id="svg560"
   version="1.1"
   inkscape:version="0.91 r13725"
   sodipodi:docname="vinkeltak.svg">
  <metadata
     id="metadata610">
    <rdf:RDF>
      <cc:Work
         rdf:about="">
        <dc:format>image/svg+xml</dc:format>
        <dc:type
           rdf:resource="http://purl.org/dc/dcmitype/StillImage" />
      </cc:Work>
    </rdf:RDF>
  </metadata>
  <sodipodi:namedview
     pagecolor="#ffffff"
     bordercolor="#666666"
     borderopacity="1"
     objecttolerance="10"
     gridtolerance="10"
     guidetolerance="10"
     inkscape:pageopacity="0"
     inkscape:pageshadow="2"
     inkscape:window-width="687"
     inkscape:window-height="507"
     id="namedview608"
     showgrid="false"
     inkscape:zoom="1.7954403"
     inkscape:cx="92.426643"
     inkscape:cy="120.53399"
     inkscape:window-x="0"
     inkscape:window-y="0"
     inkscape:window-maximized="0"
     inkscape:current-layer="Layer_1-2" />
  <defs
     id="defs562">
    <style
       id="style564">.cls-1,.cls-6{fill:#fff;}.cls-2{font-size:18px;font-family:ProximaNova-Regular, Proxima Nova;}.cls-3{letter-spacing:0em;}.cls-4{fill:#f5f7f9;}.cls-4,.cls-5,.cls-6{stroke:#000;stroke-miterlimit:10;}.cls-5{fill:#d6d6d6;}.cls-6{stroke-width:0.75px;}</style>
  </defs>
  <title
     id="title566">Asset 14</title>
  <g
     id="Layer_2"
     data-name="Layer 2">
    <g
       id="Layer_1-2"
       data-name="Layer 1">
      <rect
         class="cls-1"
         width="198.69"
         height="185.89"
         id="rect570" />
      <polygon
         class="cls-4"
         points="59.02,108.28 119.62,85.95 119.62,109.07 119.62,109.07 59.02,139.37 "
         id="polygon578"
         transform="translate(0,28.962255)"
         style="fill:#f5f7f9;stroke:#000000;stroke-miterlimit:10" />
      <polygon
         class="cls-5"
         points="42.64,74.99 34.3,58.04 119.74,49.31 119.62,85.95 119.62,85.95 59.02,108.28 "
         id="polygon580"
         transform="translate(0,28.962255)"
         style="fill:#d6d6d6;stroke:#000000;stroke-miterlimit:10" />
      <polygon
         class="cls-4"
         points="14.36,94.72 34.3,58.04 59.02,108.28 59.02,139.37 59.02,139.37 14.36,121.83 "
         id="polygon582"
         transform="translate(0,28.962255)"
         style="fill:#f5f7f9;stroke:#000000;stroke-miterlimit:10" />
      <polygon
         class="cls-6"
         points="22.34,109.07 28.72,111.46 28.72,119.44 28.72,119.44 22.34,117.05 "
         id="polygon584"
         transform="translate(0,28.962255)"
         style="fill:#ffffff;stroke:#000000;stroke-width:0.75px;stroke-miterlimit:10" />
      <polygon
         class="cls-6"
         points="32.46,112.66 39.33,115.24 39.33,123.82 39.33,123.82 32.46,121.25 "
         id="polygon586"
         transform="translate(0,28.962255)"
         style="fill:#ffffff;stroke:#000000;stroke-width:0.75px;stroke-miterlimit:10" />
      <polygon
         class="cls-6"
         points="42.67,116.4 49.85,119.09 49.85,128.06 49.85,128.06 42.67,125.37 "
         id="polygon588"
         transform="translate(0,28.962255)"
         style="fill:#ffffff;stroke:#000000;stroke-width:0.75px;stroke-miterlimit:10" />
      <polygon
         class="cls-6"
         points="66.99,118.64 76.56,114.65 76.56,122.63 76.56,122.63 67.02,127.45 "
         id="polygon590"
         transform="translate(0,28.962255)"
         style="fill:#ffffff;stroke:#000000;stroke-width:0.75px;stroke-miterlimit:10" />
      <polygon
         class="cls-6"
         points="88.92,110.47 96.1,107.48 96.1,113.46 96.1,113.46 88.94,117.08 "
         id="polygon592"
         transform="translate(0,28.962255)"
         style="fill:#ffffff;stroke:#000000;stroke-width:0.75px;stroke-miterlimit:10" />
      <polygon
         class="cls-6"
         points="107.46,103.87 112.64,101.48 112.64,112.25 112.64,112.25 107.46,115.07 "
         id="polygon594"
         transform="translate(0,28.962255)"
         style="fill:#ffffff;stroke:#000000;stroke-width:0.75px;stroke-miterlimit:10" />
      <polygon
         class="cls-4"
         points="119.62,85.95 162.45,93.65 161.42,117.92 161.42,117.92 119.62,109.07 "
         id="polygon596"
         transform="translate(0,28.962255)"
         style="fill:#f5f7f9;stroke:#000000;stroke-miterlimit:10" />
      <polygon
         class="cls-5"
         points="119.74,49.31 177.35,56.04 162.45,93.65 162.45,93.65 119.74,85.95 "
         id="polygon598"
         transform="translate(0,28.962255)"
         style="fill:#d6d6d6;stroke:#000000;stroke-miterlimit:10" />
      <polygon
         class="cls-4"
         points="161.43,117.92 162.44,93.65 177.35,56.04 185.63,76.6 185.63,76.6 185.63,95.51 "
         id="polygon600"
         transform="translate(0,28.962255)"
         style="fill:#f5f7f9;stroke:#000000;stroke-miterlimit:10" />
      <polygon
         class="cls-6"
         points="141.03,100.3 151.93,102.23 151.93,109.41 151.93,109.41 141.03,107.38 "
         id="polygon602"
         transform="translate(0,28.962255)"
         style="fill:#ffffff;stroke:#000000;stroke-width:0.75px;stroke-miterlimit:10" />
      <polygon
         class="cls-6"
         points="166.12,101.15 172.42,95.93 172.16,101.56 172.16,101.56 165.77,107.18 "
         id="polygon604"
         transform="translate(0,28.962255)"
         style="fill:#ffffff;stroke:#000000;stroke-width:0.75px;stroke-miterlimit:10" />
      <polygon
         class="cls-6"
         points="177.61,92.63 182.45,88.62 182.26,92.94 182.26,92.94 177.35,97.26 "
         id="polygon606"
         transform="translate(0,28.962255)"
         style="fill:#ffffff;stroke:#000000;stroke-width:0.75px;stroke-miterlimit:10" />
    </g>
  </g>
</svg>
