<svg xmlns="http://www.w3.org/2000/svg" viewBox="0 0 198.69 185.81"><defs><style>.cls-1,.cls-5{fill:#fff;}.cls-2{font-size:18px;font-family:ProximaNova-Regular, Proxima Nova;}.cls-3{fill:#f5f7f9;}.cls-3,.cls-4,.cls-5{stroke:#000;stroke-miterlimit:10;}.cls-4{fill:#d6d6d6;}.cls-5{stroke-width:0.75px;}</style></defs><title>Asset 10</title><g id="Layer_2" data-name="Layer 2"><g id="Layer_1-2" data-name="Layer 1"><rect class="cls-1" width="198.69" height="185.81"/><text class="cls-2" transform="translate(71.73 162.42)">Bågtak</text><polygon class="cls-3" points="174.19 86.45 97.45 129.25 97.45 94.51 174.19 58.7 174.19 86.45"/><path class="cls-4" d="M174.2,58.7,97.45,94.52h0c-.26-.42-8.9-13.91-17.75-21.55S55.35,55.29,42.79,57.9l78.46-23.7s12.4-4.5,29,1.86S174.2,58.7,174.2,58.7Z"/><path class="cls-3" d="M97.45,94.52v34.73l-73-27.91V70.17A29.28,29.28,0,0,1,42.79,57.9C55.35,55.29,70.7,65.21,79.69,73S97.18,94.09,97.44,94.51Z"/><polygon class="cls-5" points="42.75 103.17 37.87 101.34 37.87 95.02 42.75 96.85 42.75 103.17"/><polygon class="cls-5" points="35.3 100.08 30.41 98.25 30.41 92.15 35.3 93.98 35.3 100.08"/><polygon class="cls-5" points="50.54 106.28 45.29 104.31 45.29 97.73 50.54 99.71 50.54 106.28"/><polygon class="cls-5" points="58.59 109.26 53.1 107.2 53.1 100.55 58.59 102.61 58.59 109.26"/><polygon class="cls-5" points="73.75 114.22 68.87 112.39 68.87 106.06 73.75 107.89 73.75 114.22"/><polygon class="cls-5" points="81.55 117.32 76.29 115.35 76.29 108.78 81.55 110.75 81.55 117.32"/><polygon class="cls-5" points="89.6 120.3 84.1 118.24 84.1 111.6 89.6 113.66 89.6 120.3"/><polygon class="cls-5" points="110.29 115.92 103.79 119.54 103.77 113.54 110.29 110.48 110.29 115.92"/><polygon class="cls-5" points="118.8 111.09 113.11 114.26 113.09 109.01 118.8 106.32 118.8 111.09"/><polygon class="cls-5" points="140.91 100.19 135.58 103.16 135.56 98.24 140.91 95.72 140.91 100.19"/><polygon class="cls-5" points="147.9 96.22 143.22 98.83 143.21 94.52 147.9 92.31 147.9 96.22"/><polygon class="cls-5" points="170.39 88.56 156.62 96.15 156.41 81.59 170.39 75.06 170.39 88.56"/></g></g></svg>