<svg xmlns="http://www.w3.org/2000/svg" viewBox="0 0 198.69 185.89"><defs><style>.cls-1,.cls-4{fill:#fff;}.cls-2{fill:#f5f7f9;}.cls-2,.cls-3,.cls-4{stroke:#000;stroke-miterlimit:10;}.cls-3{fill:#d6d6d6;}.cls-4{stroke-width:0.75px;}.cls-5{font-size:18px;font-family:ProximaNova-Regular, Proxima Nova;}</style></defs><title>Asset 17</title><g id="Layer_2" data-name="Layer 2"><g id="Layer_1-2" data-name="Layer 1"><rect class="cls-1" width="198.69" height="185.89"/><polygon class="cls-2" points="93.6 126.35 39.6 105.35 38.6 71.35 51.6 48.35 75.6 54.35 93.6 89.35 93.6 126.35"/><polygon class="cls-2" points="93.6 126.35 166.6 90.35 167.6 60.35 93.6 89.35 93.6 126.35"/><polygon class="cls-3" points="167.6 60.35 93.6 89.35 75.6 54.35 83.6 24.35 127.6 16.35 153.6 34.35 167.6 60.35"/><polygon class="cls-3" points="75.6 54.35 51.6 48.35 83.6 24.35 75.6 54.35"/><polygon class="cls-4" points="56.6 103.35 48.6 100.35 48.6 90.35 56.6 93.35 56.6 103.35"/><polygon class="cls-4" points="69.91 108.85 61.3 105.62 61.3 94.85 69.91 98.08 69.91 108.85"/><polygon class="cls-4" points="69.24 82.68 60.62 79.45 60.62 68.68 69.24 71.91 69.24 82.68"/><polygon class="cls-4" points="83.1 114.16 74.1 110.79 74.1 99.54 83.1 102.91 83.1 114.16"/><polygon class="cls-4" points="116.6 107.35 104.64 113.39 104.6 102.35 116.6 97.35 116.6 107.35"/><polygon class="cls-4" points="141.11 95.85 132.14 100.39 132.11 92.1 141.11 88.35 141.11 95.85"/><polygon class="cls-4" points="161.11 92.85 154.6 96.39 154.6 82.35 161.11 79.35 161.11 92.85"/><text class="cls-5" transform="translate(63.51 152.38)">Halvvalmat<tspan x="10.22" y="17">sadeltak</tspan></text></g></g></svg>