<svg xmlns="http://www.w3.org/2000/svg" viewBox="0 0 198.69 185.89"><defs><style>.cls-1,.cls-5{fill:#fff;}.cls-2{font-size:18px;font-family:ProximaNova-Regular, Proxima Nova;}.cls-3{fill:#f5f7f9;}.cls-3,.cls-4,.cls-5{stroke:#000;stroke-miterlimit:10;}.cls-4{fill:#d6d6d6;}.cls-5{stroke-width:0.75px;}</style></defs><title>Asset 7</title><g id="Layer_2" data-name="Layer 2"><g id="Layer_1-2" data-name="Layer 1"><rect class="cls-1" width="198.69" height="185.89"/><text class="cls-2" transform="translate(55.89 156.75)">Halvvalmat<tspan x="-2.65" y="17">mansardtak</tspan></text><polygon class="cls-3" points="91.46 103.9 91.46 134.93 29.43 108.1 29.43 81.33 36.38 57.39 78.85 70 91.46 103.9"/><polygon class="cls-3" points="168.7 95.21 91.46 134.93 91.46 103.9 168.7 70 168.7 95.21"/><polygon class="cls-4" points="168.7 70 91.46 103.9 78.85 69.75 159.41 43.34 168.7 70"/><polygon class="cls-4" points="159.41 43.34 78.85 69.75 77.31 30.44 123.78 20.07 159.41 43.34"/><polygon class="cls-4" points="78.85 69.75 36.38 57.39 77.31 30.44 78.85 69.75"/><polygon class="cls-5" points="49.6 110.41 41.62 107.11 41.62 97.13 49.6 100.13 49.6 110.41"/><polygon class="cls-5" points="62.88 115.97 54.28 112.37 54.28 101.63 62.88 104.85 62.88 115.97"/><polygon class="cls-5" points="76.05 121.35 67.07 117.53 67.07 106.3 76.05 109.67 76.05 121.35"/><polygon class="cls-5" points="120.85 114.02 106.23 121.4 106.19 107.91 120.85 101.8 120.85 114.02"/><polygon class="cls-5" points="144.09 102.46 133.12 107.99 133.09 96.85 144.09 92.27 144.09 102.46"/><polygon class="cls-5" points="161.31 98.79 154.83 102.31 154.83 88.34 161.31 85.36 161.31 98.79"/></g></g></svg>