<svg xmlns="http://www.w3.org/2000/svg" viewBox="0 0 198.69 184.63"><defs><style>.cls-1,.cls-5{fill:#fff;}.cls-2{font-size:18px;font-family:ProximaNova-Regular, Proxima Nova;}.cls-3{fill:#f5f7f9;}.cls-3,.cls-4,.cls-5{stroke:#000;stroke-miterlimit:10;}.cls-4{fill:#d6d6d6;}.cls-5{stroke-width:0.75px;}</style></defs><title>Asset 13</title><g id="Layer_2" data-name="Layer 2"><g id="Layer_1-2" data-name="Layer 1"><rect class="cls-1" width="198.69" height="184.63"/><text class="cls-2" transform="translate(58.93 151.96)">Helvalmat<tspan x="-6.74" y="17">mansardtak</tspan></text><polygon class="cls-3" points="174.04 85.36 87.05 129.75 87.05 102.06 174.93 63.77 174.04 85.36"/><polygon class="cls-3" points="87.05 129.75 28.98 106 28.98 82.09 87.05 102.06 87.05 129.75"/><polygon class="cls-4" points="174.93 63.77 87.05 102.06 93.5 62.89 153.12 43.13 174.93 63.77"/><polygon class="cls-4" points="87.05 102.06 28.98 82.09 52.79 52.44 93.5 62.89 87.05 102.06"/><polygon class="cls-4" points="93.5 62.89 52.79 52.44 77.59 38.69 99.23 27.2 93.5 62.89"/><polygon class="cls-4" points="153.12 43.13 93.5 62.89 99.23 27.2 109.64 24.26 153.12 43.13"/><polygon class="cls-5" points="47.68 108.3 39.31 104.88 39.31 94.42 47.68 97.55 47.68 108.3"/><polygon class="cls-5" points="61.6 114.05 52.59 110.39 52.59 99.12 61.6 102.5 61.6 114.05"/><polygon class="cls-5" points="75.4 119.6 65.98 115.79 65.98 104.03 75.4 107.56 75.4 119.6"/><polygon class="cls-5" points="132.39 100.43 123.85 104.78 123.83 97.04 132.39 92.94 132.39 100.43"/><polygon class="cls-5" points="109.1 111.22 99.34 116.28 99.34 107.42 109.1 102.75 109.1 111.22"/><polygon class="cls-5" points="149.96 97.14 144.5 100.1 144.5 88.3 149.96 85.78 149.96 97.14"/></g></g></svg>