<svg xmlns="http://www.w3.org/2000/svg" viewBox="0 0 198.69 186.66"><defs><style>.cls-1,.cls-5{fill:#fff;}.cls-2{font-size:18px;font-family:ProximaNova-Regular, Proxima Nova;}.cls-3{fill:#f5f7f9;}.cls-3,.cls-4,.cls-5{stroke:#000;stroke-miterlimit:10;}.cls-4{fill:#d6d6d6;}.cls-5{stroke-width:0.75px;}</style></defs><title>Asset 5</title><g id="Layer_2" data-name="Layer 2"><g id="Layer_1-2" data-name="Layer 1"><rect class="cls-1" width="198.69" height="186.66"/><text class="cls-2" transform="translate(59.99 156.75)">Helvalmat<tspan x="6.13" y="17">sadeltak</tspan></text><polygon class="cls-3" points="167.09 95.5 96.09 132.5 96.09 94.5 167.09 66.5 167.09 95.5"/><polygon class="cls-3" points="96.09 132.5 43.09 110.5 43.09 77.5 96.09 94.5 96.09 132.5"/><polygon class="cls-4" points="92.09 29.5 124.09 24.5 167.09 66.5 96.09 94.5 92.09 29.5"/><polygon class="cls-4" points="96.09 94.5 43.09 77.5 92.09 29.5 96.09 94.5"/><polygon class="cls-5" points="60.09 108.5 52.09 105.5 52.09 95.5 60.09 98.5 60.09 108.5"/><polygon class="cls-5" points="73.4 114 64.78 110.77 64.78 100 73.4 103.23 73.4 114"/><polygon class="cls-5" points="86.59 119.31 77.59 115.93 77.59 104.68 86.59 108.06 86.59 119.31"/><polygon class="cls-5" points="120.09 112.5 108.13 118.54 108.09 107.5 120.09 102.5 120.09 112.5"/><polygon class="cls-5" points="144.6 100 135.62 104.53 135.59 96.25 144.6 92.5 144.6 100"/><polygon class="cls-5" points="161.6 98 155.09 101.53 155.09 87.5 161.6 84.5 161.6 98"/></g></g></svg>