<svg xmlns="http://www.w3.org/2000/svg" viewBox="0 0 198.69 185.89"><defs><style>.cls-1,.cls-6{fill:#fff;}.cls-2{font-size:18px;font-family:ProximaNova-Regular, Proxima Nova;}.cls-3{letter-spacing:-0.06em;}.cls-4{fill:#f5f7f9;}.cls-4,.cls-5,.cls-6{stroke:#000;stroke-miterlimit:10;}.cls-5{fill:#d6d6d6;}.cls-6{stroke-width:0.75px;}</style></defs><title>Asset 15</title><g id="Layer_2" data-name="Layer 2"><g id="Layer_1-2" data-name="Layer 1"><rect class="cls-1" width="198.69" height="185.89"/><text class="cls-2" transform="translate(68.63 166.38)"><tspan class="cls-3">K</tspan><tspan x="9.74" y="0">yrktorn</tspan></text><polygon class="cls-4" points="157.42 111.56 91.19 144.67 91.19 110.69 91.19 78.49 110.36 72.29 110.36 103.62 157.42 86.29 157.42 111.56"/><polygon class="cls-5" points="157.42 86.29 110.3 104.22 110.36 83.72 149.8 70.16 157.42 86.29"/><polygon class="cls-4" points="91.19 144.67 54.6 130.29 55.56 65.41 91.19 78.49 91.19 144.67"/><polygon class="cls-6" points="65.48 127.53 59.47 125.28 59.47 117.77 65.48 120.02 65.48 127.53"/><polygon class="cls-6" points="74.67 131.23 68.4 128.88 68.4 121.03 74.67 123.39 74.67 131.23"/><polygon class="cls-6" points="84.95 134.84 78.68 132.49 78.68 124.65 84.95 127 84.95 134.84"/><polygon class="cls-6" points="65.48 86.58 59.47 84.32 59.47 76.82 65.48 79.07 65.48 86.58"/><polygon class="cls-6" points="85.82 94.52 79.55 92.17 79.55 84.33 85.82 86.68 85.82 94.52"/><polygon class="cls-6" points="75.36 90.59 69.09 88.24 69.09 80.4 75.36 82.75 75.36 90.59"/><polygon class="cls-6" points="110.36 126.37 99.94 131.64 99.91 122.01 110.36 117.66 110.36 126.37"/><polygon class="cls-6" points="131.72 116.36 123.9 120.3 123.87 113.09 131.72 109.82 131.72 116.36"/><polygon class="cls-6" points="152.63 113.74 146.96 116.82 146.96 104.59 152.63 101.97 152.63 113.74"/><polygon class="cls-5" points="91.19 78.49 55.56 65.41 86.66 12.91 91.19 78.49"/><path class="cls-5" d="M110.32,72.2,91.24,78.37s0,0,0,0L86.67,13.07s.07-.06.08,0l23.6,59.08A0,0,0,0,1,110.32,72.2Z"/></g></g></svg>