<svg xmlns="http://www.w3.org/2000/svg" viewBox="0 0 198.69 185.89"><defs><style>.cls-1,.cls-5{fill:#fff;}.cls-2{font-size:18px;font-family:ProximaNova-Regular, Proxima Nova;}.cls-3{fill:#d6d6d6;}.cls-3,.cls-4,.cls-5{stroke:#000;stroke-miterlimit:10;}.cls-4{fill:#f5f7f9;}.cls-5{stroke-width:0.75px;}</style></defs><title>Asset 6</title><g id="Layer_2" data-name="Layer 2"><g id="Layer_1-2" data-name="Layer 1"><rect class="cls-1" width="198.69" height="185.89"/><text class="cls-2" transform="translate(54.67 164.91)">Mansardtak</text><polygon class="cls-3" points="165.5 80.71 90.79 114.56 79.12 72.54 157.33 48.02 165.5 80.71"/><polygon class="cls-3" points="157.33 48.02 79.12 72.54 56.94 41.02 138.65 23.51 157.33 48.02"/><polygon class="cls-4" points="165.5 100.56 90.79 139.08 90.79 114.56 165.5 80.71 165.5 100.56"/><polygon class="cls-4" points="90.79 139.08 30.09 114.56 30.09 92.38 37.09 60.86 56.94 41.02 79.12 72.54 90.79 114.56 90.79 139.08"/><polygon class="cls-5" points="48.51 114.46 39.97 111.25 39.97 100.57 48.51 103.77 48.51 114.46"/><polygon class="cls-5" points="62.73 120.33 53.53 116.88 53.53 105.38 62.73 108.83 62.73 120.33"/><polygon class="cls-5" points="62.73 93.32 53.53 89.87 53.53 78.36 62.73 81.82 62.73 93.32"/><polygon class="cls-5" points="76.83 126.01 67.21 122.4 67.21 110.38 76.83 113.99 76.83 126.01"/><polygon class="cls-5" points="139.82 107.56 131.1 112.28 131.08 104.74 139.82 100.56 139.82 107.56"/><polygon class="cls-5" points="111.25 121.23 101.31 125.94 101.28 117.35 111.25 112.58 111.25 121.23"/><polygon class="cls-5" points="159.42 103.41 153.83 106.44 153.83 94.39 159.42 91.81 159.42 103.41"/></g></g></svg>