<svg xmlns="http://www.w3.org/2000/svg" viewBox="0 0 198.69 185.81"><defs><style>.cls-1,.cls-5{fill:#fff;}.cls-2{font-size:18px;font-family:ProximaNova-Regular, Proxima Nova;}.cls-3{fill:#f5f7f9;}.cls-3,.cls-4,.cls-5{stroke:#000;stroke-miterlimit:10;}.cls-4{fill:#d6d6d6;}.cls-5{stroke-width:0.75px;}</style></defs><title>Asset 11</title><g id="Layer_2" data-name="Layer 2"><g id="Layer_1-2" data-name="Layer 1"><rect class="cls-1" width="198.69" height="185.81"/><text class="cls-2" transform="translate(58.14 162.42)">Motfallstak</text><polygon class="cls-3" points="179.47 86.39 94.48 131.64 94.48 69.4 179.47 38.39 179.47 86.39"/><polygon class="cls-4" points="147.83 36.92 61.18 65.95 30.63 50.56 120.32 25.78 147.83 36.92"/><polygon class="cls-4" points="179.47 38.39 94.48 69.4 61.18 65.95 147.83 36.92 179.47 38.39"/><polygon class="cls-3" points="94.48 131.8 30.63 104.47 30.63 50.72 61.18 66.11 94.48 69.55 94.48 131.8"/><polygon class="cls-5" points="120.32 107.29 105.6 114.4 105.55 100.81 120.32 94.22 120.32 107.29"/><polygon class="cls-5" points="152.82 90.13 141.78 95.36 141.74 85.17 152.82 80.23 152.82 90.13"/><polygon class="cls-5" points="173.71 88.75 165.8 93.1 165.8 75.82 173.71 72.13 173.71 88.75"/><polygon class="cls-5" points="48.65 103.41 38.8 99.71 38.8 87.4 48.65 91.1 48.65 103.41"/><polygon class="cls-5" points="65.03 110.18 54.43 106.2 54.43 92.94 65.03 96.92 65.03 110.18"/><polygon class="cls-5" points="81.27 116.72 70.19 112.56 70.19 98.71 81.27 102.87 81.27 116.72"/></g></g></svg>