<svg xmlns="http://www.w3.org/2000/svg" viewBox="0 0 198.69 185.89"><defs><style>.cls-1,.cls-5{fill:#fff;}.cls-2{font-size:18px;font-family:ProximaNova-Regular, Proxima Nova;}.cls-3{fill:#f5f7f9;}.cls-3,.cls-4,.cls-5{stroke:#000;stroke-miterlimit:10;}.cls-4{fill:#d6d6d6;}.cls-5{stroke-width:0.75px;}</style></defs><title>Asset 12</title><g id="Layer_2" data-name="Layer 2"><g id="Layer_1-2" data-name="Layer 1"><rect class="cls-1" width="198.69" height="185.89"/><text class="cls-2" transform="translate(62.19 162.42)">Pulpettak</text><polygon class="cls-3" points="172.31 98.6 92.53 139.01 92.53 83.44 172.31 54.67 172.31 98.6"/><polygon class="cls-3" points="92.53 139.01 32.21 112.61 32.21 39.59 92.53 83.44 92.53 139.01"/><polygon class="cls-4" points="172.31 54.67 92.53 83.44 32.21 39.59 116.74 23.91 172.31 54.67"/><polygon class="cls-5" points="49.81 117.12 45.01 115.17 45.03 99.74 49.83 101.68 49.81 117.12"/><polygon class="cls-5" points="42.71 114.2 37.91 112.17 37.91 96.84 42.71 98.93 42.71 114.2"/><polygon class="cls-5" points="68.08 121.07 58.58 117.19 58.58 104.97 68.08 108.94 68.08 121.07"/><polygon class="cls-5" points="82.17 127.03 72.25 122.94 72.25 110.7 82.17 114.89 82.17 127.03"/><polygon class="cls-5" points="117.25 117.21 104.06 123.87 104.02 111.69 117.25 106.18 117.25 117.21"/><polygon class="cls-5" points="149.25 101.78 139.35 106.77 139.32 97.04 149.25 92.91 149.25 101.78"/><polygon class="cls-5" points="166.34 101.22 159.98 104.58 159.98 89.1 166.34 86.33 166.34 101.22"/></g></g></svg>