<svg xmlns="http://www.w3.org/2000/svg" viewBox="0 0 198.69 185.83"><defs><style>.cls-1,.cls-5{fill:#fff;}.cls-2{font-size:18px;font-family:ProximaNova-Regular, Proxima Nova;}.cls-3{fill:#f5f7f9;}.cls-3,.cls-4,.cls-5{stroke:#000;stroke-miterlimit:10;}.cls-4{fill:#d6d6d6;}.cls-5{stroke-width:0.75px;}</style></defs><title>Asset 8</title><g id="Layer_2" data-name="Layer 2"><g id="Layer_1-2" data-name="Layer 1"><rect class="cls-1" width="198.69" height="185.83"/><text class="cls-2" transform="translate(55.43 161.22)">Pyramidtak</text><polygon class="cls-3" points="96.45 127.52 36.55 108.72 36.55 74.3 96.45 88.25 96.45 127.52"/><polygon class="cls-3" points="161.4 89.18 96.45 127.52 96.45 88.25 162.14 59.78 161.4 89.18"/><polygon class="cls-4" points="162.14 59.78 96.45 88.25 104.45 20.52 162.14 59.78"/><polygon class="cls-4" points="96.45 88.25 36.55 74.3 104.45 20.52 96.45 88.25"/><polygon class="cls-5" points="56.25 107.2 48.25 104.7 48.25 93.65 56.25 95.92 56.25 107.2"/><polygon class="cls-5" points="69.79 111.37 61.45 108.75 61.63 97.58 69.79 99.91 69.79 111.37"/><polygon class="cls-5" points="84.75 116.51 75.44 113.39 75.44 101.38 84.75 103.94 84.75 116.51"/><polygon class="cls-5" points="119.82 106.09 107.86 112.14 107.82 101.09 119.82 95.7 119.82 106.09"/><polygon class="cls-5" points="138.3 95.75 129.32 100.29 129.3 92 138.3 87.78 138.3 95.75"/><polygon class="cls-5" points="155.02 93.24 148.51 96.77 148.51 82.73 155.02 79.73 155.02 93.24"/></g></g></svg>