<svg xmlns="http://www.w3.org/2000/svg" viewBox="0 0 198.69 185.89"><defs><style>.cls-1,.cls-4{fill:#fff;}.cls-2{fill:#f5f7f9;}.cls-2,.cls-3,.cls-4{stroke:#000;stroke-miterlimit:10;}.cls-3{fill:#d6d6d6;}.cls-4{stroke-width:0.75px;}.cls-5{font-size:18px;font-family:ProximaNova-Regular, Proxima Nova;}</style></defs><title>Asset 16</title><g id="Layer_2" data-name="Layer 2"><g id="Layer_1-2" data-name="Layer 1"><rect class="cls-1" width="198.69" height="185.89"/><polygon class="cls-2" points="166.4 101.09 90.4 139.09 90.4 100.09 166.4 72.09 166.4 101.09"/><polygon class="cls-3" points="166.4 72.09 90.4 100.09 69.86 58.34 59.4 37.09 140.4 24.09 166.4 72.09"/><polygon class="cls-2" points="90.4 139.09 34.4 117.09 34.4 83.09 59.4 37.09 90.4 100.09 90.4 139.09"/><polygon class="cls-4" points="52.4 114.09 44.4 111.09 44.4 101.09 52.4 104.09 52.4 114.09"/><polygon class="cls-4" points="65.71 119.59 57.09 116.36 57.09 105.59 65.71 108.82 65.71 119.59"/><polygon class="cls-4" points="78.9 124.9 69.9 121.53 69.9 110.28 78.9 113.65 78.9 124.9"/><polygon class="cls-4" points="112.4 118.09 100.44 124.13 100.4 113.09 112.4 108.09 112.4 118.09"/><polygon class="cls-4" points="136.91 106.59 127.93 111.13 127.91 102.84 136.91 99.09 136.91 106.59"/><polygon class="cls-4" points="160.91 103.59 154.4 107.13 154.4 93.09 160.91 90.09 160.91 103.59"/><text class="cls-5" transform="translate(62.88 164.71)">Sadeltak</text></g></g></svg>