<svg xmlns="http://www.w3.org/2000/svg" viewBox="0 0 198.69 185.17"><defs><style>.cls-1,.cls-5{fill:#fff;}.cls-2{font-size:18px;font-family:ProximaNova-Regular, Proxima Nova;}.cls-3{letter-spacing:-0.06em;}.cls-4{fill:#f5f7f9;}.cls-4,.cls-5,.cls-6{stroke:#000;stroke-miterlimit:10;}.cls-5{stroke-width:0.75px;}.cls-6{fill:#d6d6d6;}</style></defs><title>Asset 9</title><g id="Layer_2" data-name="Layer 2"><g id="Layer_1-2" data-name="Layer 1"><rect class="cls-1" width="198.69" height="185.17"/><text class="cls-2" transform="translate(76.15 154.34)"><tspan class="cls-3">V</tspan><tspan x="10.71" y="0">almat</tspan><tspan x="-16.97" y="17">pyramidtak</tspan></text><polygon class="cls-4" points="106.96 132.59 34.35 104.37 33.1 75.84 106.96 98.74 106.96 132.59"/><polygon class="cls-5" points="168.09 97.94 106.96 132.59 106.96 98.74 168.09 71.14 168.09 97.94"/><polygon class="cls-6" points="168.09 71.14 106.96 98.74 104.59 45.74 138.3 36.53 168.09 71.14"/><polygon class="cls-6" points="106.96 98.74 33.1 75.84 65.24 37.9 104.59 45.74 106.96 98.74"/><polygon class="cls-6" points="104.59 45.74 65.24 37.9 102.24 21.44 104.59 45.74"/><polygon class="cls-6" points="138.3 36.53 104.59 45.74 102.24 21.44 138.3 36.53"/><polygon class="cls-5" points="68.92 111.06 60.92 108.06 60.92 97.69 68.92 100.69 68.92 111.06"/><polygon class="cls-5" points="56.7 105.99 48.7 102.99 48.7 92.99 56.7 95.99 56.7 105.99"/><polygon class="cls-5" points="81.69 116.15 73.07 112.92 73.07 102.15 81.69 105.38 81.69 116.15"/><polygon class="cls-5" points="94.88 121.03 85.88 117.66 85.88 106.77 94.88 110.14 94.88 121.03"/><polygon class="cls-5" points="126.35 113.11 114.39 119.15 114.35 108.11 126.35 102.15 126.35 113.11"/><polygon class="cls-5" points="146.53 102.96 137.55 107.5 137.52 98.21 146.53 93.74 146.53 102.96"/><polygon class="cls-5" points="165.13 99.42 159.22 102.84 159.22 88.8 165.13 85.91 165.13 99.42"/></g></g></svg>