<svg xmlns="http://www.w3.org/2000/svg" viewBox="0 0 198.69 185.89"><defs><style>.cls-1,.cls-6{fill:#fff;}.cls-2{font-size:18px;font-family:ProximaNova-Regular, Proxima Nova;}.cls-3{letter-spacing:0em;}.cls-4{fill:#f5f7f9;}.cls-4,.cls-5,.cls-6{stroke:#000;stroke-miterlimit:10;}.cls-5{fill:#d6d6d6;}.cls-6{stroke-width:0.75px;}</style></defs><title>Asset 14</title><g id="Layer_2" data-name="Layer 2"><g id="Layer_1-2" data-name="Layer 1"><rect class="cls-1" width="198.69" height="185.89"/><text class="cls-2" transform="translate(65.64 166.34)">Vin<tspan class="cls-3" x="25.83" y="0">k</tspan><tspan x="35.03" y="0">elhus</tspan></text><polygon class="cls-4" points="119.62 109.07 59.02 139.37 59.02 108.28 119.62 85.95 119.62 109.07"/><polygon class="cls-5" points="119.62 85.95 59.02 108.28 42.64 74.99 34.3 58.04 119.74 49.31 119.62 85.95"/><polygon class="cls-4" points="59.02 139.37 14.36 121.83 14.36 94.72 34.3 58.04 59.02 108.28 59.02 139.37"/><polygon class="cls-6" points="28.72 119.44 22.34 117.05 22.34 109.07 28.72 111.46 28.72 119.44"/><polygon class="cls-6" points="39.33 123.82 32.46 121.25 32.46 112.66 39.33 115.24 39.33 123.82"/><polygon class="cls-6" points="49.85 128.06 42.67 125.37 42.67 116.4 49.85 119.09 49.85 128.06"/><polygon class="cls-6" points="76.56 122.63 67.02 127.45 66.99 118.64 76.56 114.65 76.56 122.63"/><polygon class="cls-6" points="96.1 113.46 88.94 117.08 88.92 110.47 96.1 107.48 96.1 113.46"/><polygon class="cls-6" points="112.64 112.25 107.46 115.07 107.46 103.87 112.64 101.48 112.64 112.25"/><polygon class="cls-4" points="161.42 117.92 119.62 109.07 119.62 85.95 162.45 93.65 161.42 117.92"/><polygon class="cls-5" points="162.45 93.65 119.74 85.95 119.74 49.31 177.35 56.04 162.45 93.65"/><polygon class="cls-4" points="185.63 76.6 185.63 95.51 161.43 117.92 162.44 93.65 177.35 56.04 185.63 76.6"/><polygon class="cls-6" points="151.93 109.41 141.03 107.38 141.03 100.3 151.93 102.23 151.93 109.41"/><polygon class="cls-6" points="172.16 101.56 165.77 107.18 166.12 101.15 172.42 95.93 172.16 101.56"/><polygon class="cls-6" points="182.26 92.94 177.35 97.26 177.61 92.63 182.45 88.62 182.26 92.94"/></g></g></svg>