<?xml version="1.0" encoding="UTF-8"?>
<svg width="38px" height="31px" viewBox="0 0 38 31" version="1.1" xmlns="http://www.w3.org/2000/svg" xmlns:xlink="http://www.w3.org/1999/xlink">
    <!-- Generator: Sketch 46.2 (44496) - http://www.bohemiancoding.com/sketch -->
    <title>Page 1 Copy 24</title>
    <desc>Created with Sketch.</desc>
    <defs>
        <polygon id="path-1" points="0 30.5 37.6056216 30.5 37.6056216 0.1615 0 0.1615"></polygon>
    </defs>
    <g id="Page-1---Startsida/Landingpage" stroke="none" stroke-width="1" fill="none" fill-rule="evenodd">
        <g id="Page-1-Copy-24">
            <polygon id="Stroke-1" stroke="#000000" stroke-width="0.529704" stroke-linecap="round" points="3.46518919 21.79015 5.29945946 21.79015 5.29945946 20.00415 3.46518919 20.00415"></polygon>
            <polygon id="Stroke-2" stroke="#000000" stroke-width="0.529704" stroke-linecap="round" points="7.2312973 21.79015 9.06248649 21.79015 9.06248649 20.00415 7.2312973 20.00415"></polygon>
            <polygon id="Stroke-3" stroke="#000000" stroke-width="0.529704" stroke-linecap="round" points="10.9974054 21.79015 12.8285946 21.79015 12.8285946 20.00415 10.9974054 20.00415"></polygon>
            <polygon id="Stroke-4" stroke="#000000" stroke-width="0.529704" stroke-linecap="round" points="3.46518919 24.90265 5.29945946 24.90265 5.29945946 23.11915 3.46518919 23.11915"></polygon>
            <polygon id="Stroke-5" stroke="#000000" stroke-width="0.529704" stroke-linecap="round" points="7.2312973 24.90265 9.06248649 24.90265 9.06248649 23.11915 7.2312973 23.11915"></polygon>
            <polygon id="Stroke-6" stroke="#000000" stroke-width="0.529704" stroke-linecap="round" points="10.9974054 24.90265 12.8285946 24.90265 12.8285946 23.11915 10.9974054 23.11915"></polygon>
            <polygon id="Stroke-7" stroke="#000000" stroke-width="0.529704" stroke-linecap="round" points="14.5699189 5.60915 16.4031622 5.60915 16.4031622 3.82415 14.5699189 3.82415"></polygon>
            <polygon id="Stroke-8" stroke="#000000" stroke-width="0.529704" stroke-linecap="round" points="18.3355135 5.60915 20.1692703 5.60915 20.1692703 3.82415 18.3355135 3.82415"></polygon>
            <polygon id="Stroke-9" stroke="#000000" stroke-width="0.529704" stroke-linecap="round" points="22.1011081 5.60915 23.9348649 5.60915 23.9348649 3.82415 22.1011081 3.82415"></polygon>
            <polygon id="Stroke-10" stroke="#000000" stroke-width="0.529704" stroke-linecap="round" points="14.5688919 8.72165 16.4031622 8.72165 16.4031622 6.93865 14.5688919 6.93865"></polygon>
            <polygon id="Stroke-11" stroke="#000000" stroke-width="0.529704" stroke-linecap="round" points="18.335 8.72165 20.1692703 8.72165 20.1692703 6.93865 18.335 6.93865"></polygon>
            <polygon id="Stroke-12" stroke="#000000" stroke-width="0.529704" stroke-linecap="round" points="22.1011081 8.72165 23.9353784 8.72165 23.9353784 6.93865 22.1011081 6.93865"></polygon>
            <polygon id="Stroke-13" stroke="#000000" stroke-width="0.529704" stroke-linecap="round" points="14.5688919 11.83765 16.4031622 11.83765 16.4031622 10.05115 14.5688919 10.05115"></polygon>
            <polygon id="Stroke-14" stroke="#000000" stroke-width="0.529704" stroke-linecap="round" points="18.335 11.83765 20.1692703 11.83765 20.1692703 10.05115 18.335 10.05115"></polygon>
            <polygon id="Stroke-15" stroke="#000000" stroke-width="0.529704" stroke-linecap="round" points="14.5688919 15.13665 16.4031622 15.13665 16.4031622 13.35015 14.5688919 13.35015"></polygon>
            <polygon id="Stroke-16" stroke="#000000" stroke-width="0.529704" stroke-linecap="round" points="18.335 15.13665 20.1692703 15.13665 20.1692703 13.35015 18.335 13.35015"></polygon>
            <path d="M22.1011081,8.72165 L23.9353784,8.72165 L23.9353784,6.93865 L22.1011081,6.93865 L22.1011081,8.72165 Z M18.335,8.72165 L20.1692703,8.72165 L20.1692703,6.93865 L18.335,6.93865 L18.335,8.72165 Z M18.335,11.83765 L20.1692703,11.83765 L20.1692703,10.05115 L18.335,10.05115 L18.335,11.83765 Z M18.335,15.13665 L20.1692703,15.13665 L20.1692703,13.35015 L18.335,13.35015 L18.335,15.13665 Z M14.5688919,8.72165 L16.4031622,8.72165 L16.4031622,6.93865 L14.5688919,6.93865 L14.5688919,8.72165 Z M14.5688919,11.83765 L16.4031622,11.83765 L16.4031622,10.05115 L14.5688919,10.05115 L14.5688919,11.83765 Z M14.5688919,15.13665 L16.4031622,15.13665 L16.4031622,13.35015 L14.5688919,13.35015 L14.5688919,15.13665 Z" id="Stroke-17" stroke="#000000" stroke-width="0.529704" stroke-linecap="round"></path>
            <g id="Group-43" transform="translate(0.000000, 0.338650)">
                <path d="M21.7991622,11.3855 L21.7991622,29.965 L15.8182703,29.9465 L15.8182703,18.121 C15.8182703,18.047 15.7982432,17.811 15.7715405,17.748 C15.6852703,17.5325 15.4721622,17.38 15.2205405,17.38 L11.9227568,17.38 L11.9227568,1.4065 C11.9227568,1.0125 12.2488378,0.6945 12.652973,0.6945 L25.9103514,0.6945 C26.2826486,0.6945 26.582027,0.986 26.582027,1.349 L26.582027,10.456 L22.5791892,10.456 C22.3979189,10.456 22.1303784,10.6225 21.9978919,10.722 C21.8145676,10.864 21.7991622,11.1415 21.7991622,11.3855 Z" id="Stroke-18" stroke="#000000" stroke-width="1.075032" stroke-linecap="round"></path>
                <mask id="mask-2" fill="white">
                    <use xlink:href="#path-1"></use>
                </mask>
                <g id="Clip-21"></g>
                <polygon id="Stroke-20" stroke="#000000" stroke-width="0.529704" stroke-linecap="round" mask="url(#mask-2)" points="14.5688919 8.383 16.4031622 8.383 16.4031622 6.6 14.5688919 6.6"></polygon>
                <polygon id="Stroke-22" stroke="#000000" stroke-width="0.529704" stroke-linecap="round" mask="url(#mask-2)" points="14.5688919 11.499 16.4031622 11.499 16.4031622 9.7125 14.5688919 9.7125"></polygon>
                <polygon id="Stroke-23" stroke="#000000" stroke-width="0.529704" stroke-linecap="round" mask="url(#mask-2)" points="14.5688919 14.798 16.4031622 14.798 16.4031622 13.0115 14.5688919 13.0115"></polygon>
                <polygon id="Stroke-24" stroke="#000000" stroke-width="0.529704" stroke-linecap="round" mask="url(#mask-2)" points="18.335 8.383 20.1692703 8.383 20.1692703 6.6 18.335 6.6"></polygon>
                <polygon id="Stroke-25" stroke="#000000" stroke-width="0.529704" stroke-linecap="round" mask="url(#mask-2)" points="18.335 11.499 20.1692703 11.499 20.1692703 9.7125 18.335 9.7125"></polygon>
                <polygon id="Stroke-26" stroke="#000000" stroke-width="0.529704" stroke-linecap="round" mask="url(#mask-2)" points="18.335 14.798 20.1692703 14.798 20.1692703 13.0115 18.335 13.0115"></polygon>
                <polygon id="Stroke-27" stroke="#000000" stroke-width="0.529704" stroke-linecap="round" mask="url(#mask-2)" points="32.2748378 16.051 34.1080811 16.051 34.1080811 14.266 32.2748378 14.266"></polygon>
                <polygon id="Stroke-28" stroke="#000000" stroke-width="0.529704" stroke-linecap="round" mask="url(#mask-2)" points="32.2748378 19.1655 34.1080811 19.1655 34.1080811 17.3805 32.2748378 17.3805"></polygon>
                <polygon id="Stroke-29" stroke="#000000" stroke-width="0.529704" stroke-linecap="round" mask="url(#mask-2)" points="32.2748378 22.2795 34.1080811 22.2795 34.1080811 20.4945 32.2748378 20.4945"></polygon>
                <polygon id="Stroke-30" stroke="#000000" stroke-width="0.529704" stroke-linecap="round" mask="url(#mask-2)" points="28.5092432 16.051 30.3424865 16.051 30.3424865 14.266 28.5092432 14.266"></polygon>
                <polygon id="Stroke-31" stroke="#000000" stroke-width="0.529704" stroke-linecap="round" mask="url(#mask-2)" points="28.5092432 19.1655 30.3424865 19.1655 30.3424865 17.3805 28.5092432 17.3805"></polygon>
                <polygon id="Stroke-32" stroke="#000000" stroke-width="0.529704" stroke-linecap="round" mask="url(#mask-2)" points="28.5092432 22.2795 30.3424865 22.2795 30.3424865 20.4945 28.5092432 20.4945"></polygon>
                <polygon id="Stroke-33" stroke="#000000" stroke-width="0.529704" stroke-linecap="round" mask="url(#mask-2)" points="24.7436486 16.051 26.5768919 16.051 26.5768919 14.266 24.7436486 14.266"></polygon>
                <polygon id="Stroke-34" stroke="#000000" stroke-width="0.529704" stroke-linecap="round" mask="url(#mask-2)" points="24.7436486 19.1655 26.5768919 19.1655 26.5768919 17.3805 24.7436486 17.3805"></polygon>
                <polygon id="Stroke-35" stroke="#000000" stroke-width="0.529704" stroke-linecap="round" mask="url(#mask-2)" points="24.7436486 22.2795 26.5768919 22.2795 26.5768919 20.4945 24.7436486 20.4945"></polygon>
                <path d="M36.1514541,10.45585 L22.5787784,10.45585 C22.3980216,10.45585 22.2280486,10.51635 22.0960757,10.61585 C21.9122378,10.75785 21.7936162,10.97585 21.7936162,11.21985 L21.7936162,29.96535 L37.0578054,29.96535 L37.0578054,11.33835 C37.0578054,10.85235 36.6505892,10.45585 36.1514541,10.45585 Z" id="Stroke-36" stroke="#000000" stroke-width="2.07500005" stroke-linecap="round" mask="url(#mask-2)"></path>
                <path d="M15.7713865,17.7478 C15.6851162,17.5323 15.4720081,17.3803 15.2209,17.3803 L1.02225135,17.3803 C0.760872973,17.3803 0.547764865,17.5878 0.547764865,17.8423 L0.547764865,29.9653 L15.8119541,29.9653 L15.8119541,17.9553 C15.8119541,17.8818 15.7986027,17.8108 15.7713865,17.7478 Z" id="Stroke-37" stroke="#000000" stroke-width="2.07500005" stroke-linecap="round" mask="url(#mask-2)"></path>
                <polygon id="Stroke-38" stroke="#000000" stroke-width="0.529704" stroke-linecap="round" mask="url(#mask-2)" points="3.46518919 24.564 5.29945946 24.564 5.29945946 22.7805 3.46518919 22.7805"></polygon>
                <polygon id="Stroke-39" stroke="#000000" stroke-width="0.529704" stroke-linecap="round" mask="url(#mask-2)" points="7.2312973 21.4515 9.06248649 21.4515 9.06248649 19.6655 7.2312973 19.6655"></polygon>
                <polygon id="Stroke-40" stroke="#000000" stroke-width="0.529704" stroke-linecap="round" mask="url(#mask-2)" points="7.2312973 24.564 9.06248649 24.564 9.06248649 22.7805 7.2312973 22.7805"></polygon>
                <polygon id="Stroke-41" stroke="#000000" stroke-width="0.529704" stroke-linecap="round" mask="url(#mask-2)" points="10.9974054 21.4515 12.8285946 21.4515 12.8285946 19.6655 10.9974054 19.6655"></polygon>
                <polygon id="Stroke-42" stroke="#000000" stroke-width="0.529704" stroke-linecap="round" mask="url(#mask-2)" points="10.9974054 24.564 12.8285946 24.564 12.8285946 22.7805 10.9974054 22.7805"></polygon>
            </g>
        </g>
    </g>
</svg>