<?xml version="1.0" encoding="UTF-8"?>
<svg width="39px" height="37px" viewBox="0 0 39 37" version="1.1" xmlns="http://www.w3.org/2000/svg" xmlns:xlink="http://www.w3.org/1999/xlink">
    <!-- Generator: Sketch 46.2 (44496) - http://www.bohemiancoding.com/sketch -->
    <title>Page 1</title>
    <desc>Created with Sketch.</desc>
    <defs></defs>
    <g id="Page-1---Startsida/Landingpage" stroke="none" stroke-width="1" fill="none" fill-rule="evenodd">
        <g id="Desktop-Copy-9" transform="translate(-182.000000, -5826.000000)" fill="#6F7C82">
            <path d="M182,5826 C182,5826 182.270208,5837.61314 182.720554,5839.50365 C183.170901,5841.39416 183.981524,5844.45499 184.792148,5845.71533 C185.602771,5846.97567 186.863741,5848.86618 189.115473,5850.0365 C191.367206,5851.20681 195.420323,5850.93674 195.420323,5850.93674 L199.203233,5850.57664 C199.203233,5850.57664 201.545035,5854.17762 202.445727,5856.96837 C203.34642,5859.75912 204.337182,5862.81995 204.337182,5862.81995 L206.588915,5863 C206.588915,5863 207.579677,5859.57908 207.669746,5859.12895 C207.759815,5858.67883 208.120092,5856.78832 208.840647,5856.15815 C208.840647,5856.15815 211.362587,5856.24818 213.344111,5855.79805 C215.325635,5855.34793 216.676674,5854.71776 217.397229,5853.90754 C218.117783,5853.09732 218.47806,5852.37713 218.47806,5852.37713 C218.47806,5852.37713 219.018476,5851.20681 219.198614,5849.6764 C219.378753,5848.14599 219.378753,5846.7056 219.378753,5846.7056 L219.378753,5844.45499 C219.378753,5844.45499 219.468822,5842.74453 219.73903,5841.39416 C220.009238,5840.0438 220.279446,5839.23358 220.279446,5839.23358 C220.279446,5839.23358 220.819861,5837.70316 221,5837.52311 C221,5837.52311 218.838337,5839.14355 217.036952,5839.41363 C215.235566,5839.6837 213.163972,5840.22384 213.163972,5840.22384 C213.163972,5840.22384 210.371824,5840.76399 208.750577,5842.6545 C207.12933,5844.54501 206.859122,5845.71533 206.859122,5845.71533 C206.859122,5845.71533 206.408776,5846.88564 206.408776,5849.76642 C206.408776,5852.6472 206.678984,5853.0073 206.678984,5853.0073 L208.48037,5851.29684 C208.48037,5851.29684 211.542725,5848.68613 213.43418,5847.87591 L210.91224,5850.66667 C210.91224,5850.66667 209.290993,5852.46715 208.300231,5854.17762 C207.309469,5855.88808 206.408776,5858.04866 206.408776,5858.04866 L205.598152,5860.56934 L203.706697,5856.24818 C203.706697,5856.24818 202.625866,5853.99757 201.905312,5852.6472 C201.184758,5851.29684 199.65358,5848.59611 198.122402,5846.7056 C196.591224,5844.81509 194.789838,5843.28467 194.789838,5843.28467 C194.789838,5843.28467 193.078522,5842.11436 192.177829,5841.57421 C192.177829,5841.57421 194.879908,5842.47445 196.861432,5843.91484 C198.842956,5845.35523 201.725173,5847.78589 201.725173,5847.78589 C201.725173,5847.78589 202.986143,5844.36496 202.896074,5842.2944 C202.806005,5840.22384 202.896074,5839.77372 201.635104,5837.88321 C200.374134,5835.9927 197.221709,5834.73236 197.221709,5834.73236 C197.221709,5834.73236 194.699769,5833.74209 192.808314,5833.20195 C190.916859,5832.6618 188.214781,5831.94161 186.503464,5830.77129 C184.792148,5829.60097 184.071594,5828.88078 184.071594,5828.88078 C184.071594,5828.88078 182.180139,5826.63017 182,5826" id="Page-1"></path>
        </g>
    </g>
</svg>