<?xml version="1.0" encoding="UTF-8"?>
<svg width="40px" height="43px" viewBox="0 0 40 43" version="1.1" xmlns="http://www.w3.org/2000/svg" xmlns:xlink="http://www.w3.org/1999/xlink">
    <!-- Generator: Sketch 46.2 (44496) - http://www.bohemiancoding.com/sketch -->
    <title>Page 1</title>
    <desc>Created with Sketch.</desc>
    <defs></defs>
    <g id="Page-1---Startsida/Landingpage" stroke="none" stroke-width="1" fill="none" fill-rule="evenodd">
        <g id="Desktop-Copy-9" transform="translate(-550.000000, -5819.000000)">
            <g id="Page-1" transform="translate(551.000000, 5820.000000)">
                <path d="M34.2772828,20.9919144 C33.9120442,21.8668698 32.830984,21.9543558 32.830984,21.9543558 C33.7951832,23.3017736 33.7951832,24.3604591 33.6987633,25.5153886 C33.6023434,26.6703182 32.3488844,27.5365154 32.3488844,27.5365154 C33.1202438,29.1726656 32.9274039,29.461398 32.7345641,30.5200835 C32.5417242,31.5787689 31.1918453,32.348722 31.1918453,32.348722 C31.3846851,33.0224309 31.577525,33.7923839 31.4811051,35.0435576 C31.2882652,36.5834637 29.7455464,37.3534168 29.1670269,37.4496609 C28.5885073,37.5459051 28.974187,37.5459051 25.6959096,37.7383933 C22.4176322,37.9308816 19.5250345,37.1609285 19.5250345,37.1609285 C19.5250345,37.1609285 16.1503372,36.2947314 14.1255188,35.5247783 C12.1007004,34.7548252 10.8472414,34.7548252 10.8472414,34.7548252 L9.49736247,34.7548252 L9.49736247,18.8745436 C10.2687219,19.0670318 11.329341,18.6820553 11.329341,18.6820553 C12.3899602,18.2008346 13.932679,16.275952 13.932679,16.275952 C13.932679,16.275952 16.7288567,12.8111633 18.2715755,10.8862806 C19.8142943,8.96139802 19.8142943,7.9989567 19.8142943,7.9989567 C19.8142943,7.9989567 20.199974,6.36280647 20.3928138,5.20787689 C20.5856537,4.05294731 21.3570131,3.090506 21.3570131,3.090506 L22.3212123,3.090506 C23.5746713,3.090506 24.4424506,4.05294731 24.4424506,4.05294731 C24.4424506,4.05294731 25.1173901,5.20787689 25.3102299,7.22900365 C25.5030698,9.25013041 24.7317104,10.3088159 24.0567709,11.9449661 C23.3818315,13.5811163 22.9961518,15.7947314 22.9961518,15.7947314 L31.9632047,15.7947314 C33.8916031,15.7947314 34.7593825,17.8115271 34.7593825,18.8745436 C34.7593825,19.4520083 34.7593825,19.8369849 34.2772828,20.9919144 M4.82099618,34.7548252 C3.94261068,34.7548252 3.23006744,34.0225037 3.23006744,33.118675 C3.23006744,32.2148464 3.94261068,31.4825248 4.82099618,31.4825248 C5.69938168,31.4825248 6.41192492,32.2148464 6.41192492,33.118675 C6.41192492,34.0225037 5.69938168,34.7548252 4.82099618,34.7548252 M36.6877809,22.9167971 C36.6877809,22.9167971 38.3269196,20.7994262 37.9412399,18.0083464 C37.5555602,15.2172666 35.2414821,13.7736046 35.2414821,13.7736046 C35.2414821,13.7736046 34.084443,12.618675 31.9632047,12.618675 L27.3350483,12.618675 C27.3350483,12.618675 28.5885073,9.92383933 28.4920874,7.61398018 C28.3956675,5.30412102 27.9135679,3.95670318 27.6243081,3.28299426 C27.3350483,2.60928534 26.3708491,1.45435576 25.1173901,0.780646844 C23.8639311,0.106937924 21.6462728,0.0106937924 21.6462728,0.0106937924 C21.6462728,0.0106937924 20.6820736,-0.0855503391 20.0071341,0.299426187 C19.3321947,0.684402713 18.8500951,1.2618675 18.8500951,1.2618675 C18.8500951,1.2618675 18.2715755,1.74308816 17.8858958,2.70552947 C17.5002161,3.66797079 17.2109564,5.20787689 17.2109564,5.20787689 L16.7288567,7.42149191 C16.7288567,7.42149191 16.439597,8.38393323 15.9574974,8.86515389 C15.4753977,9.34637454 11.9078606,13.6773605 11.9078606,13.6773605 C11.9078606,13.6773605 10.6544016,15.3135107 9.93125213,15.7466093 L3.08543756,15.7466093 C3.08543756,15.7466093 0,15.8428534 0,18.8264215 L0,34.4179708 C0,34.4179708 0.192839847,37.7865154 2.98901763,37.7865154 L9.35273259,37.7865154 C9.35273259,37.7865154 11.0882912,37.7865154 12.0524904,38.1714919 C13.0166897,38.5564684 16.4878069,39.711398 16.4878069,39.711398 C16.4878069,39.711398 19.3321947,40.7219614 22.706892,40.9144497 C26.0815893,41.1069379 28.2028277,40.9144497 28.2028277,40.9144497 C28.2028277,40.9144497 31.0922435,40.5326492 32.5417242,39.0858112 C33.6023434,38.0271257 33.7951832,37.6421492 33.9880231,37.2571727 C34.1808629,36.8721961 34.6629625,35.9097548 34.4701227,33.5998957 C34.4701227,33.5998957 36.6877809,31.0013041 35.9164215,28.1139802 C35.9164215,28.1139802 37.6519802,24.9379238 36.6877809,22.9167971" id="Fill-1" fill="#000000"></path>
                <path d="M34.2772828,20.9919144 C33.9120442,21.8668698 32.830984,21.9543558 32.830984,21.9543558 C33.7951832,23.3017736 33.7951832,24.3604591 33.6987633,25.5153886 C33.6023434,26.6703182 32.3488844,27.5365154 32.3488844,27.5365154 C33.1202438,29.1726656 32.9274039,29.461398 32.7345641,30.5200835 C32.5417242,31.5787689 31.1918453,32.348722 31.1918453,32.348722 C31.3846851,33.0224309 31.577525,33.7923839 31.4811051,35.0435576 C31.2882652,36.5834637 29.7455464,37.3534168 29.1670269,37.4496609 C28.5885073,37.5459051 28.974187,37.5459051 25.6959096,37.7383933 C22.4176322,37.9308816 19.5250345,37.1609285 19.5250345,37.1609285 C19.5250345,37.1609285 16.1503372,36.2947314 14.1255188,35.5247783 C12.1007004,34.7548252 10.8472414,34.7548252 10.8472414,34.7548252 L9.49736247,34.7548252 L9.49736247,18.8745436 C10.2687219,19.0670318 11.329341,18.6820553 11.329341,18.6820553 C12.3899602,18.2008346 13.932679,16.275952 13.932679,16.275952 C13.932679,16.275952 16.7288567,12.8111633 18.2715755,10.8862806 C19.8142943,8.96139802 19.8142943,7.9989567 19.8142943,7.9989567 C19.8142943,7.9989567 20.199974,6.36280647 20.3928138,5.20787689 C20.5856537,4.05294731 21.3570131,3.090506 21.3570131,3.090506 L22.3212123,3.090506 C23.5746713,3.090506 24.4424506,4.05294731 24.4424506,4.05294731 C24.4424506,4.05294731 25.1173901,5.20787689 25.3102299,7.22900365 C25.5030698,9.25013041 24.7317104,10.3088159 24.0567709,11.9449661 C23.3818315,13.5811163 22.9961518,15.7947314 22.9961518,15.7947314 L31.9632047,15.7947314 C33.8916031,15.7947314 34.7593825,17.8115271 34.7593825,18.8745436 C34.7593825,19.4520083 34.7593825,19.8369849 34.2772828,20.9919144 Z M4.82099618,34.7548252 C3.94261068,34.7548252 3.23006744,34.0225037 3.23006744,33.118675 C3.23006744,32.2148464 3.94261068,31.4825248 4.82099618,31.4825248 C5.69938168,31.4825248 6.41192492,32.2148464 6.41192492,33.118675 C6.41192492,34.0225037 5.69938168,34.7548252 4.82099618,34.7548252 Z M36.6877809,22.9167971 C36.6877809,22.9167971 38.3269196,20.7994262 37.9412399,18.0083464 C37.5555602,15.2172666 35.2414821,13.7736046 35.2414821,13.7736046 C35.2414821,13.7736046 34.084443,12.618675 31.9632047,12.618675 L27.3350483,12.618675 C27.3350483,12.618675 28.5885073,9.92383933 28.4920874,7.61398018 C28.3956675,5.30412102 27.9135679,3.95670318 27.6243081,3.28299426 C27.3350483,2.60928534 26.3708491,1.45435576 25.1173901,0.780646844 C23.8639311,0.106937924 21.6462728,0.0106937924 21.6462728,0.0106937924 C21.6462728,0.0106937924 20.6820736,-0.0855503391 20.0071341,0.299426187 C19.3321947,0.684402713 18.8500951,1.2618675 18.8500951,1.2618675 C18.8500951,1.2618675 18.2715755,1.74308816 17.8858958,2.70552947 C17.5002161,3.66797079 17.2109564,5.20787689 17.2109564,5.20787689 L16.7288567,7.42149191 C16.7288567,7.42149191 16.439597,8.38393323 15.9574974,8.86515389 C15.4753977,9.34637454 11.9078606,13.6773605 11.9078606,13.6773605 C11.9078606,13.6773605 10.6544016,15.3135107 9.93125213,15.7466093 L3.08543756,15.7466093 C3.08543756,15.7466093 0,15.8428534 0,18.8264215 L0,34.4179708 C0,34.4179708 0.192839847,37.7865154 2.98901763,37.7865154 L9.35273259,37.7865154 C9.35273259,37.7865154 11.0882912,37.7865154 12.0524904,38.1714919 C13.0166897,38.5564684 16.4878069,39.711398 16.4878069,39.711398 C16.4878069,39.711398 19.3321947,40.7219614 22.706892,40.9144497 C26.0815893,41.1069379 28.2028277,40.9144497 28.2028277,40.9144497 C28.2028277,40.9144497 31.0922435,40.5326492 32.5417242,39.0858112 C33.6023434,38.0271257 33.7951832,37.6421492 33.9880231,37.2571727 C34.1808629,36.8721961 34.6629625,35.9097548 34.4701227,33.5998957 C34.4701227,33.5998957 36.6877809,31.0013041 35.9164215,28.1139802 C35.9164215,28.1139802 37.6519802,24.9379238 36.6877809,22.9167971 Z" id="Stroke-3" stroke="#6F7C82" stroke-width="0.5" fill="#6F7C82"></path>
            </g>
        </g>
    </g>
</svg>