<?xml version="1.0" encoding="UTF-8"?>
<svg width="29px" height="21px" viewBox="0 0 29 21" version="1.1" xmlns="http://www.w3.org/2000/svg" xmlns:xlink="http://www.w3.org/1999/xlink">
    <!-- Generator: Sketch 46.2 (44496) - http://www.bohemiancoding.com/sketch -->
    <title>Group 42</title>
    <desc>Created with Sketch.</desc>
    <defs></defs>
    <g id="Page-1---Startsida/Landingpage" stroke="none" stroke-width="1" fill="none" fill-rule="evenodd">
        <g id="Group-42" stroke="#2ABFBF" stroke-width="1.1889">
            <path d="M27.7502581,1.26663636 C27.8008387,1.26845455 27.8297419,1.32572727 27.8008387,1.36754545 L25.0487097,5.34754545 L22.2297419,9.42390909 L20.8776129,11.3757273 C20.8640645,11.3948182 20.8432903,11.4039091 20.8207097,11.403 L10.057871,10.6484545 L5.27529032,10.3148182 L0.656193548,9.99118182 C0.597483871,9.98663636 0.574903226,9.913 0.620967742,9.87663636 L11.8878065,0.908454545 C11.8986452,0.899363636 11.9130968,0.894818182 11.9275484,0.894818182 L27.7502581,1.26663636 Z" id="Stroke-20"></path>
            <path d="M27.7502581,5.41172727 C27.8008387,5.41263636 27.8297419,5.46990909 27.8008387,5.51172727 L25.0487097,9.489 L20.8776129,15.5171818 C20.8640645,15.5362727 20.8432903,15.5453636 20.8207097,15.5444545 L5.27529032,14.4562727 L0.656193548,14.1353636 C0.597483871,14.1308182 0.575806452,14.0571818 0.620967742,14.0208182 L5.25632258,10.3308182 C5.26806452,10.3208182 5.28341935,10.3162727 5.29967742,10.3171818 L10.057871,10.649 L20.8207097,11.4035455 C20.8432903,11.4044545 20.8640645,11.3944545 20.8776129,11.3762727 L22.2297419,9.42354545 L25.0288387,5.37627273 C25.0414839,5.35809091 25.0613548,5.349 25.0830323,5.349 L27.7502581,5.41172727 Z" id="Stroke-22"></path>
            <path d="M27.8004774,9.65354545 L20.8772516,19.6617273 C20.8637032,19.6799091 20.842929,19.6908182 20.8203484,19.689 L0.655832258,18.2762727 C0.598025806,18.2717273 0.575445161,18.1980909 0.620606452,18.1617273 L5.25596129,14.4726364 C5.26860645,14.4626364 5.28305806,14.4571818 5.29931613,14.4580909 L20.8203484,15.5444545 C20.842929,15.5453636 20.8637032,15.5362727 20.8772516,15.5171818 L25.0293806,9.51809091 C25.0411226,9.49990909 25.0618968,9.489 25.082671,9.48990909 L27.7498968,9.55263636 C27.8004774,9.55445455 27.8293806,9.61172727 27.8004774,9.65354545 Z" id="Stroke-24"></path>
        </g>
    </g>
</svg>