<?xml version="1.0" encoding="UTF-8"?>
<svg width="32px" height="30px" viewBox="0 0 32 30" version="1.1" xmlns="http://www.w3.org/2000/svg" xmlns:xlink="http://www.w3.org/1999/xlink">
    <!-- Generator: Sketch 46.2 (44496) - http://www.bohemiancoding.com/sketch -->
    <title>Group 40</title>
    <desc>Created with Sketch.</desc>
    <defs></defs>
    <g id="Page-1---Startsida/Landingpage" stroke="none" stroke-width="1" fill="none" fill-rule="evenodd">
        <g id="Group-40" fill="#2ABFBF">
            <path d="M25.0059556,15.876 L25.0059556,25.5178182 L18.7401778,25.5178182 L18.7401778,23.8096364 C18.7401778,21.9778182 18.7472889,20.146 18.7304,18.3141818 C18.7286222,18.0050909 18.6086222,17.6950909 18.5526222,17.4205455 L13.0672889,17.4205455 L13.0672889,25.4932727 L6.72684444,25.4932727 L6.72684444,15.866 C9.78373333,12.8414545 12.7970667,9.86236364 15.8539556,6.836 C18.9090667,9.85236364 21.9366222,12.8414545 25.0059556,15.876" id="Fill-1"></path>
            <path d="M20.9937778,7.04881818 L20.9937778,2.73881818 L24.0577778,2.73881818 L24.0577778,9.98427273 C25.1608889,11.0551818 27.2302222,13.0633636 27.2302222,13.0633636 L25.616,14.7224545 C25.616,14.7224545 21.7573333,10.9979091 19.792,9.09790909 C18.7724444,8.11245455 17.7555556,7.12245455 16.7368889,6.13518182 C16.008,5.42972727 15.72,5.43063636 14.9706667,6.15609091 C12.1848889,8.84972727 9.40177778,11.547 6.61777778,14.2433636 C6.43733333,14.4188182 6.06666667,14.7642727 6.06666667,14.7642727 L4.44888889,13.1324545 C4.44888889,13.1324545 5.17511111,12.4188182 5.57333333,12.0342727 C8.52977778,9.18881818 11.4808889,6.33881818 14.4435556,3.50063636 C15.5804444,2.41154545 16.2115556,2.43427273 17.3235556,3.51609091 C18.496,4.657 19.6791111,5.78427273 20.9937778,7.04881818" id="Fill-3"></path>
            <path d="M26.8227556,27.5725455 C26.8654222,27.4089091 26.9072,27.2489091 26.9489778,27.0907273 C27.3658667,27.5152727 27.7605333,27.9143636 28.1872,28.3489091 C27.8067556,28.6861818 27.3863111,29.0598182 26.9480889,29.448 C26.9214222,29.3661818 26.8680889,29.1970909 26.8085333,29.0089091 L4.86453333,29.0089091 C4.81742222,29.1561818 4.76408889,29.3252727 4.72675556,29.4443636 C4.32942222,29.0507273 3.94986667,28.6734545 3.55164444,28.2789091 C3.91875556,27.9189091 4.29831111,27.5452727 4.71075556,27.1398182 C4.76142222,27.2834545 4.80675556,27.4143636 4.86275556,27.5725455 L26.8227556,27.5725455 Z" id="Fill-5"></path>
            <path d="M30.9052444,24.0906364 C31.1194667,24.1706364 31.2785778,24.2297273 31.4572444,24.297 C31.0385778,24.697 30.6492444,25.0688182 30.2412444,25.4588182 C29.9292444,25.0879091 29.5719111,24.6606364 29.2145778,24.2342727 C29.2279111,24.2288182 29.3959111,24.1633636 29.6154667,24.0788182 L29.6154667,3.93790909 C29.4154667,3.89063636 29.2545778,3.85245455 29.1239111,3.82154545 C29.5043556,3.41790909 29.8839111,3.01427273 30.2465778,2.62881818 C30.6030222,3.00154545 30.9870222,3.40336364 31.3790222,3.81336364 C31.2785778,3.83881818 31.1212444,3.87790909 30.9052444,3.93154545 L30.9052444,24.0906364 Z" id="Fill-7"></path>
            <path d="M2.31235556,12.2804545 C2.35502222,12.3586364 2.42613333,12.4886364 2.5248,12.6731818 L0.818133333,12.6731818 L0.818133333,10.955 C0.994133333,11.0522727 1.13457778,11.1304545 1.25013333,11.1959091 C4.59235556,7.76590909 7.92924444,4.34318182 11.3194667,0.865 C11.2848,0.796818182 11.2021333,0.635 11.1025778,0.440454545 L12.8101333,0.440454545 L12.8101333,2.14590909 C12.6581333,2.08772727 12.4936889,2.025 12.3479111,1.96863636 C9.0208,5.38772727 5.70346667,8.79590909 2.31235556,12.2804545" id="Fill-9"></path>
        </g>
    </g>
</svg>