<?xml version="1.0" encoding="UTF-8"?>
<svg width="42px" height="32px" viewBox="0 0 42 32" version="1.1" xmlns="http://www.w3.org/2000/svg" xmlns:xlink="http://www.w3.org/1999/xlink">
    <!-- Generator: Sketch 46.2 (44496) - http://www.bohemiancoding.com/sketch -->
    <title>Page 1 Copy 23</title>
    <desc>Created with Sketch.</desc>
    <defs></defs>
    <g id="Page-1---Startsida/Landingpage" stroke="none" stroke-width="1" fill="none" fill-rule="evenodd" stroke-linecap="round">
        <g id="Page-1-Copy-23" transform="translate(2.000000, 1.000000)" stroke="#000000">
            <path d="M37.8423253,10.7965982 L37.8423253,28.4285982 C37.8423253,28.6860368 37.6366187,28.8966684 37.376192,28.8966684 L1.045152,28.8966684 C0.578512,28.8966684 0.201552,28.5181421 0.201552,28.0500719 L0.201552,3.13398421 C0.201552,3.13398421 0.263872,0.0777912281 3.828272,0.207019298 C7.39317867,0.335229825 7.19912533,3.06784386 7.19912533,3.06784386 L7.19912533,14.3798789 L15.5996587,10.3514228 C15.9102453,10.2033702 16.267952,10.4297737 16.267952,10.7731947 L16.267952,14.6653 C16.267952,15.0163526 16.6368053,15.2427561 16.9484053,15.082493 L26.149472,10.3788965 C26.4605653,10.2186333 26.8299253,10.4455456 26.8299253,10.7965982 L26.8299253,14.9222298 C26.8299253,15.2737912 27.1987787,15.5001947 27.509872,15.3404404 L37.161872,10.3788965 C37.4729653,10.2186333 37.8423253,10.4455456 37.8423253,10.7965982 Z" id="Stroke-1" stroke-width="2.40899992"></path>
            <path d="M9.65752267,22.3557439 L6.980296,22.3557439 C6.71378933,22.3557439 6.498456,22.139007 6.498456,21.8724105 L6.498456,19.1835509 C6.498456,18.9164456 6.71378933,18.6997088 6.980296,18.6997088 L9.65752267,18.6997088 C9.923016,18.6997088 10.138856,18.9164456 10.138856,19.1835509 L10.138856,21.8724105 C10.138856,22.139007 9.923016,22.3557439 9.65752267,22.3557439 Z" id="Stroke-3" stroke-width="0.74592"></path>
            <path d="M17.9229787,22.3557439 L15.245752,22.3557439 C14.9792453,22.3557439 14.7644187,22.139007 14.7644187,21.8724105 L14.7644187,19.1835509 C14.7644187,18.9164456 14.9792453,18.6997088 15.245752,18.6997088 L17.9229787,18.6997088 C18.1889787,18.6997088 18.4048187,18.9164456 18.4048187,19.1835509 L18.4048187,21.8724105 C18.4048187,22.139007 18.1889787,22.3557439 17.9229787,22.3557439 Z" id="Stroke-5" stroke-width="0.74592"></path>
            <path d="M26.5482187,22.3557439 L23.870992,22.3557439 C23.6044853,22.3557439 23.389152,22.139007 23.389152,21.8724105 L23.389152,19.1835509 C23.389152,18.9164456 23.6044853,18.6997088 23.870992,18.6997088 L26.5482187,18.6997088 C26.8142187,18.6997088 27.029552,18.9164456 27.029552,19.1835509 L27.029552,21.8724105 C27.029552,22.139007 26.8142187,22.3557439 26.5482187,22.3557439 Z" id="Stroke-7" stroke-width="0.74592"></path>
        </g>
    </g>
</svg>