<?xml version="1.0" encoding="UTF-8"?>
<svg width="98px" height="126px" viewBox="0 0 98 126" version="1.1" xmlns="http://www.w3.org/2000/svg" xmlns:xlink="http://www.w3.org/1999/xlink">
    <!-- Generator: Sketch 46.2 (44496) - http://www.bohemiancoding.com/sketch -->
    <title>Page 1</title>
    <desc>Created with Sketch.</desc>
    <defs>
        <polygon id="path-1" points="14.3782 0.36 0.9072 0.36 0.9072 10.8669 14.3782 10.8669 14.3782 0.36"></polygon>
        <polygon id="path-3" points="0 126.64 97.273 126.64 97.273 1 0 1"></polygon>
    </defs>
    <g id="Page-1---Startsida/Landingpage" stroke="none" stroke-width="1" fill="none" fill-rule="evenodd">
        <g id="Desktop-Copy-9" transform="translate(-243.000000, -2433.000000)">
            <g id="Page-1" transform="translate(243.000000, 2432.000000)">
                <path d="M64.7003,110.0517 C65.8193,111.1707 65.8193,112.9787 64.7003,114.0977 C63.5853,115.2127 61.7743,115.2127 60.6583,114.0977 L60.0913,113.5267 C61.2063,114.6457 61.2063,116.4517 60.0913,117.5717 C58.9723,118.6867 57.1653,118.6867 56.0463,117.5717 L55.5143,117.0397 C56.5933,118.1587 56.5813,119.9387 55.4783,121.0447 C54.3753,122.1447 52.5963,122.1597 51.4773,121.0857 L50.8653,120.4737 C51.9803,121.5927 51.9803,123.4007 50.8653,124.5197 C49.7503,125.6337 47.9383,125.6337 46.8203,124.5197 L24.3463,102.1927 L32.5753,88.7267 C35.9723,88.6657 39.0753,87.4267 41.0683,86.4047 C41.0823,86.3967 41.0963,86.3897 41.1113,86.3817 C42.6003,85.6187 44.3713,85.6457 45.8273,86.4717 L47.4603,87.3987 L45.2723,90.6107 L64.7003,110.0517 Z" id="Fill-1" fill="#FFFFFF"></path>
                <path d="M64.7003,110.0517 L45.2723,90.6107 L47.4603,87.3987 L45.8273,86.4717 C44.3713,85.6457 42.6003,85.6187 41.1113,86.3817 C41.0963,86.3897 41.0823,86.3967 41.0683,86.4047 C39.0753,87.4267 35.9723,88.6657 32.5753,88.7267 L24.3463,102.1927 L46.8203,124.5197 C47.9383,125.6337 49.7503,125.6337 50.8653,124.5197 C51.9803,123.4007 51.9803,121.5927 50.8653,120.4737 L51.4773,121.0857 C52.5963,122.1597 54.3753,122.1447 55.4783,121.0447 C56.5813,119.9387 56.5933,118.1587 55.5143,117.0397 L56.0463,117.5717 C57.1653,118.6867 58.9723,118.6867 60.0913,117.5717 C61.2063,116.4517 61.2063,114.6457 60.0913,113.5267 L60.6583,114.0977 C61.7743,115.2127 63.5853,115.2127 64.7003,114.0977 C65.8193,112.9787 65.8193,111.1707 64.7003,110.0517 Z" id="Stroke-3" stroke="#231F20" stroke-width="2.569" stroke-linecap="round"></path>
                <path d="M47.4621,87.3974 L45.8271,86.4704 C44.3751,85.6474 42.6081,85.6124 41.1241,86.3764" id="Stroke-5" stroke="#231F20" stroke-width="2.569" stroke-linecap="round" stroke-linejoin="round"></path>
                <path d="M60.0915,113.5264 L52.9025,106.3374" id="Stroke-7" stroke="#231F20" stroke-width="2.569" stroke-linecap="round" stroke-linejoin="round"></path>
                <path d="M55.5143,117.04 L48.7113,110.236" id="Stroke-9" stroke="#231F20" stroke-width="2.569" stroke-linecap="round" stroke-linejoin="round"></path>
                <path d="M50.8654,120.4736 L45.4054,115.0136" id="Stroke-11" stroke="#231F20" stroke-width="2.569" stroke-linecap="round" stroke-linejoin="round"></path>
                <polygon id="Fill-13" fill="#17C5C0" points="95.9889 60.1523 95.9889 99.9633 82.9509 107.9333 65.2359 78.9463"></polygon>
                <polygon id="Stroke-15" stroke="#231F20" stroke-width="2.569" stroke-linecap="round" points="95.9889 60.1523 95.9889 99.9633 82.9509 107.9333 65.2359 78.9463"></polygon>
                <polygon id="Fill-17" fill="#FFFFFF" points="16.4928 104.2109 22.1908 107.6929 35.5728 85.7979 29.8748 82.3149"></polygon>
                <polygon id="Stroke-19" stroke="#231F20" stroke-width="2.569" stroke-linecap="round" points="16.4928 104.2109 22.1908 107.6929 35.5728 85.7979 29.8748 82.3149"></polygon>
                <polygon id="Fill-21" fill="#17C5C0" points="32.0343 78.9463 14.3223 107.9333 1.2843 99.9633 1.2843 60.1523"></polygon>
                <polygon id="Stroke-23" stroke="#231F20" stroke-width="2.569" stroke-linecap="round" points="32.0343 78.9463 14.3223 107.9333 1.2843 99.9633 1.2843 60.1523"></polygon>
                <g id="Group-28" transform="translate(37.000000, 86.640000)">
                    <path d="M16.1896,6.1198 L14.8706,7.3098 C14.2526,7.8688 13.5176,8.2498 12.7396,8.4408 C11.7606,8.6828 10.7126,8.6228 9.7396,8.2378 C9.0976,7.9828 8.3636,8.1828 7.9366,8.7258 L4.2716,13.4078 C3.6896,14.1498 2.6586,14.3678 1.8266,13.9218 C0.7856,13.3638 0.4236,12.0398 1.0546,11.0408 C1.8836,9.7268 2.7956,7.9258 3.4736,6.5158 C4.1896,5.0238 5.2416,3.7198 6.5446,2.6998 C9.8506,0.1108 14.3566,-0.3272 18.0996,1.5748 L18.4776,1.7668 C21.6046,3.3558 25.3086,3.3288 28.4106,1.6928 L28.5946,1.5958 L37.7516,16.2518 L29.1046,21.7128 C27.9916,22.4148 26.5426,22.2538 25.6126,21.3228 L13.2656,8.9688" id="Fill-25" fill="#FFFFFF"></path>
                    <path d="M16.1896,6.1198 L14.8706,7.3098 C14.2526,7.8688 13.5176,8.2498 12.7396,8.4408 C11.7606,8.6828 10.7126,8.6228 9.7396,8.2378 C9.0976,7.9828 8.3636,8.1828 7.9366,8.7258 L4.2716,13.4078 C3.6896,14.1498 2.6586,14.3678 1.8266,13.9218 C0.7856,13.3638 0.4236,12.0398 1.0546,11.0408 C1.8836,9.7268 2.7956,7.9258 3.4736,6.5158 C4.1896,5.0238 5.2416,3.7198 6.5446,2.6998 C9.8506,0.1108 14.3566,-0.3272 18.0996,1.5748 L18.4776,1.7668 C21.6046,3.3558 25.3086,3.3288 28.4106,1.6928 L28.5946,1.5958 L37.7516,16.2518 L29.1046,21.7128 C27.9916,22.4148 26.5426,22.2538 25.6126,21.3228 L13.2656,8.9688" id="Stroke-27" stroke="#231F20" stroke-width="2.569" stroke-linecap="round"></path>
                </g>
                <path d="M31.5241,112.1914 L31.5241,112.1914 C30.5381,111.2054 30.5381,109.6064 31.5241,108.6214 L33.9441,106.2004 C34.9301,105.2144 36.5281,105.2144 37.5151,106.2004 C38.5011,107.1864 38.5011,108.7854 37.5151,109.7714 L35.0941,112.1914 C34.1081,113.1774 32.5101,113.1774 31.5241,112.1914" id="Fill-29" fill="#FFFFFF"></path>
                <path d="M31.5241,112.1914 L31.5241,112.1914 C30.5381,111.2054 30.5381,109.6064 31.5241,108.6214 L33.9441,106.2004 C34.9301,105.2144 36.5281,105.2144 37.5151,106.2004 C38.5011,107.1864 38.5011,108.7854 37.5151,109.7714 L35.0941,112.1914 C34.1081,113.1774 32.5101,113.1774 31.5241,112.1914 Z" id="Stroke-31" stroke="#231F20" stroke-width="2.569"></path>
                <path d="M27.9626,108.6299 L27.9626,108.6299 C26.9766,107.6439 26.9766,106.0449 27.9626,105.0599 L30.3826,102.6389 C31.3686,101.6529 32.9676,101.6529 33.9536,102.6389 C34.9396,103.6249 34.9396,105.2239 33.9536,106.2099 L31.5326,108.6299 C30.5466,109.6159 28.9486,109.6159 27.9626,108.6299" id="Fill-33" fill="#FFFFFF"></path>
                <path d="M27.9626,108.6299 L27.9626,108.6299 C26.9766,107.6439 26.9766,106.0449 27.9626,105.0599 L30.3826,102.6389 C31.3686,101.6529 32.9676,101.6529 33.9536,102.6389 C34.9396,103.6249 34.9396,105.2239 33.9536,106.2099 L31.5326,108.6299 C30.5466,109.6159 28.9486,109.6159 27.9626,108.6299 Z" id="Stroke-35" stroke="#231F20" stroke-width="2.569"></path>
                <path d="M35.0807,115.748 L35.0807,115.748 C34.0947,114.762 34.0947,113.163 35.0807,112.178 L37.5007,109.758 C38.4867,108.771 40.0857,108.771 41.0717,109.758 C42.0577,110.743 42.0577,112.342 41.0717,113.328 L38.6517,115.748 C37.6647,116.734 36.0667,116.734 35.0807,115.748" id="Fill-37" fill="#FFFFFF"></path>
                <path d="M35.0807,115.748 L35.0807,115.748 C34.0947,114.762 34.0947,113.163 35.0807,112.178 L37.5007,109.758 C38.4867,108.771 40.0857,108.771 41.0717,109.758 C42.0577,110.743 42.0577,112.342 41.0717,113.328 L38.6517,115.748 C37.6647,116.734 36.0667,116.734 35.0807,115.748 Z" id="Stroke-39" stroke="#231F20" stroke-width="2.569"></path>
                <path d="M38.6374,119.3047 L38.6374,119.3047 C37.6514,118.3197 37.6514,116.7207 38.6374,115.7347 L41.0574,113.3147 C42.0434,112.3277 43.6424,112.3277 44.6284,113.3147 C45.6144,114.3007 45.6144,115.8997 44.6284,116.8847 L42.2084,119.3047 C41.2224,120.2907 39.6234,120.2907 38.6374,119.3047" id="Fill-41" fill="#FFFFFF"></path>
                <path d="M38.6374,119.3047 L38.6374,119.3047 C37.6514,118.3197 37.6514,116.7207 38.6374,115.7347 L41.0574,113.3147 C42.0434,112.3277 43.6424,112.3277 44.6284,113.3147 C45.6144,114.3007 45.6144,115.8997 44.6284,116.8847 L42.2084,119.3047 C41.2224,120.2907 39.6234,120.2907 38.6374,119.3047 Z" id="Stroke-43" stroke="#231F20" stroke-width="2.569"></path>
                <polygon id="Fill-45" fill="#FFFFFF" points="80.779 104.2109 75.08 107.6929 61.699 85.7979 67.397 82.3149"></polygon>
                <polygon id="Stroke-47" stroke="#231F20" stroke-width="2.569" stroke-linecap="round" points="80.779 104.2109 75.08 107.6929 61.699 85.7979 67.397 82.3149"></polygon>
                <path d="M79.9035,118.9316 L78.9515,119.8836" id="Stroke-49" stroke="#231F20" stroke-width="1.927" stroke-linecap="round"></path>
                <path d="M76.9225,121.9121 L75.9705,122.8641" id="Stroke-51" stroke="#231F20" stroke-width="1.927" stroke-linecap="round"></path>
                <path d="M79.9035,122.8642 L78.9515,121.9122" id="Stroke-53" stroke="#231F20" stroke-width="1.927" stroke-linecap="round"></path>
                <path d="M76.9225,119.8838 L75.9705,118.9318" id="Stroke-55" stroke="#231F20" stroke-width="1.927" stroke-linecap="round"></path>
                <path d="M12.3952,18.5879 L11.4432,19.5399" id="Stroke-57" stroke="#231F20" stroke-width="1.927" stroke-linecap="round"></path>
                <path d="M9.4147,21.5683 L8.4627,22.5203" id="Stroke-59" stroke="#231F20" stroke-width="1.927" stroke-linecap="round"></path>
                <path d="M12.3952,22.5205 L11.4432,21.5685" id="Stroke-61" stroke="#231F20" stroke-width="1.927" stroke-linecap="round"></path>
                <path d="M9.4147,19.539 L8.4627,18.587" id="Stroke-63" stroke="#231F20" stroke-width="1.927" stroke-linecap="round"></path>
                <path d="M94.6886,42.9717 L93.7366,43.9237" id="Stroke-65" stroke="#231F20" stroke-width="1.927" stroke-linecap="round"></path>
                <path d="M91.7077,45.9521 L90.7557,46.9041" id="Stroke-67" stroke="#231F20" stroke-width="1.927" stroke-linecap="round"></path>
                <path d="M94.6886,46.9043 L93.7366,45.9523" id="Stroke-69" stroke="#231F20" stroke-width="1.927" stroke-linecap="round"></path>
                <path d="M91.7077,43.9238 L90.7557,42.9718" id="Stroke-71" stroke="#231F20" stroke-width="1.927" stroke-linecap="round"></path>
                <path d="M18.5461,56.7256 C18.5461,57.5916 17.8441,58.2936 16.9781,58.2936 C16.1111,58.2936 15.4091,57.5916 15.4091,56.7256 C15.4091,55.8596 16.1111,55.1566 16.9781,55.1566 C17.8441,55.1566 18.5461,55.8596 18.5461,56.7256" id="Fill-73" fill="#17C5C0"></path>
                <path d="M87.9445,115.083 C87.9445,115.949 87.2425,116.651 86.3765,116.651 C85.5095,116.651 84.8075,115.949 84.8075,115.083 C84.8075,114.217 85.5095,113.515 86.3765,113.515 C87.2425,113.515 87.9445,114.217 87.9445,115.083" id="Fill-75" fill="#17C5C0"></path>
                <path d="M89.7614,27.54 C89.7614,28.86 88.6904,29.932 87.3694,29.932 C86.0484,29.932 84.9774,28.86 84.9774,27.54 C84.9774,26.219 86.0484,25.147 87.3694,25.147 C88.6904,25.147 89.7614,26.219 89.7614,27.54" id="Fill-77" fill="#17C5C0"></path>
                <path d="M75.4816,42.5801 C75.4816,57.4001 63.4646,69.4181 48.6426,69.4181 C33.8196,69.4181 21.8046,57.4001 21.8046,42.5801 C21.8046,27.7591 33.8196,15.7421 48.6426,15.7421 C63.4646,15.7421 75.4816,27.7591 75.4816,42.5801" id="Fill-79" fill="#FFFFFF"></path>
                <path d="M48.6422,17.0781 C34.5802,17.0781 23.1402,28.5181 23.1402,42.5801 C23.1402,56.6421 34.5802,68.0821 48.6422,68.0821 C62.7052,68.0821 74.1452,56.6421 74.1452,42.5801 C74.1452,28.5181 62.7052,17.0781 48.6422,17.0781 M48.6422,70.7541 C33.1072,70.7541 20.4682,58.1151 20.4682,42.5801 C20.4682,27.0451 33.1072,14.4061 48.6422,14.4061 C64.1792,14.4061 76.8172,27.0451 76.8172,42.5801 C76.8172,58.1151 64.1792,70.7541 48.6422,70.7541" id="Fill-81" fill="#282D33"></path>
                <path d="M54.0421,9.0078 C54.0391,9.6518 53.5211,10.1708 52.8751,10.1708 L44.4051,10.1708 C43.7641,10.1708 43.2431,9.6518 43.2451,9.0078 L43.2431,3.5038 C43.2451,2.8608 43.7641,2.3358 44.4051,2.3358 L52.8751,2.3398 C53.5211,2.3398 54.0421,2.8608 54.0391,3.5038 L54.0421,9.0078 Z" id="Fill-83" fill="#FFFFFF"></path>
                <g id="Group-87" transform="translate(41.000000, 0.640000)">
                    <mask id="mask-2" fill="white">
                        <use xlink:href="#path-1"></use>
                    </mask>
                    <g id="Clip-86"></g>
                    <path d="M3.5812,8.1949 L11.7062,8.1949 L11.7032,3.0359 L3.5792,3.0319 L3.5812,8.1949 Z M11.8742,10.8669 L3.4052,10.8669 C2.7352,10.8669 2.1072,10.6059 1.6362,10.1319 C1.1652,9.6589 0.9072,9.0309 0.9092,8.3629 L0.9072,2.8649 C0.9132,1.4809 2.0322,0.3599 3.4052,0.3599 L11.8752,0.3639 C12.5462,0.3639 13.1762,0.6259 13.6492,1.0999 C14.1202,1.5729 14.3782,2.2009 14.3752,2.8689 L14.3782,8.3679 C14.3732,9.7479 13.2492,10.8669 11.8742,10.8669 L11.8742,10.8669 Z" id="Fill-85" fill="#282D33" mask="url(#mask-2)"></path>
                </g>
                <path d="M29.6398,18.9795 L27.7128,16.1445 C27.4868,15.8135 27.5748,15.3635 27.9058,15.1395 L32.2668,12.1755 C32.5958,11.9535 33.0468,12.0395 33.2738,12.3695 L35.1988,15.2025 L29.6398,18.9795 Z" id="Fill-88" fill="#FFFFFF"></path>
                <path d="M28.5348,19.7305 L26.6078,16.8955 C26.2998,16.4425 26.1848,15.8945 26.2878,15.3535 C26.3908,14.8115 26.6998,14.3425 27.1568,14.0335 L31.5158,11.0715 C32.4518,10.4365 33.7338,10.6795 34.3748,11.6135 L36.3048,14.4525 L34.0938,15.9535 L32.5128,13.6255 L29.1618,15.9005 L30.7448,18.2295 L28.5348,19.7305 Z" id="Fill-90" fill="#282D33"></path>
                <path d="M67.6452,18.9795 L69.5722,16.1445 C69.7972,15.8135 69.7102,15.3635 69.3792,15.1395 L65.0182,12.1755 C64.6882,11.9535 64.2372,12.0395 64.0102,12.3695 L62.0852,15.2025 L67.6452,18.9795 Z" id="Fill-92" fill="#FFFFFF"></path>
                <path d="M68.7502,19.7305 L66.5402,18.2295 L68.1232,15.9005 L64.7722,13.6255 L63.1902,15.9535 L60.9802,14.4525 L62.9052,11.6195 C63.5502,10.6795 64.8322,10.4365 65.7682,11.0715 L70.1292,14.0345 C70.5852,14.3425 70.8932,14.8115 70.9962,15.3535 C71.1002,15.8945 70.9862,16.4425 70.6752,16.8975 L68.7502,19.7305 Z" id="Fill-94" fill="#282D33"></path>
                <path d="M72.2711,42.5801 C72.2711,55.6271 61.6921,66.2071 48.6421,66.2071 C35.5921,66.2071 25.0131,55.6271 25.0131,42.5801 C25.0131,29.5321 35.5921,18.9531 48.6421,18.9531 C61.6921,18.9531 72.2711,29.5321 72.2711,42.5801" id="Fill-96" fill="#B7BEC0"></path>
                <path d="M64.5895,42.5801 C64.5895,51.3861 57.4495,58.5261 48.6425,58.5261 C39.8355,58.5261 32.6945,51.3861 32.6945,42.5801 C32.6945,33.7741 39.8355,26.6351 48.6425,26.6351 C57.4495,26.6351 64.5895,33.7741 64.5895,42.5801" id="Fill-98" fill="#FFFFFF"></path>
                <path d="M48.4308,20.4394 L48.4308,24.1624 L48.4308,20.4394 Z" id="Fill-100" fill="#FFFFFF"></path>
                <mask id="mask-4" fill="white">
                    <use xlink:href="#path-3"></use>
                </mask>
                <g id="Clip-103"></g>
                <polygon id="Fill-102" fill="#282D33" mask="url(#mask-4)" points="47.095 24.162 49.767 24.162 49.767 20.439 47.095 20.439"></polygon>
                <path d="M37.3903,23.5117 L39.2503,26.7357 L37.3903,23.5117 Z" id="Fill-104" fill="#FFFFFF" mask="url(#mask-4)"></path>
                <polygon id="Fill-105" fill="#282D33" mask="url(#mask-4)" points="38.0939 27.4023 36.2329 24.1793 38.5479 22.8443 40.4079 26.0673"></polygon>
                <path d="M29.362,31.6914 L32.588,33.5564 L29.362,31.6914 Z" id="Fill-106" fill="#FFFFFF" mask="url(#mask-4)"></path>
                <polygon id="Fill-107" fill="#282D33" mask="url(#mask-4)" points="31.9196 34.7139 28.6926 32.8489 30.0306 30.5359 33.2566 32.4009"></polygon>
                <path d="M26.5021,42.792 L30.2251,42.792 L26.5021,42.792 Z" id="Fill-108" fill="#FFFFFF" mask="url(#mask-4)"></path>
                <polygon id="Fill-109" fill="#282D33" mask="url(#mask-4)" points="26.502 44.128 30.225 44.128 30.225 41.456 26.502 41.456"></polygon>
                <path d="M29.5729,53.8349 L32.7999,51.9729 L29.5729,53.8349 Z" id="Fill-110" fill="#FFFFFF" mask="url(#mask-4)"></path>
                <polygon id="Fill-111" fill="#282D33" mask="url(#mask-4)" points="30.2409 54.9912 28.9049 52.6782 32.1319 50.8152 33.4679 53.1302"></polygon>
                <path d="M37.7541,61.8594 L39.6181,58.6354 L37.7541,61.8594 Z" id="Fill-112" fill="#FFFFFF" mask="url(#mask-4)"></path>
                <polygon id="Fill-113" fill="#282D33" mask="url(#mask-4)" points="38.9108 62.5283 36.5978 61.1903 38.4618 57.9673 40.7748 59.3043"></polygon>
                <path d="M48.8537,64.7217 L48.8547,60.9977 L48.8537,64.7217 Z" id="Fill-114" fill="#FFFFFF" mask="url(#mask-4)"></path>
                <polygon id="Fill-115" fill="#282D33" mask="url(#mask-4)" points="50.1896 64.7217 47.5176 64.7207 47.5196 60.9977 50.1906 60.9977"></polygon>
                <path d="M59.8957,61.6494 L58.0367,58.4234 L59.8957,61.6494 Z" id="Fill-116" fill="#FFFFFF" mask="url(#mask-4)"></path>
                <polygon id="Fill-117" fill="#282D33" mask="url(#mask-4)" points="58.7379 62.3164 56.8799 59.0904 59.1939 57.7574 61.0529 60.9824"></polygon>
                <path d="M67.9215,53.4687 L64.6995,51.6037 L67.9215,53.4687 Z" id="Fill-118" fill="#FFFFFF" mask="url(#mask-4)"></path>
                <polygon id="Fill-119" fill="#282D33" mask="url(#mask-4)" points="67.2521 54.625 64.0301 52.76 65.3681 50.447 68.5911 52.312"></polygon>
                <path d="M70.7838,42.3721 L67.0588,42.3681 L70.7838,42.3721 Z" id="Fill-120" fill="#FFFFFF" mask="url(#mask-4)"></path>
                <polygon id="Fill-121" fill="#282D33" mask="url(#mask-4)" points="70.7824 43.708 67.0574 43.704 67.0604 41.032 70.7854 41.036"></polygon>
                <path d="M67.7116,31.3281 L64.4856,33.1881 L67.7116,31.3281 Z" id="Fill-122" fill="#FFFFFF" mask="url(#mask-4)"></path>
                <polygon id="Fill-123" fill="#282D33" mask="url(#mask-4)" points="65.1525 34.3457 63.8185 32.0317 67.0445 30.1707 68.3795 32.4867"></polygon>
                <path d="M59.5319,23.3017 L57.6679,26.5237 L59.5319,23.3017 Z" id="Fill-124" fill="#FFFFFF" mask="url(#mask-4)"></path>
                <polygon id="Fill-125" fill="#282D33" mask="url(#mask-4)" points="58.8234 27.1924 56.5104 25.8544 58.3754 22.6324 60.6874 23.9704"></polygon>
                <polygon id="Fill-126" fill="#282D33" mask="url(#mask-4)" points="47.306 14.74 49.978 14.74 49.978 10.02 47.306 10.02"></polygon>
                <path d="M56.7472,44.7969 L57.3552,44.1879 C59.5712,41.9729 59.5712,38.3819 57.3552,36.1669 L57.2722,36.0829 C55.0582,33.8679 51.4672,33.8679 49.2512,36.0829 L48.6422,36.6929 L48.0342,36.0829 C45.8192,33.8679 42.2272,33.8679 40.0122,36.0829 L39.9292,36.1669 C37.7152,38.3819 37.7152,41.9729 39.9292,44.1879 L40.5382,44.7969 L48.6422,52.9009 L56.7472,44.7969 Z" id="Fill-127" fill="#30C0D8" mask="url(#mask-4)"></path>
            </g>
        </g>
    </g>
</svg>