<?xml version="1.0" encoding="UTF-8"?>
<svg width="49px" height="30px" viewBox="0 0 49 30" version="1.1" xmlns="http://www.w3.org/2000/svg" xmlns:xlink="http://www.w3.org/1999/xlink">
    <!-- Generator: Sketch 46.2 (44496) - http://www.bohemiancoding.com/sketch -->
    <title>Group 24</title>
    <desc>Created with Sketch.</desc>
    <defs></defs>
    <g id="Page-1---Startsida/Landingpage" stroke="none" stroke-width="1" fill="none" fill-rule="evenodd">
        <g id="Group-24" transform="translate(1.000000, 1.000000)">
            <g id="Page-1-Copy-16" transform="translate(2.000000, 2.000000)" stroke="#000000">
                <path d="M0.2452,24.9454 L22.2222,0.3204 C22.3342,0.1944 22.5172,0.1944 22.6302,0.3204 L29.8542,8.4154 C30.0362,8.6194 30.3482,8.4744 30.3482,8.1854 L30.3482,4.3204 C30.3482,4.1414 30.4762,3.9974 30.6372,3.9974 L34.4892,3.9974 C34.6512,3.9974 34.7812,4.1454 34.7782,4.3274 L34.6272,13.6234 C34.6262,13.7114 34.6562,13.7964 34.7122,13.8584 L44.2902,24.5904" id="Stroke-1" stroke-width="3" stroke-linecap="round"></path>
                <path d="M38.2598,11.5851 L38.2598,4.0811 C38.2598,4.0811 38.4998,0.6811 35.4828,0.6811" id="Stroke-7" stroke-width="1.149" stroke-linecap="round"></path>
                <path d="M37.8614,10.6544 C37.8614,10.7404 37.7924,10.8094 37.7064,10.8094 C37.6204,10.8094 37.5494,10.7404 37.5494,10.6544 C37.5494,10.5684 37.6204,10.4984 37.7064,10.4984 C37.7924,10.4984 37.8614,10.5684 37.8614,10.6544 Z" id="Stroke-9" stroke-width="0.575"></path>
                <path d="M37.8614,9.1456 C37.8614,9.2316 37.7924,9.3006 37.7064,9.3006 C37.6204,9.3006 37.5494,9.2316 37.5494,9.1456 C37.5494,9.0596 37.6204,8.9896 37.7064,8.9896 C37.7924,8.9896 37.8614,9.0596 37.8614,9.1456 Z" id="Stroke-25" stroke-width="0.575"></path>
                <path d="M37.8614,7.548 C37.8614,7.634 37.7924,7.703 37.7064,7.703 C37.6204,7.703 37.5494,7.634 37.5494,7.548 C37.5494,7.462 37.6204,7.393 37.7064,7.393 C37.7924,7.393 37.8614,7.462 37.8614,7.548 Z" id="Stroke-27" stroke-width="0.575"></path>
                <path d="M37.8614,5.9503 C37.8614,6.0363 37.7924,6.1063 37.7064,6.1063 C37.6204,6.1063 37.5494,6.0363 37.5494,5.9503 C37.5494,5.8643 37.6204,5.7953 37.7064,5.7953 C37.7924,5.7953 37.8614,5.8643 37.8614,5.9503 Z" id="Stroke-29" stroke-width="0.575"></path>
                <path d="M37.8614,4.3536 C37.8614,4.4396 37.7924,4.5086 37.7064,4.5086 C37.6204,4.5086 37.5494,4.4396 37.5494,4.3536 C37.5494,4.2676 37.6204,4.1976 37.7064,4.1976 C37.7924,4.1976 37.8614,4.2676 37.8614,4.3536 Z" id="Stroke-31" stroke-width="0.575"></path>
            </g>
            <path d="M10.387,5.193 C10.387,8.061 8.062,10.386 5.194,10.386 C2.325,10.386 0,8.061 0,5.193 C0,2.325 2.325,0 5.194,0 C8.062,0 10.387,2.325 10.387,5.193 Z" id="Stroke-3" stroke="#000000" stroke-width="1.092" stroke-linecap="round"></path>
            <polygon id="Fill-5" fill="#000000" points="5.271 7.999 4.336 7.999 4.336 5.385 2 5.385 2 4.526 4.336 4.526 4.336 2 5.271 2 5.271 4.526 7.608 4.526 7.608 5.385 5.271 5.385"></polygon>
        </g>
    </g>
</svg>