<?xml version="1.0" encoding="UTF-8"?>
<svg width="41px" height="19px" viewBox="0 0 41 19" version="1.1" xmlns="http://www.w3.org/2000/svg" xmlns:xlink="http://www.w3.org/1999/xlink">
    <!-- Generator: Sketch 46.2 (44496) - http://www.bohemiancoding.com/sketch -->
    <title>Group 13</title>
    <desc>Created with Sketch.</desc>
    <defs>
        <polygon id="path-1" points="0.838975521 0.549190476 40.4934222 0.549190476 40.4934222 18.9984619 0.838975521 18.9984619 0.838975521 0.549190476"></polygon>
    </defs>
    <g id="Page-1---Startsida/Landingpage" stroke="none" stroke-width="1" fill="none" fill-rule="evenodd">
        <g id="Group-13">
            <mask id="mask-2" fill="white">
                <use xlink:href="#path-1"></use>
            </mask>
            <g id="Clip-12"></g>
            <path d="M10.9518289,3.49627143 L0.85854,17.862081 C0.808428889,17.9335571 0.860362222,18.0321762 0.94874,18.0321762 L3.80871778,18.9984619 C3.84516222,18.9984619 3.87978444,18.9803667 3.90074,18.9496048 L11.5413178,7.39308095 C11.5832289,7.32974762 11.6752511,7.32612857 11.7208067,7.38674762 L20.6342067,18.9559381 C20.6551622,18.983081 20.6879622,18.9984619 20.7216733,18.9984619 L40.3843622,18.9984619 C40.47274,18.9984619 40.5255844,18.8971286 40.47274,18.8256524 L29.73894,4.12598571 C29.7198067,4.09884286 29.6879178,4.08255714 29.6542067,4.08074762 L25.7564733,3.94865238 C25.6972511,3.94684286 25.6507844,3.89889048 25.6507844,3.84008095 L25.6507844,0.658033333 C25.6507844,0.597414286 25.6006733,0.548557143 25.54054,0.548557143 L21.5608067,0.548557143 C21.4988511,0.548557143 21.4496511,0.597414286 21.4496511,0.658033333 L21.4496511,5.31755714 C21.4496511,5.37727143 21.4013622,5.42703333 21.3403178,5.42703333 L20.4920733,5.42703333 C20.4310289,5.42703333 20.38274,5.37727143 20.38274,5.31755714 L20.38274,3.87174762 C20.38274,3.81384286 20.3362733,3.76498571 20.27614,3.76317619 L11.0465844,3.44922381 C11.0083178,3.44741429 10.9727844,3.46550952 10.9518289,3.49627143" id="Fill-11" fill="#2ABFBF" mask="url(#mask-2)"></path>
        </g>
    </g>
</svg>