<?xml version="1.0" encoding="UTF-8"?>
<svg width="29px" height="16px" viewBox="0 0 29 16" version="1.1" xmlns="http://www.w3.org/2000/svg" xmlns:xlink="http://www.w3.org/1999/xlink">
    <!-- Generator: Sketch 46.2 (44496) - http://www.bohemiancoding.com/sketch -->
    <title>Group 41</title>
    <desc>Created with Sketch.</desc>
    <defs></defs>
    <g id="Page-1---Startsida/Landingpage" stroke="none" stroke-width="1" fill="none" fill-rule="evenodd">
        <g id="Group-41" fill="#2ABFBF">
            <path d="M15.7350309,10 L0.264969128,10 C0.118700043,10 0,9.89300506 0,9.76115969 L0,7.2395306 C0,7.10768523 0.118700043,7 0.264969128,7 L15.7350309,7 C15.8813,7 16,7.10768523 16,7.2395306 L16,9.76115969 C16,9.89300506 15.8813,10 15.7350309,10" id="Fill-14"></path>
            <path d="M9,0.264969128 L9,15.7350309 C9,15.8820658 8.89300506,16 8.76115969,16 L6.2395306,16 C6.10768523,16 6,15.8820658 6,15.7350309 L6,0.264969128 C6,0.11946585 6.10768523,0 6.2395306,0 L8.76115969,0 C8.89300506,0 9,0.11946585 9,0.264969128" id="Fill-16"></path>
            <path d="M26.503331,11.9537342 L28.9537394,9.50385104 C29.0154202,9.44216333 29.0154202,9.34202095 28.9537394,9.28033324 L25.2192497,5.54622418 C25.1383438,5.46450799 25.1679826,5.32751322 25.2753231,5.28665513 L28.3873979,4.09536137 C28.5251783,4.04328734 28.5219741,3.84620713 28.3817905,3.79813879 L17.2095622,0.00875112873 C17.0853997,-0.0337092404 16.9668444,0.0856604766 17.008499,0.209035889 L20.7982611,11.3817209 C20.846324,11.5227214 21.043382,11.5267271 21.0954502,11.3881301 L22.2866098,8.27490375 C22.3282644,8.16755112 22.4652437,8.13871011 22.5469507,8.21962515 L26.2798384,11.9537342 C26.3415191,12.0154219 26.4416502,12.0154219 26.503331,11.9537342" id="Fill-18"></path>
        </g>
    </g>
</svg>