<svg xmlns="http://www.w3.org/2000/svg" viewBox="0 0 167.16 86.57"><title>Resurs 8</title><g id="Lager_2" data-name="Lager 2"><g id="Lager_1-2" data-name="Lager 1"><path d="M0,.6,44.71,81.89a9,9,0,0,0,7.9,4.67H80.05L35.51,6.14A10.75,10.75,0,0,0,26.1.6Z"/><path d="M64.27.6l43,78.24a14.9,14.9,0,0,0,13.05,7.72h24l-44-79.42A12.69,12.69,0,0,0,89.23.6Z"/><path d="M128.14.6l11.23,19.81a17.55,17.55,0,0,0,3.74,4.68c3.24,2.8,9,5.6,16.55.52a15.17,15.17,0,0,0,6.71-9.88,11.67,11.67,0,0,0-3.27-10.52A15.92,15.92,0,0,0,151.61.6Z" style="fill:#020202;stroke:#000;stroke-miterlimit:10;stroke-width:1.2088285735390791px"/></g></g></svg>