<svg xmlns="http://www.w3.org/2000/svg" viewBox="0 0 116.55 111.66"><title>Resurs 3</title><g id="Lager_2" data-name="Lager 2"><g id="Lager_1-2" data-name="Lager 1"><polygon points="90.61 57.66 102.76 69.81 102.76 57.66 90.61 57.66" style="fill:#e6e9ee"/><line x1="111.98" y1="3.74" x2="110.82" y2="4.91" style="fill:none;stroke:#231f20;stroke-linecap:round;stroke-miterlimit:10;stroke-width:1.35px"/><line x1="108.35" y1="7.38" x2="107.19" y2="8.54" style="fill:none;stroke:#231f20;stroke-linecap:round;stroke-miterlimit:10;stroke-width:1.35px"/><line x1="111.98" y1="8.54" x2="110.82" y2="7.38" style="fill:none;stroke:#231f20;stroke-linecap:round;stroke-miterlimit:10;stroke-width:1.35px"/><line x1="108.35" y1="4.91" x2="107.19" y2="3.74" style="fill:none;stroke:#231f20;stroke-linecap:round;stroke-miterlimit:10;stroke-width:1.35px"/><line x1="16.03" y1="0.69" x2="14.87" y2="1.85" style="fill:none;stroke:#231f20;stroke-linecap:round;stroke-miterlimit:10;stroke-width:1.35px"/><line x1="12.39" y1="4.32" x2="11.23" y2="5.49" style="fill:none;stroke:#231f20;stroke-linecap:round;stroke-miterlimit:10;stroke-width:1.35px"/><line x1="16.03" y1="5.49" x2="14.87" y2="4.32" style="fill:none;stroke:#231f20;stroke-linecap:round;stroke-miterlimit:10;stroke-width:1.35px"/><line x1="12.39" y1="1.85" x2="11.23" y2="0.69" style="fill:none;stroke:#231f20;stroke-linecap:round;stroke-miterlimit:10;stroke-width:1.35px"/><line x1="96.28" y1="33.41" x2="103.59" y2="33.41" style="fill:none;stroke:#231f20;stroke-linecap:round;stroke-linejoin:round;stroke-width:1.35px"/><line x1="102.89" y1="36.07" x2="106.46" y2="36.07" style="fill:none;stroke:#231f20;stroke-linecap:round;stroke-linejoin:round;stroke-width:1.35px"/><line x1="106.9" y1="33.41" x2="110.3" y2="33.41" style="fill:none;stroke:#231f20;stroke-linecap:round;stroke-linejoin:round;stroke-width:1.35px"/><line x1="99.58" y1="36.07" x2="100.28" y2="36.07" style="fill:none;stroke:#231f20;stroke-linecap:round;stroke-linejoin:round;stroke-width:1.35px"/><polygon points="6.87 51.46 0.68 51.46 0.68 110.99 96.8 110.99 96.8 104.8 6.87 104.8 6.87 51.46" style="fill:none;stroke:#231f20;stroke-linejoin:round;stroke-width:1.35px"/><polygon points="6.87 45.27 90.61 45.27 90.61 57.66 103 57.66 103 104.8 6.87 104.8 6.87 45.27" style="fill:none;stroke:#231f20;stroke-linejoin:round;stroke-width:1.35px"/><polygon points="103 57.66 90.61 57.66 90.61 45.27 103 57.66" style="fill:#fff;stroke:#231f20;stroke-linejoin:round;stroke-width:1.35px"/><polygon points="92.41 55.85 92.41 49.62 98.64 55.85 92.41 55.85" style="fill:#07dddd"/><path d="M51,55.31h18.4A32.18,32.18,0,0,1,77,37.63a22.29,22.29,0,1,0-33.51,0A32.24,32.24,0,0,1,51,55.31Z" style="fill:#fff;stroke:#231f20;stroke-linejoin:round;stroke-width:1.35px"/><polygon points="71.4 55.31 57.55 55.31 49.06 55.31 49.06 67.3 71.4 67.3 71.4 55.31" style="fill:#fff;stroke:#231f20;stroke-linejoin:round;stroke-width:1.35px"/><line x1="45.73" y1="59.3" x2="74.73" y2="59.3" style="fill:#fff;stroke:#231f20;stroke-linejoin:round;stroke-width:1.35px"/><line x1="45.73" y1="63.3" x2="74.73" y2="63.3" style="fill:#fff;stroke:#231f20;stroke-linejoin:round;stroke-width:1.35px"/><rect x="55.2" y="67.3" width="10.05" height="4.12" style="fill:#fff;stroke:#231f20;stroke-linejoin:round;stroke-width:1.35px"/><rect x="13.63" y="14.93" width="12.74" height="83.77" style="fill:#fff;stroke:#231f20;stroke-miterlimit:10;stroke-width:1.35px"/><rect x="-20.44" y="51.89" width="80.88" height="9.85" transform="translate(76.82 36.82) rotate(90)" style="fill:#30c0d8;stroke:#020202;stroke-miterlimit:10;stroke-width:1.35px"/><line x1="13.63" y1="20.47" x2="18.36" y2="20.47" style="fill:none;stroke:#231f20;stroke-miterlimit:10;stroke-width:1.35px"/><line x1="13.63" y1="26.06" x2="18.36" y2="26.06" style="fill:none;stroke:#231f20;stroke-miterlimit:10;stroke-width:1.35px"/><line x1="13.63" y1="31.65" x2="18.36" y2="31.65" style="fill:none;stroke:#231f20;stroke-miterlimit:10;stroke-width:1.35px"/><line x1="13.63" y1="37.25" x2="18.36" y2="37.25" style="fill:none;stroke:#231f20;stroke-miterlimit:10;stroke-width:1.35px"/><line x1="13.63" y1="42.84" x2="18.36" y2="42.84" style="fill:none;stroke:#231f20;stroke-miterlimit:10;stroke-width:1.35px"/><line x1="13.63" y1="48.43" x2="18.36" y2="48.43" style="fill:none;stroke:#231f20;stroke-miterlimit:10;stroke-width:1.35px"/><line x1="13.63" y1="54.02" x2="18.36" y2="54.02" style="fill:none;stroke:#231f20;stroke-miterlimit:10;stroke-width:1.35px"/><line x1="13.63" y1="59.61" x2="18.36" y2="59.61" style="fill:none;stroke:#231f20;stroke-miterlimit:10;stroke-width:1.35px"/><line x1="13.63" y1="65.21" x2="18.36" y2="65.21" style="fill:none;stroke:#231f20;stroke-miterlimit:10;stroke-width:1.35px"/><line x1="13.63" y1="70.8" x2="18.36" y2="70.8" style="fill:none;stroke:#231f20;stroke-miterlimit:10;stroke-width:1.35px"/><line x1="13.63" y1="76.39" x2="18.36" y2="76.39" style="fill:none;stroke:#231f20;stroke-miterlimit:10;stroke-width:1.35px"/><line x1="13.63" y1="81.98" x2="18.36" y2="81.98" style="fill:none;stroke:#231f20;stroke-miterlimit:10;stroke-width:1.35px"/><line x1="13.63" y1="87.58" x2="18.36" y2="87.58" style="fill:none;stroke:#231f20;stroke-miterlimit:10;stroke-width:1.35px"/><line x1="13.63" y1="93.17" x2="18.36" y2="93.17" style="fill:none;stroke:#231f20;stroke-miterlimit:10;stroke-width:1.35px"/><path d="M111.76,85.34H57.55v8.22h54.21a4.11,4.11,0,0,0,4.11-4.11h0A4.11,4.11,0,0,0,111.76,85.34Z" style="fill:#30c0d8;stroke:#020202;stroke-miterlimit:10;stroke-width:1.35px"/><path d="M103.29,93.56h8.47a4.11,4.11,0,0,0,4.11-4.11h0a4.11,4.11,0,0,0-4.11-4.11h-8.47Z" style="fill:none;stroke:#231f20;stroke-miterlimit:10;stroke-width:1.35px"/><polygon points="57.55 93.56 47.54 89.45 57.55 85.34 57.55 93.56" style="fill:none;stroke:#231f20;stroke-linejoin:round;stroke-width:1.35px"/><line x1="57.55" y1="89.45" x2="103.29" y2="89.45" style="fill:none;stroke:#231f20;stroke-linejoin:round;stroke-width:1.35px"/><line x1="92.81" y1="68.4" x2="91.65" y2="69.56" style="fill:none;stroke:#231f20;stroke-linecap:round;stroke-miterlimit:10;stroke-width:1.35px"/><line x1="89.17" y1="72.04" x2="88.01" y2="73.2" style="fill:none;stroke:#231f20;stroke-linecap:round;stroke-miterlimit:10;stroke-width:1.35px"/><line x1="92.81" y1="73.2" x2="91.65" y2="72.04" style="fill:none;stroke:#231f20;stroke-linecap:round;stroke-miterlimit:10;stroke-width:1.35px"/><line x1="89.17" y1="69.56" x2="88.01" y2="68.4" style="fill:none;stroke:#231f20;stroke-linecap:round;stroke-miterlimit:10;stroke-width:1.35px"/><circle cx="99.64" cy="20.36" r="2.26" style="fill:#07dddd"/><circle cx="37.94" cy="81.23" r="2.26" style="fill:#07dddd"/><circle cx="25.47" cy="2.52" r="2.26" style="fill:#07dddd"/><path d="M58.57,55.31c.91-.21,1.17-25-1.92-30.45,0,0-1.2-3.22-3.61-2.26s-1.8,4-1.8,4A5,5,0,0,0,53.19,30c1.8,1.27,6.6,1.13,6.6,1.13h1.65" style="fill:#fff;stroke:#231f20;stroke-linejoin:round;stroke-width:0.675px"/><path d="M62.57,55.31s-1.6-25,1.49-30.45c0,0,1.15-3.06,3.61-2.26,2.09.69,1.8,4,1.8,4a4.6,4.6,0,0,1-2,3.45c-1.77,1.32-6.6,1.13-6.6,1.13H59.27" style="fill:#fff;stroke:#231f20;stroke-linejoin:round;stroke-width:0.675px"/></g></g></svg>