<svg xmlns="http://www.w3.org/2000/svg" viewBox="0 0 121.12 118.84"><title>Resurs 5</title><g id="Lager_2" data-name="Lager 2"><g id="Lager_1-2" data-name="Lager 1"><polyline points="87.48 58.24 96.18 58.24 106.33 58.24 99.2 81.56 70.56 81.56 77.57 58.24 83.73 58.24 83.73 62.35 87.48 62.35 87.48 53.85 83.73 53.85 83.73 58.24" style="fill:none;stroke:#050505;stroke-linecap:round;stroke-miterlimit:10;stroke-width:1.2083272192955017px"/><polyline points="104.75 81.56 113.33 81.56 106.33 58.24 104.95 62.73 99.08 62.71" style="fill:none;stroke:#050505;stroke-linecap:round;stroke-miterlimit:10;stroke-width:1.2083272192955017px"/><line x1="103.42" y1="67.74" x2="97.63" y2="67.74" style="fill:none;stroke:#050505;stroke-linecap:round;stroke-miterlimit:10;stroke-width:1.2083272192955017px"/><line x1="101.92" y1="72.64" x2="96.18" y2="72.64" style="fill:none;stroke:#050505;stroke-linecap:round;stroke-miterlimit:10;stroke-width:1.2083272192955017px"/><line x1="100.52" y1="77.22" x2="94.73" y2="77.22" style="fill:none;stroke:#050505;stroke-linecap:round;stroke-miterlimit:10;stroke-width:1.2083272192955017px"/><line x1="88.93" y1="81.56" x2="96.18" y2="58.24" style="fill:none;stroke:#050505;stroke-linecap:round;stroke-miterlimit:10;stroke-width:1.2083272192955017px"/><path d="M43.13,44.81v58.51H36.61V44.81h6.52m1.21-1.21H35.4v60.92h8.94V43.6Z" style="fill:#050505"/><polyline points="43.13 103.31 36.61 103.31 43.13 94.33 36.61 94.33 43.13 86.39 36.61 86.39 43.13 78.41 36.61 78.41 43.13 69.9 36.61 69.9 43.13 61.02 36.61 61.02 43.13 52.92 36.61 52.92 43.13 44.8 44.49 44.8" style="fill:none;stroke:#050505;stroke-linecap:round;stroke-miterlimit:10;stroke-width:1.2083272192955017px"/><path d="M38.83,6a.14.14,0,0,1,.14.12l4.12,26.1a.14.14,0,0,0,.14.12.14.14,0,0,0,.1,0l5.32-5.78a.14.14,0,0,1,.1,0h62.73l.08,0,8.3,5.76a.14.14,0,0,1-.08.25H10.63a.14.14,0,0,1-.1-.23l5-5.52a.14.14,0,0,1,.1,0H31a.14.14,0,0,1,.1,0l5.3,5.53a.14.14,0,0,0,.1,0,.14.14,0,0,0,.14-.13L38.69,6.13A.14.14,0,0,1,38.83,6m0-1.21h0A1.34,1.34,0,0,0,37.48,6L35.61,29.72,32,25.91a1.35,1.35,0,0,0-1-.42H15.64a1.35,1.35,0,0,0-1,.44l-5,5.52a1.35,1.35,0,0,0,1,2.25H119.78a1.35,1.35,0,0,0,.77-2.46l-8.3-5.76a1.34,1.34,0,0,0-.77-.24H48.75a1.35,1.35,0,0,0-1,.44l-3.82,4.16L40.16,5.93A1.34,1.34,0,0,0,38.83,4.8Z" style="fill:#050505"/><polyline points="31.05 26.7 31.05 32.5 22.59 26.7 22.59 32.5 15.58 26.7 15.58 32.5 15.58 34.68 19.45 34.68 19.45 37.82 11.96 37.82 11.96 34.72 15.58 34.68" style="fill:none;stroke:#050505;stroke-linecap:round;stroke-miterlimit:10;stroke-width:1.2083272192955017px"/><polyline points="48.69 26.46 56.02 32.5 56.02 26.46 63.91 32.5 63.91 26.46 71.65 32.5 71.65 26.7 78.98 32.5 78.98 26.46 86.07 32.5 86.07 26.7 94.24 32.5 94.24 26.7 103.42 32.5 103.42 26.46 111.52 32.5 111.52 26.46" style="fill:none;stroke:#050505;stroke-linecap:round;stroke-miterlimit:10;stroke-width:1.2083272192955017px"/><path d="M38.78,5" style="fill:none;stroke:#050505;stroke-linecap:round;stroke-miterlimit:10;stroke-width:1.2083272192955017px"/><path d="M88.93,37.22h2.54v1.92h-5V37.22h2.42V24.47L40.17,1.85a2.26,2.26,0,0,0-2.5.4L13.81,24.71l25-22.09L88.93,24.47" style="fill:none;stroke:#050505;stroke-linecap:round;stroke-miterlimit:10;stroke-width:1.2083272192955017px"/><polyline points="91.46 39.15 88.93 41.45 86.51 39.15" style="fill:none;stroke:#050505;stroke-linecap:round;stroke-miterlimit:10;stroke-width:1.2083272192955017px"/><polyline points="77.57 58.24 88.93 41.45 106.33 58.24" style="fill:none;stroke:#050505;stroke-linecap:round;stroke-miterlimit:10;stroke-width:1.2083272192955017px"/><circle cx="88.93" cy="41.45" r="1.18" style="fill:#fff"/><path d="M88.93,40.87a.57.57,0,1,1-.57.57.57.57,0,0,1,.57-.57m0-1.21a1.78,1.78,0,1,0,1.78,1.78,1.78,1.78,0,0,0-1.78-1.78Z" style="fill:#050505"/><circle cx="106.04" cy="58" r="1.18" style="fill:#fff"/><path d="M106,57.43a.57.57,0,1,1-.57.57.57.57,0,0,1,.57-.57m0-1.21A1.78,1.78,0,1,0,107.83,58,1.78,1.78,0,0,0,106,56.22Z" style="fill:#050505"/><circle cx="77.57" cy="58" r="1.18" style="fill:#fff"/><path d="M77.57,57.43A.57.57,0,1,1,77,58a.57.57,0,0,1,.57-.57m0-1.21A1.78,1.78,0,1,0,79.35,58a1.78,1.78,0,0,0-1.78-1.78Z" style="fill:#050505"/><circle cx="88.93" cy="25.98" r="2.11" style="fill:#fff"/><path d="M88.93,24.47A1.51,1.51,0,1,1,87.42,26a1.51,1.51,0,0,1,1.51-1.51m0-1.21A2.72,2.72,0,1,0,91.64,26a2.72,2.72,0,0,0-2.72-2.72Z" style="fill:#050505"/><circle cx="15.1" cy="25.5" r="2.11" style="fill:#fff"/><path d="M15.1,24a1.51,1.51,0,1,1-1.51,1.51A1.51,1.51,0,0,1,15.1,24m0-1.21a2.72,2.72,0,1,0,2.72,2.72,2.72,2.72,0,0,0-2.72-2.72Z" style="fill:#050505"/><circle cx="38.78" cy="2.72" r="2.11" style="fill:#fff"/><path d="M38.78,1.21a1.51,1.51,0,1,1-1.51,1.51,1.51,1.51,0,0,1,1.51-1.51m0-1.21A2.72,2.72,0,1,0,41.5,2.72,2.72,2.72,0,0,0,38.78,0Z" style="fill:#050505"/><line x1="41.81" y1="118.09" x2="58.4" y2="118.09" style="fill:none;stroke:#231f20;stroke-linecap:round;stroke-miterlimit:10;stroke-width:1.5px"/><line x1="60.97" y1="118.09" x2="63.92" y2="118.09" style="fill:none;stroke:#231f20;stroke-linecap:round;stroke-miterlimit:10;stroke-width:1.5px"/><line x1="64.12" y1="113.7" x2="80.72" y2="113.7" style="fill:none;stroke:#231f20;stroke-linecap:round;stroke-miterlimit:10;stroke-width:1.5px"/><line x1="83.28" y1="113.7" x2="86.24" y2="113.7" style="fill:none;stroke:#231f20;stroke-linecap:round;stroke-miterlimit:10;stroke-width:1.5px"/><line x1="17.74" y1="114.72" x2="21.36" y2="114.72" style="fill:none;stroke:#231f20;stroke-linecap:round;stroke-miterlimit:10;stroke-width:1.5px"/><line x1="25.07" y1="114.72" x2="50.57" y2="114.72" style="fill:none;stroke:#231f20;stroke-linecap:round;stroke-miterlimit:10;stroke-width:1.5px"/><line x1="9.33" y1="110.41" x2="96.4" y2="110.41" style="fill:#fff;stroke:#231f20;stroke-miterlimit:10;stroke-width:1.5px"/><line x1="82.34" y1="1.2" x2="81.26" y2="2.28" style="fill:none;stroke:#231f20;stroke-linecap:round;stroke-miterlimit:10;stroke-width:2.187px"/><line x1="78.95" y1="4.59" x2="77.87" y2="5.67" style="fill:none;stroke:#231f20;stroke-linecap:round;stroke-miterlimit:10;stroke-width:2.187px"/><line x1="82.34" y1="5.67" x2="81.26" y2="4.59" style="fill:none;stroke:#231f20;stroke-linecap:round;stroke-miterlimit:10;stroke-width:2.187px"/><line x1="78.95" y1="2.28" x2="77.87" y2="1.2" style="fill:none;stroke:#231f20;stroke-linecap:round;stroke-miterlimit:10;stroke-width:2.187px"/><line x1="11.56" y1="55.77" x2="10.48" y2="56.85" style="fill:none;stroke:#231f20;stroke-linecap:round;stroke-miterlimit:10;stroke-width:2.187px"/><line x1="8.18" y1="59.15" x2="7.1" y2="60.23" style="fill:none;stroke:#231f20;stroke-linecap:round;stroke-miterlimit:10;stroke-width:2.187px"/><line x1="11.56" y1="60.23" x2="10.48" y2="59.15" style="fill:none;stroke:#231f20;stroke-linecap:round;stroke-miterlimit:10;stroke-width:2.187px"/><line x1="8.18" y1="56.85" x2="7.1" y2="55.77" style="fill:none;stroke:#231f20;stroke-linecap:round;stroke-miterlimit:10;stroke-width:2.187px"/><circle cx="106.62" cy="13.84" r="2.07" style="fill:#17c6c1"/><circle cx="2.07" cy="43.32" r="2.07" style="fill:#07dddd"/><circle cx="60.97" cy="48.15" r="2.07" style="fill:#17c6c1"/><rect x="36.06" y="33.36" width="12.21" height="12.21" rx="1.53" ry="1.53" style="fill:#07dddd;stroke:#070707;stroke-miterlimit:10;stroke-width:1.458px"/></g></g></svg>